{
.appVersion = "3197";
copyright = "Copyright © 2021 by Deni Anggara. All rights reserved.";
customParameters = (
{
name = "Use Typo Metrics";
value = 1;
},
{
name = vendorID;
value = LCT;
},
{
name = sampleText;
value = "Next Point &\012Mineral Stigma";
},
{
name = Axes;
value = (
{
Name = Weight;
Tag = wght;
}
);
}
);
date = "2021-05-10 14:48:47 +0000";
designer = "Deni Anggara";
designerURL = www.degarism.com;
familyName = Utara;
featurePrefixes = (
{
automatic = 1;
code = "languagesystem DFLT dflt;\012\012languagesystem latn dflt;\012languagesystem latn AZE;\012languagesystem latn CRT;\012languagesystem latn KAZ;\012languagesystem latn TAT;\012languagesystem latn TRK;\012languagesystem latn ROM;\012languagesystem latn MOL;\012";
name = Languagesystems;
}
);
features = (
{
automatic = 1;
code = "feature locl;\012feature subs;\012feature sinf;\012feature sups;\012feature numr;\012feature dnom;\012feature frac;\012feature ordn;\012feature pnum;\012feature tnum;\012feature case;\012feature salt;\012feature ss01;\012feature ss02;\012feature ss03;\012feature ss04;\012";
name = aalt;
},
{
automatic = 1;
code = "lookup ccmp_Other_1 {\012	@CombiningTopAccents = [acutecomb brevecomb caroncomb circumflexcomb commaturnedabovecomb dieresiscomb dotaccentcomb gravecomb hungarumlautcomb macroncomb ringcomb tildecomb];\012	@CombiningNonTopAccents = [cedillacomb ogonekcomb slashlongcomb slashshortcomb];\012	sub [i]' @CombiningTopAccents by [idotless];\012	sub [i]' @CombiningNonTopAccents @CombiningTopAccents by [idotless];\012} ccmp_Other_1;\012";
name = ccmp;
},
{
automatic = 1;

glyphs = (
{
glyphname = A;
lastChange = "2023-01-22 17:01:56 +0000";
layers = (
{
anchors = (
{
name = bottom;
position = "{370, 0}";
},
{
name = ogonek;
position = "{648, 0}";
},
{
name = top;
position = "{370, 724}";
}
);
layerId = "E9EF56E4-BA0E-4F86-8263-866E5C5AE35D";
paths = (
{
closed = 1;
nodes = (
"179 0 LINE",
"387 607 LINE",
"350 607 LINE",
"561 0 LINE",
"713 0 LINE",
"446 724 LINE",
"292 724 LINE",
"26 0 LINE"
);
},
{
closed = 1;
nodes = (
"561 171 LINE",
"561 301 LINE",
"180 301 LINE",
"180 171 LINE"
);
}
);
width = 739;
},
{
anchors = (
{
name = bottom;
position = "{357, 0}";
},
{
name = ogonek;
position = "{646, 0}";
},
{
name = top;
position = "{357, 724}";
}
);
layerId = "9744B420-26AC-498D-9016-81F71DDA7C26";
paths = (
{
closed = 1;
nodes = (
"113 0 LINE",
"365 667 LINE",
"347 667 LINE",
"602 0 LINE",
"674 0 LINE",
"391 724 LINE",
"319 724 LINE",
"40 0 LINE"
);
},
{
closed = 1;
nodes = (
"559 223 LINE",
"559 285 LINE",
"155 285 LINE",
"155 223 LINE"
);
}
);
width = 713;
},
{
anchors = (
{
name = bottom;
position = "{359, 0}";
},
{
name = ogonek;
position = "{646, 0}";
},
{
name = top;
position = "{359, 724}";
}
);
layerId = "E61E66CE-5363-4C81-9EFF-07DC28A46654";
paths = (
{
closed = 1;
nodes = (
"126 0 LINE",
"369 655 LINE",
"347 655 LINE",
"593 0 LINE",
"682 0 LINE",
"402 724 LINE",
"314 724 LINE",
"37 0 LINE"
);
},
{
closed = 1;
nodes = (
"559 214 LINE",
"559 290 LINE",
"160 290 LINE",
"160 214 LINE"
);
}
);
width = 718;
}
);
leftKerningGroup = KO_A;
rightKerningGroup = KO_A;
unicode = 0041;
userData = {
KernOnName = A;
};
},
{
glyphname = AE;
lastChange = "2023-01-20 18:03:57 +0000";
layers = (
{
anchors = (
{
name = bottom;
position = "{645, 0}";
},
{
name = ogonek;
position = "{803, 0}";
},
{
name = top;
position = "{645, 724}";
},
{
name = topleft;
position = "{404, 724}";
}
);
layerId = "E9EF56E4-BA0E-4F86-8263-866E5C5AE35D";
paths = (
{
closed = 1;
nodes = (
"246 311 LINE",
"203 181 LINE",
"441 181 LINE",
"441 311 LINE"
);
},
{
closed = 1;
nodes = (
"885 0 LINE",
"885 140 LINE",
"572 140 LINE",
"572 302 LINE",
"823 302 LINE",
"823 432 LINE",
"572 432 LINE",
"572 585 LINE",
"875 585 LINE",
"875 724 LINE",
"276 724 LINE",
"26 0 LINE",
"180 0 LINE",
"370 585 LINE",
"425 585 LINE",
"425 0 LINE"
);
}
);
width = 919;
},
{
anchors = (
{
name = bottom;
position = "{659, 0}";
},
{
name = ogonek;
position = "{817, 0}";
},
{
name = top;
position = "{659, 724}";
},
{
name = topleft;
position = "{418, 724}";
}
);
layerId = "9744B420-26AC-498D-9016-81F71DDA7C26";
paths = (
{
closed = 1;
nodes = (
"177 285 LINE",
"155 223 LINE",
"424 223 LINE",
"424 285 LINE"
);
},
{
closed = 1;
nodes = (
"829 0 LINE",
"829 67 LINE",
"479 67 LINE",
"479 339 LINE",
"767 339 LINE",
"767 402 LINE",
"479 402 LINE",
"479 657 LINE",
"819 657 LINE",
"819 724 LINE",
"299 724 LINE",
"40 0 LINE",
"114 0 LINE",
"344 657 LINE",
"408 657 LINE",
"408 0 LINE"
);
}
);
width = 869;
},
{
anchors = (
{
name = bottom;
position = "{656, 0}";
},
{
name = ogonek;
position = "{814, 0}";
},
{
name = top;
position = "{656, 724}";
},
{
name = topleft;
position = "{415, 724}";
}
);
layerId = "E61E66CE-5363-4C81-9EFF-07DC28A46654";
paths = (
{
closed = 1;
nodes = (
"191 290 LINE",
"164 214 LINE",
"428 214 LINE",
"428 290 LINE"
);
},
{
closed = 1;
nodes = (
"840 0 LINE",
"840 82 LINE",
"497 82 LINE",
"497 332 LINE",
"778 332 LINE",
"778 408 LINE",
"497 408 LINE",
"497 643 LINE",
"830 643 LINE",
"830 724 LINE",
"294 724 LINE",
"37 0 LINE",
"127 0 LINE",
"350 643 LINE",
"412 643 LINE",
"412 0 LINE"
);
}
);
width = 879;
}
);
leftKerningGroup = KO_A;
leftMetricsKey = A;
rightKerningGroup = KO_E;
rightMetricsKey = E;
unicode = 00C6;
},
{
glyphname = B;
lastChange = "2023-01-21 13:03:59 +0000";
layers = (
{
anchors = (
{
name = bottom;
position = "{332, 0}";
},
{
name = top;
position = "{332, 724}";
}
);
layerId = "E9EF56E4-BA0E-4F86-8263-866E5C5AE35D";
paths = (
{
closed = 1;
nodes = (
"373 0 LINE SMOOTH",
"527 0 OFFCURVE",
"616 82 OFFCURVE",
"616 205 CURVE SMOOTH",
"616 290 OFFCURVE",
"561 362 OFFCURVE",
"479 376 CURVE",
"491 362 LINE",
"560 383 OFFCURVE",
"606 448 OFFCURVE",
"606 526 CURVE SMOOTH",
"606 645 OFFCURVE",
"524 724 OFFCURVE",
"392 724 CURVE SMOOTH",
"62 724 LINE",
"62 0 LINE"
);
},
{
closed = 1;
nodes = (
"209 301 LINE",
"378 301 LINE SMOOTH",
"429 301 OFFCURVE",
"463 272 OFFCURVE",
"463 221 CURVE SMOOTH",
"463 172 OFFCURVE",
"432 140 OFFCURVE",
"375 140 CURVE SMOOTH",
"209 140 LINE"
);
},
{
closed = 1;
nodes = (
"209 585 LINE",
"379 585 LINE SMOOTH",
"426 585 OFFCURVE",
"458 556 OFFCURVE",
"458 508 CURVE SMOOTH",
"458 462 OFFCURVE",
"428 431 OFFCURVE",
"378 431 CURVE SMOOTH",
"209 431 LINE"
);
}
);
width = 654;
},
{
anchors = (
{
name = bottom;
position = "{353, 0}";
},
{
name = top;
position = "{353, 724}";
}
);
layerId = "9744B420-26AC-498D-9016-81F71DDA7C26";
paths = (
{
closed = 1;
nodes = (
"390 0 LINE SMOOTH",
"537 0 OFFCURVE",
"621 79 OFFCURVE",
"621 196 CURVE SMOOTH",
"621 291 OFFCURVE",
"561 363 OFFCURVE",
"472 374 CURVE",
"478 364 LINE",
"557 381 OFFCURVE",
"611 447 OFFCURVE",
"611 536 CURVE SMOOTH",
"611 647 OFFCURVE",
"533 724 OFFCURVE",
"413 724 CURVE SMOOTH",
"101 724 LINE",
"101 0 LINE"
);
},
{
closed = 1;
nodes = (
"171 336 LINE",
"404 336 LINE SMOOTH",
"491 336 OFFCURVE",
"549 283 OFFCURVE",
"549 203 CURVE SMOOTH",
"549 121 OFFCURVE",
"492 67 OFFCURVE",
"391 67 CURVE SMOOTH",
"171 67 LINE"
);
},
{
closed = 1;
nodes = (
"171 657 LINE",
"408 657 LINE SMOOTH",
"487 657 OFFCURVE",
"540 606 OFFCURVE",
"540 526 CURVE SMOOTH",
"540 450 OFFCURVE",
"487 398 OFFCURVE",
"404 398 CURVE SMOOTH",
"171 398 LINE"
);
}
);
width = 686;
},
{
anchors = (
{
name = bottom;
position = "{349, 0}";
},
{
name = top;
position = "{349, 724}";
}
);
layerId = "E61E66CE-5363-4C81-9EFF-07DC28A46654";
paths = (
{
closed = 1;
nodes = (
"386 0 LINE SMOOTH",
"535 0 OFFCURVE",
"620 79 OFFCURVE",
"620 198 CURVE SMOOTH",
"620 291 OFFCURVE",
"561 363 OFFCURVE",
"474 374 CURVE",
"480 364 LINE",
"557 381 OFFCURVE",
"610 447 OFFCURVE",
"610 534 CURVE SMOOTH",
"610 647 OFFCURVE",
"531 724 OFFCURVE",
"409 724 CURVE SMOOTH",
"93 724 LINE",
"93 0 LINE"
);
},
{
closed = 1;
nodes = (
"178 329 LINE",
"399 329 LINE SMOOTH",
"479 329 OFFCURVE",
"532 281 OFFCURVE",
"532 207 CURVE SMOOTH",
"532 132 OFFCURVE",
"480 82 OFFCURVE",
"387 82 CURVE SMOOTH",
"178 82 LINE"
);
},
{
closed = 1;
nodes = (
"178 643 LINE",
"402 643 LINE SMOOTH",
"475 643 OFFCURVE",
"524 596 OFFCURVE",
"524 523 CURVE SMOOTH",
"524 452 OFFCURVE",
"475 405 OFFCURVE",
"399 405 CURVE SMOOTH",
"178 405 LINE"
);
}
);
width = 679;
}
);
leftKerningGroup = KO_H;
rightKerningGroup = KO_B;
unicode = 0042;
},
{
glyphname = C;
lastChange = "2023-01-21 14:06:10 +0000";
layers = (
{
anchors = (
{
name = bottom;
position = "{401, 0}";
},
{
name = top;
position = "{401, 724}";
}
);
layerId = "E9EF56E4-BA0E-4F86-8263-866E5C5AE35D";
paths = (
{
closed = 1;
nodes = (
"581 -8 OFFCURVE",
"712 79 OFFCURVE",
"764 218 CURVE",
"622 271 LINE",
"591 181 OFFCURVE",
"514 132 OFFCURVE",
"412 132 CURVE SMOOTH",
"272 132 OFFCURVE",
"189 225 OFFCURVE",
"189 362 CURVE SMOOTH",
"189 507 OFFCURVE",
"278 592 OFFCURVE",
"412 592 CURVE SMOOTH",
"523 592 OFFCURVE",
"598 535 OFFCURVE",
"625 442 CURVE",
"767 498 LINE",
"716 642 OFFCURVE",
"584 732 OFFCURVE",
"412 732 CURVE SMOOTH",
"191 732 OFFCURVE",
"36 583 OFFCURVE",
"36 362 CURVE SMOOTH",
"36 141 OFFCURVE",
"191 -8 OFFCURVE",
"412 -8 CURVE SMOOTH"
);
}
);
width = 797;
},
{
anchors = (
{
name = bottom;
position = "{421, 0}";
},
{
name = top;
position = "{421, 724}";
}
);
layerId = "9744B420-26AC-498D-9016-81F71DDA7C26";
paths = (
{
closed = 1;
nodes = (
"599 -6 OFFCURVE",
"730 79 OFFCURVE",
"782 219 CURVE",
"714 244 LINE",
"673 128 OFFCURVE",
"567 60 OFFCURVE",
"432 60 CURVE SMOOTH",
"250 60 OFFCURVE",
"129 182 OFFCURVE",
"129 362 CURVE SMOOTH",
"129 545 OFFCURVE",
"252 664 OFFCURVE",
"432 664 CURVE SMOOTH",
"573 664 OFFCURVE",
"678 590 OFFCURVE",
"717 470 CURVE",
"785 497 LINE",
"734 642 OFFCURVE",
"602 730 OFFCURVE",
"432 730 CURVE SMOOTH",
"211 730 OFFCURVE",
"57 581 OFFCURVE",
"57 362 CURVE SMOOTH",
"57 143 OFFCURVE",
"211 -6 OFFCURVE",
"432 -6 CURVE SMOOTH"
);
}
);
width = 832;
},
{
anchors = (
{
name = bottom;
position = "{417, 0}";
},
{
name = top;
position = "{417, 724}";
}
);
layerId = "E61E66CE-5363-4C81-9EFF-07DC28A46654";
paths = (
{
closed = 1;
nodes = (
"596 -6 OFFCURVE",
"727 79 OFFCURVE",
"779 219 CURVE",
"696 249 LINE",
"657 139 OFFCURVE",
"556 74 OFFCURVE",
"428 74 CURVE SMOOTH",
"254 74 OFFCURVE",
"141 191 OFFCURVE",
"141 362 CURVE SMOOTH",
"141 538 OFFCURVE",
"257 650 OFFCURVE",
"428 650 CURVE SMOOTH",
"563 650 OFFCURVE",
"662 579 OFFCURVE",
"699 465 CURVE",
"781 497 LINE",
"731 642 OFFCURVE",
"599 730 OFFCURVE",
"428 730 CURVE SMOOTH",
"207 730 OFFCURVE",
"53 581 OFFCURVE",
"53 362 CURVE SMOOTH",
"53 143 OFFCURVE",
"207 -6 OFFCURVE",
"428 -6 CURVE SMOOTH"
);
}
);
width = 825;
}
);
leftKerningGroup = KO_O;
rightKerningGroup = KO_C;
unicode = 0043;
},
{
glyphname = D;
lastChange = "2023-01-19 15:32:25 +0000";
layers = (
{
anchors = (
{
name = bottom;
position = "{364, 0}";
},
{
name = center;
position = "{364, 362}";
},
{
name = top;
position = "{309, 724}";
}
);
layerId = "E9EF56E4-BA0E-4F86-8263-866E5C5AE35D";
paths = (
{
closed = 1;
nodes = (
"303 0 LINE SMOOTH",
"525 0 OFFCURVE",
"680 146 OFFCURVE",
"680 362 CURVE SMOOTH",
"680 579 OFFCURVE",
"525 724 OFFCURVE",
"303 724 CURVE SMOOTH",
"62 724 LINE",
"62 0 LINE"
);
},
{
closed = 1;
nodes = (
"209 585 LINE",
"303 585 LINE SMOOTH",
"444 585 OFFCURVE",
"527 495 OFFCURVE",
"527 362 CURVE SMOOTH",
"527 222 OFFCURVE",
"437 140 OFFCURVE",
"303 140 CURVE SMOOTH",
"209 140 LINE"
);
}
);
width = 715;
},
{
anchors = (
{
name = bottom;
position = "{385, 0}";
},
{
name = center;
position = "{385, 362}";
},
{
name = top;
position = "{330, 724}";
}
);
layerId = "9744B420-26AC-498D-9016-81F71DDA7C26";
paths = (
{
closed = 1;
nodes = (
"305 0 LINE SMOOTH",
"530 0 OFFCURVE",
"685 147 OFFCURVE",
"685 362 CURVE SMOOTH",
"685 577 OFFCURVE",
"530 724 OFFCURVE",
"305 724 CURVE SMOOTH",
"101 724 LINE",
"101 0 LINE"
);
},
{
closed = 1;
nodes = (
"171 657 LINE",
"305 657 LINE SMOOTH",
"491 657 OFFCURVE",
"613 538 OFFCURVE",
"613 362 CURVE SMOOTH",
"613 183 OFFCURVE",
"488 67 OFFCURVE",
"305 67 CURVE SMOOTH",
"171 67 LINE"
);
}
);
width = 737;
},
{
anchors = (
{
name = bottom;
position = "{381, 0}";
},
{
name = center;
position = "{381, 362}";
},
{
name = top;
position = "{326, 724}";
}
);
layerId = "E61E66CE-5363-4C81-9EFF-07DC28A46654";
paths = (
{
closed = 1;
nodes = (
"305 0 LINE SMOOTH",
"529 0 OFFCURVE",
"684 147 OFFCURVE",
"684 362 CURVE SMOOTH",
"684 577 OFFCURVE",
"529 724 OFFCURVE",
"305 724 CURVE SMOOTH",
"93 724 LINE",
"93 0 LINE"
);
},
{
closed = 1;
nodes = (
"178 643 LINE",
"305 643 LINE SMOOTH",
"482 643 OFFCURVE",
"596 529 OFFCURVE",
"596 362 CURVE SMOOTH",
"596 191 OFFCURVE",
"478 82 OFFCURVE",
"305 82 CURVE SMOOTH",
"178 82 LINE"
);
}
);
width = 732;
}
);
leftKerningGroup = KO_H;
rightKerningGroup = KO_O;
rightMetricsKey = O;
unicode = 0044;
},
{
glyphname = Eth;
lastChange = "2023-01-19 15:31:29 +0000";
layers = (
{
components = (
{
alignment = -1;
name = D;
}
);
layerId = "E9EF56E4-BA0E-4F86-8263-866E5C5AE35D";
paths = (
{
closed = 1;
nodes = (
"-10 308 LINE",
"313 308 LINE",
"313 417 LINE",
"-10 417 LINE"
);
}
);
width = 716;
},
{
components = (
{
alignment = -1;
name = D;
}
);
layerId = "9744B420-26AC-498D-9016-81F71DDA7C26";
paths = (
{
closed = 1;
nodes = (
"0 329 LINE",
"323 329 LINE",
"323 396 LINE",
"0 396 LINE"
);
}
);
width = 742;
},
{
components = (
{
alignment = -1;
name = D;
}
);
layerId = "E61E66CE-5363-4C81-9EFF-07DC28A46654";
paths = (
{
closed = 1;
nodes = (
"-2 325 LINE",
"321 325 LINE",
"321 400 LINE",
"-2 400 LINE"
);
}
);
width = 737;
}
);
rightKerningGroup = KO_O;
unicode = 00D0;
},
{
glyphname = E;
lastChange = "2023-01-21 14:06:10 +0000";
layers = (
{
anchors = (
{
name = bottom;
position = "{318, 0}";
},
{
name = ogonek;
position = "{461, 0}";
},
{
name = top;
position = "{313, 724}";
},
{
name = topleft;
position = "{99, 724}";
}
);
layerId = "E9EF56E4-BA0E-4F86-8263-866E5C5AE35D";
paths = (
{
closed = 1;
nodes = (
"564 585 LINE",
"564 724 LINE",
"62 724 LINE",
"62 0 LINE",
"574 0 LINE",
"574 140 LINE",
"164 140 LINE",
"209 95 LINE",
"209 630 LINE",
"164 585 LINE"
);
},
{
closed = 1;
nodes = (
"512 301 LINE",
"512 432 LINE",
"193 432 LINE",
"193 301 LINE"
);
}
);
width = 608;
},
{
anchors = (
{
name = bottom;
position = "{343, 0}";
},
{
name = ogonek;
position = "{466, 0}";
},
{
name = top;
position = "{338, 724}";
},
{
name = topleft;
position = "{127, 724}";
}
);
layerId = "9744B420-26AC-498D-9016-81F71DDA7C26";
paths = (
{
closed = 1;
nodes = (
"573 657 LINE",
"573 724 LINE",
"101 724 LINE",
"101 0 LINE",
"583 0 LINE",
"583 67 LINE",
"127 67 LINE",
"172 22 LINE",
"172 702 LINE",
"127 657 LINE"
);
},
{
closed = 1;
nodes = (
"521 333 LINE",
"521 399 LINE",
"156 399 LINE",
"156 333 LINE"
);
}
);
width = 623;
},
{
anchors = (
{
name = bottom;
position = "{338, 0}";
},
{
name = ogonek;
position = "{465, 0}";
},
{
name = top;
position = "{333, 724}";
},
{
name = topleft;
position = "{122, 724}";
}
);
layerId = "E61E66CE-5363-4C81-9EFF-07DC28A46654";
paths = (
{
closed = 1;
nodes = (
"571 643 LINE",
"571 724 LINE",
"93 724 LINE",
"93 0 LINE",
"581 0 LINE",
"581 82 LINE",
"134 82 LINE",
"179 37 LINE",
"179 688 LINE",
"134 643 LINE"
);
},
{
closed = 1;
nodes = (
"519 326 LINE",
"519 406 LINE",
"163 406 LINE",
"163 326 LINE"
);
}
);
width = 620;
}
);
leftKerningGroup = KO_H;
leftMetricsKey = H;
rightKerningGroup = KO_E;
unicode = 0045;
},
{
glyphname = F;
lastChange = "2023-01-21 14:06:10 +0000";
layers = (
{
anchors = (
{
name = bottom;
position = "{305, 0}";
},
{
name = top;
position = "{305, 724}";
}
);
layerId = "E9EF56E4-BA0E-4F86-8263-866E5C5AE35D";
paths = (
{
closed = 1;
nodes = (
"209 0 LINE",
"209 329 LINE",
"171 291 LINE",
"502 291 LINE",
"502 421 LINE",
"171 421 LINE",
"209 384 LINE",
"209 622 LINE",
"171 585 LINE",
"534 585 LINE",
"534 724 LINE",
"62 724 LINE",
"62 0 LINE"
);
}
);
width = 566;
},
{
anchors = (
{
name = bottom;
position = "{333, 0}";
},
{
name = top;
position = "{333, 724}";
}
);
layerId = "9744B420-26AC-498D-9016-81F71DDA7C26";
paths = (
{
closed = 1;
nodes = (
"171 0 LINE",
"171 337 LINE",
"159 325 LINE",
"511 325 LINE",
"511 387 LINE",
"159 387 LINE",
"171 375 LINE",
"171 669 LINE",
"159 657 LINE",
"543 657 LINE",
"543 724 LINE",
"101 724 LINE",
"101 0 LINE"
);
}
);
width = 589;
},
{
anchors = (
{
name = bottom;
position = "{328, 0}";
},
{
name = top;
position = "{328, 724}";
}
);
layerId = "E61E66CE-5363-4C81-9EFF-07DC28A46654";
paths = (
{
closed = 1;
nodes = (
"178 0 LINE",
"178 335 LINE",
"161 318 LINE",
"509 318 LINE",
"509 394 LINE",
"161 394 LINE",
"178 377 LINE",
"178 660 LINE",
"161 643 LINE",
"541 643 LINE",
"541 724 LINE",
"93 724 LINE",
"93 0 LINE"
);
}
);
width = 584;
}
);
leftKerningGroup = KO_H;
leftMetricsKey = H;
rightKerningGroup = KO_F;
unicode = 0046;
},
{
color = 9;
glyphname = G;
lastChange = "2023-01-22 17:01:56 +0000";
layers = (
{
anchors = (
{
name = bottom;
position = "{420, 0}";
},
{
name = top;
position = "{420, 724}";
}
);
layerId = "E9EF56E4-BA0E-4F86-8263-866E5C5AE35D";
paths = (
{
closed = 1;
nodes = (
"481 -8 OFFCURVE",
"572 13 OFFCURVE",
"634 77 CURVE",
"634 0 LINE",
"763 0 LINE",
"763 385 LINE",
"437 385 LINE",
"437 270 LINE",
"617 270 LINE",
"617 206 LINE",
"581 154 OFFCURVE",
"508 124 OFFCURVE",
"424 124 CURVE SMOOTH",
"281 124 OFFCURVE",
"189 210 OFFCURVE",
"189 357 CURVE SMOOTH",
"189 498 OFFCURVE",
"274 592 OFFCURVE",
"423 592 CURVE SMOOTH",
"529 592 OFFCURVE",
"599 545 OFFCURVE",
"630 471 CURVE",
"769 532 LINE",
"713 661 OFFCURVE",
"584 732 OFFCURVE",
"424 732 CURVE SMOOTH",
"189 732 OFFCURVE",
"36 580 OFFCURVE",
"36 357 CURVE SMOOTH",
"36 139 OFFCURVE",
"179 -8 OFFCURVE",
"395 -8 CURVE SMOOTH"
);
}
);
width = 816;
},
{
anchors = (
{
name = bottom;
position = "{431, 0}";
},
{
name = top;
position = "{431, 724}";
}
);
layerId = "9744B420-26AC-498D-9016-81F71DDA7C26";
paths = (
{
closed = 1;
nodes = (
"527 -6 OFFCURVE",
"635 31 OFFCURVE",
"699 115 CURVE",
"699 0 LINE",
"762 0 LINE",
"762 360 LINE",
"482 360 LINE",
"482 296 LINE",
"691 296 LINE",
"691 192 LINE",
"651 113 OFFCURVE",
"547 61 OFFCURVE",
"425 61 CURVE SMOOTH",
"243 61 OFFCURVE",
"129 184 OFFCURVE",
"129 362 CURVE SMOOTH",
"129 546 OFFCURVE",
"252 664 OFFCURVE",
"433 664 CURVE SMOOTH",
"561 664 OFFCURVE",
"668 608 OFFCURVE",
"711 487 CURVE",
"778 513 LINE",
"727 652 OFFCURVE",
"600 730 OFFCURVE",
"435 730 CURVE SMOOTH",
"209 730 OFFCURVE",
"57 581 OFFCURVE",
"57 362 CURVE SMOOTH",
"57 144 OFFCURVE",
"204 -6 OFFCURVE",
"422 -6 CURVE SMOOTH"
);
}
);
width = 836;
},
{
anchors = (
{
name = bottom;
position = "{429, 0}";
},
{
name = top;
position = "{429, 724}";
}
);
layerId = "E61E66CE-5363-4C81-9EFF-07DC28A46654";
paths = (
{
closed = 1;
nodes = (
"518 -6 OFFCURVE",
"622 27 OFFCURVE",
"686 108 CURVE",
"686 0 LINE",
"762 0 LINE",
"762 365 LINE",
"473 365 LINE",
"473 291 LINE",
"676 291 LINE",
"676 196 LINE",
"638 122 OFFCURVE",
"539 74 OFFCURVE",
"425 74 CURVE SMOOTH",
"250 74 OFFCURVE",
"141 189 OFFCURVE",
"141 361 CURVE SMOOTH",
"141 537 OFFCURVE",
"256 650 OFFCURVE",
"431 650 CURVE SMOOTH",
"554 650 OFFCURVE",
"654 595 OFFCURVE",
"695 484 CURVE",
"776 517 LINE",
"724 654 OFFCURVE",
"597 730 OFFCURVE",
"433 730 CURVE SMOOTH",
"205 730 OFFCURVE",
"53 581 OFFCURVE",
"53 361 CURVE SMOOTH",
"53 143 OFFCURVE",
"199 -6 OFFCURVE",
"417 -6 CURVE SMOOTH"
);
}
);
width = 832;
}
);
leftKerningGroup = KO_O;
leftMetricsKey = C;
rightKerningGroup = KO_G;
unicode = 0047;
userData = {
KernOnName = G;
};
},
{
glyphname = H;
lastChange = "2023-01-21 14:06:10 +0000";
layers = (
{
anchors = (
{
name = bottom;
position = "{359, 0}";
},
{
name = center;
position = "{359, 362}";
},
{
name = top;
position = "{360, 724}";
},
{
name = topleft;
position = "{70, 724}";
}
);
layerId = "E9EF56E4-BA0E-4F86-8263-866E5C5AE35D";
paths = (
{
closed = 1;
nodes = (
"62 0 LINE",
"209 0 LINE",
"209 724 LINE",
"62 724 LINE"
);
},
{
closed = 1;
nodes = (
"510 0 LINE",
"657 0 LINE",
"657 724 LINE",
"510 724 LINE"
);
},
{
closed = 1;
nodes = (
"82 438 LINE",
"82 298 LINE",
"583 298 LINE",
"583 438 LINE"
);
}
);
width = 719;
},
{
anchors = (
{
name = bottom;
position = "{375, 0}";
},
{
name = center;
position = "{375, 362}";
},
{
name = top;
position = "{380, 724}";
},
{
name = topleft;
position = "{169, 724}";
}
);
layerId = "9744B420-26AC-498D-9016-81F71DDA7C26";
paths = (
{
closed = 1;
nodes = (
"101 0 LINE",
"172 0 LINE",
"172 724 LINE",
"101 724 LINE"
);
},
{
closed = 1;
nodes = (
"589 0 LINE",
"658 0 LINE",
"658 724 LINE",
"589 724 LINE"
);
},
{
closed = 1;
nodes = (
"114 403 LINE",
"114 336 LINE",
"622 336 LINE",
"622 403 LINE"
);
}
);
width = 760;
},
{
anchors = (
{
name = bottom;
position = "{371, 0}";
},
{
name = center;
position = "{371, 362}";
},
{
name = top;
position = "{376, 724}";
},
{
name = topleft;
position = "{149, 724}";
}
);
layerId = "E61E66CE-5363-4C81-9EFF-07DC28A46654";
paths = (
{
closed = 1;
nodes = (
"93 0 LINE",
"179 0 LINE",
"179 724 LINE",
"93 724 LINE"
);
},
{
closed = 1;
nodes = (
"573 0 LINE",
"658 0 LINE",
"658 724 LINE",
"573 724 LINE"
);
},
{
closed = 1;
nodes = (
"107 410 LINE",
"107 329 LINE",
"614 329 LINE",
"614 410 LINE"
);
}
);
width = 751;
}
);
leftKerningGroup = KO_H;
rightKerningGroup = KO_H;
unicode = 0048;
},
{
glyphname = Hbar;
lastChange = "2023-01-19 15:31:29 +0000";
layers = (
{
components = (
{
alignment = -1;
name = H;
transform = "{1, 0, 0, 1, 29, 0}";
}
);
layerId = "E9EF56E4-BA0E-4F86-8263-866E5C5AE35D";
paths = (
{
closed = 1;
nodes = (
"30 541 LINE",
"745 541 LINE",
"745 648 LINE",
"30 648 LINE"
);
}
);
width = 775;
},
{
components = (
{
alignment = -1;
name = H;
transform = "{1, 0, 0, 1, -4, 0}";
}
);
layerId = "9744B420-26AC-498D-9016-81F71DDA7C26";
paths = (
{
closed = 1;
nodes = (
"38 542 LINE",
"715 542 LINE",
"715 599 LINE",
"38 599 LINE"
);
}
);
width = 753;
},
{
components = (
{
alignment = -1;
name = H;
transform = "{1, 0, 0, 1, 3, 0}";
}
);
layerId = "E61E66CE-5363-4C81-9EFF-07DC28A46654";
paths = (
{
closed = 1;
nodes = (
"36 542 LINE",
"721 542 LINE",
"721 609 LINE",
"36 609 LINE"
);
}
);
width = 757;
}
);
unicode = 0126;
},
{
glyphname = I;
lastChange = "2023-01-19 15:31:29 +0000";
layers = (
{
anchors = (
{
name = bottom;
position = "{135, 0}";
},
{
name = ogonek;
position = "{209, 0}";
},
{
name = top;
position = "{135, 724}";
},
{
name = topleft;
position = "{29, 724}";
}
);
layerId = "E9EF56E4-BA0E-4F86-8263-866E5C5AE35D";
paths = (
{
closed = 1;
nodes = (
"62 0 LINE",
"209 0 LINE",
"209 724 LINE",
"62 724 LINE"
);
}
);
width = 271;
},
{
anchors = (
{
name = bottom;
position = "{136, 0}";
},
{
name = ogonek;
position = "{172, 0}";
},
{
name = top;
position = "{136, 724}";
},
{
name = topleft;
position = "{-9, 724}";
}
);
layerId = "9744B420-26AC-498D-9016-81F71DDA7C26";
paths = (
{
closed = 1;
nodes = (
"101 0 LINE",
"172 0 LINE",
"172 724 LINE",
"101 724 LINE"
);
}
);
width = 273;
},
{
anchors = (
{
name = bottom;
position = "{136, 0}";
},
{
name = ogonek;
position = "{179, 0}";
},
{
name = top;
position = "{136, 724}";
},
{
name = topleft;
position = "{-2, 724}";
}
);
layerId = "E61E66CE-5363-4C81-9EFF-07DC28A46654";
paths = (
{
closed = 1;
nodes = (
"93 0 LINE",
"179 0 LINE",
"179 724 LINE",
"93 724 LINE"
);
}
);
width = 273;
}
);
leftKerningGroup = KO_H;
rightKerningGroup = KO_H;
unicode = 0049;
},
{
glyphname = J;
lastChange = "2023-01-19 15:31:29 +0000";
layers = (
{
anchors = (
{
name = bottom;
position = "{200, 0}";
},
{
name = top;
position = "{300, 724}";
}
);
layerId = "E9EF56E4-BA0E-4F86-8263-866E5C5AE35D";
paths = (
{
closed = 1;
nodes = (
"31 0 LINE",
"254 0 LINE SMOOTH",
"326 0 OFFCURVE",
"374 47 OFFCURVE",
"374 118 CURVE SMOOTH",
"374 724 LINE",
"227 724 LINE",
"227 137 LINE",
"31 137 LINE"
);
}
);
width = 433;
},
{
anchors = (
{
name = bottom;
position = "{209, 0}";
},
{
name = top;
position = "{301, 724}";
}
);
layerId = "9744B420-26AC-498D-9016-81F71DDA7C26";
paths = (
{
closed = 1;
nodes = (
"40 0 LINE",
"278 0 LINE SMOOTH",
"314 0 OFFCURVE",
"336 22 OFFCURVE",
"336 57 CURVE SMOOTH",
"336 724 LINE",
"266 724 LINE",
"266 65 LINE",
"40 65 LINE"
);
}
);
width = 435;
},
{
anchors = (
{
name = bottom;
position = "{207, 0}";
},
{
name = top;
position = "{301, 724}";
}
);
layerId = "E61E66CE-5363-4C81-9EFF-07DC28A46654";
paths = (
{
closed = 1;
nodes = (
"38 0 LINE",
"273 0 LINE SMOOTH",
"316 0 OFFCURVE",
"343 27 OFFCURVE",
"343 69 CURVE SMOOTH",
"343 724 LINE",
"258 724 LINE",
"258 79 LINE",
"38 79 LINE"
);
}
);
width = 435;
}
);
leftKerningGroup = KO_J;
rightKerningGroup = KO_J;
unicode = 004A;
},
{
glyphname = K;
lastChange = "2023-01-22 17:01:56 +0000";
layers = (
{
anchors = (
{
name = bottom;
position = "{347, 0}";
},
{
name = top;
position = "{347, 724}";
}
);
layerId = "E9EF56E4-BA0E-4F86-8263-866E5C5AE35D";
paths = (
{
closed = 1;
nodes = (
"702 0 LINE",
"372 393 LINE",
"372 352 LINE",
"700 724 LINE",
"515 724 LINE",
"209 362 LINE",
"513 0 LINE"
);
},
{
closed = 1;
nodes = (
"209 0 LINE",
"209 724 LINE",
"62 724 LINE",
"62 0 LINE"
);
}
);
width = 718;
},
{
anchors = (
{
name = bottom;
position = "{336, 0}";
},
{
name = top;
position = "{336, 724}";
}
);
layerId = "9744B420-26AC-498D-9016-81F71DDA7C26";
paths = (
{
closed = 1;
nodes = (
"626 0 LINE",
"249 378 LINE",
"249 357 LINE",
"626 724 LINE",
"535 724 LINE",
"171 362 LINE",
"531 0 LINE"
);
},
{
closed = 1;
nodes = (
"172 0 LINE",
"172 724 LINE",
"101 724 LINE",
"101 0 LINE"
);
}
);
width = 665;
},
{
anchors = (
{
name = bottom;
position = "{338, 0}";
},
{
name = top;
position = "{338, 724}";
}
);
layerId = "E61E66CE-5363-4C81-9EFF-07DC28A46654";
paths = (
{
closed = 1;
nodes = (
"641 0 LINE",
"274 381 LINE",
"274 356 LINE",
"641 724 LINE",
"531 724 LINE",
"178 362 LINE",
"528 0 LINE"
);
},
{
closed = 1;
nodes = (
"179 0 LINE",
"179 724 LINE",
"93 724 LINE",
"93 0 LINE"
);
}
);
width = 676;
}
);
leftKerningGroup = KO_H;
rightKerningGroup = KO_K;
unicode = 004B;
userData = {
KernOnName = K;
};
},
{
glyphname = L;
lastChange = "2023-01-21 15:04:18 +0000";
layers = (
{
anchors = (
{
name = bottom;
position = "{297, 0}";
},
{
name = center;
position = "{189, 395}";
},
{
name = top;
position = "{136, 724}";
},
{
name = topright;
position = "{296, 724}";
}
);
layerId = "E9EF56E4-BA0E-4F86-8263-866E5C5AE35D";
paths = (
{
closed = 1;
nodes = (
"531 0 LINE",
"531 140 LINE",
"209 140 LINE",
"209 724 LINE",
"62 724 LINE",
"62 0 LINE"
);
}
);
width = 562;
},
{
anchors = (
{
name = bottom;
position = "{317, 0}";
},
{
name = center;
position = "{183, 369}";
},
{
name = top;
position = "{137, 724}";
},
{
name = topright;
position = "{297, 724}";
}
);
layerId = "9744B420-26AC-498D-9016-81F71DDA7C26";
paths = (
{
closed = 1;
nodes = (
"532 0 LINE",
"532 67 LINE",
"172 67 LINE",
"172 724 LINE",
"101 724 LINE",
"101 0 LINE"
);
}
);
width = 572;
},
{
anchors = (
{
name = bottom;
position = "{313, 0}";
},
{
name = center;
position = "{185, 374}";
},
{
name = top;
position = "{136, 724}";
},
{
name = topright;
position = "{303, 724}";
}
);
layerId = "E61E66CE-5363-4C81-9EFF-07DC28A46654";
paths = (
{
closed = 1;
nodes = (
"532 0 LINE",
"532 82 LINE",
"179 82 LINE",
"179 724 LINE",
"93 724 LINE",
"93 0 LINE"
);
}
);
width = 570;
}
);
leftKerningGroup = KO_H;
leftMetricsKey = H;
rightKerningGroup = KO_L;
unicode = 004C;
},
{
glyphname = M;
lastChange = "2023-01-19 15:32:25 +0000";
layers = (
{
anchors = (
{
name = bottom;
position = "{507, 0}";
},
{
name = top;
position = "{507, 724}";
}
);
layerId = "E9EF56E4-BA0E-4F86-8263-866E5C5AE35D";
paths = (
{
closed = 1;
nodes = (
"218 0 LINE",
"435 456 LINE",
"435 0 LINE",
"590 0 LINE",
"816 456 LINE",
"816 0 LINE",
"963 0 LINE",
"963 724 LINE",
"807 724 LINE",
"582 268 LINE",
"582 724 LINE",
"426 724 LINE",
"209 268 LINE",
"209 724 LINE",
"62 724 LINE",
"62 0 LINE"
);
}
);
width = 1025;
},
{
anchors = (
{
name = bottom;
position = "{508, 0}";
},
{
name = top;
position = "{508, 724}";
}
);
layerId = "9744B420-26AC-498D-9016-81F71DDA7C26";
paths = (
{
closed = 1;
nodes = (
"175 0 LINE",
"494 598 LINE",
"494 0 LINE",
"568 0 LINE",
"889 598 LINE",
"889 0 LINE",
"959 0 LINE",
"959 724 LINE",
"886 724 LINE",
"563 126 LINE",
"563 724 LINE",
"489 724 LINE",
"171 126 LINE",
"171 724 LINE",
"101 724 LINE",
"101 0 LINE"
);
}
);
width = 1061;
},
{
anchors = (
{
name = bottom;
position = "{508, 0}";
},
{
name = top;
position = "{508, 724}";
}
);
layerId = "E61E66CE-5363-4C81-9EFF-07DC28A46654";
paths = (
{
closed = 1;
nodes = (
"184 0 LINE",
"482 569 LINE",
"482 0 LINE",
"572 0 LINE",
"874 569 LINE",
"874 0 LINE",
"959 0 LINE",
"959 724 LINE",
"870 724 LINE",
"567 155 LINE",
"567 724 LINE",
"476 724 LINE",
"178 155 LINE",
"178 724 LINE",
"93 724 LINE",
"93 0 LINE"
);
}
);
width = 1052;
}
);
leftKerningGroup = KO_H;
leftMetricsKey = N;
rightKerningGroup = KO_H;
rightMetricsKey = N;
unicode = 004D;
},
{
glyphname = N;
lastChange = "2023-01-22 17:01:56 +0000";
layers = (
{
anchors = (
{
name = bottom;
position = "{368, 0}";
},
{
name = top;
position = "{368, 724}";
}
);
layerId = "E9EF56E4-BA0E-4F86-8263-866E5C5AE35D";
paths = (
{
closed = 1;
nodes = (
"229 0 LINE",
"527 488 LINE",
"527 0 LINE",
"674 0 LINE",
"674 724 LINE",
"507 724 LINE",
"209 237 LINE",
"209 724 LINE",
"62 724 LINE",
"62 0 LINE"
);
}
);
width = 736;
},
{
anchors = (
{
name = bottom;
position = "{374, 0}";
},
{
name = top;
position = "{374, 724}";
}
);
layerId = "9744B420-26AC-498D-9016-81F71DDA7C26";
paths = (
{
closed = 1;
nodes = (
"174 0 LINE",
"575 607 LINE",
"575 0 LINE",
"645 0 LINE",
"645 724 LINE",
"572 724 LINE",
"171 117 LINE",
"171 724 LINE",
"101 724 LINE",
"101 0 LINE"
);
}
);
width = 747;
},
{
anchors = (
{
name = bottom;
position = "{372, 0}";
},
{
name = top;
position = "{372, 724}";
}
);
layerId = "E61E66CE-5363-4C81-9EFF-07DC28A46654";
paths = (
{
closed = 1;
nodes = (
"185 0 LINE",
"566 581 LINE",
"566 0 LINE",
"651 0 LINE",
"651 724 LINE",
"559 724 LINE",
"178 144 LINE",
"178 724 LINE",
"93 724 LINE",
"93 0 LINE"
);
}
);
width = 744;
}
);
leftKerningGroup = KO_H;
leftMetricsKey = H;
rightKerningGroup = KO_H;
rightMetricsKey = H;
unicode = 004E;
userData = {
KernOnName = N;
};
},
{
glyphname = Eng;
lastChange = "2023-01-19 15:32:25 +0000";
layers = (
{
anchors = (
{
name = bottom;
position = "{355, 0}";
},
{
name = top;
position = "{355, 724}";
}
);
layerId = "E9EF56E4-BA0E-4F86-8263-866E5C5AE35D";
paths = (
{
closed = 1;
nodes = (
"561 -200 LINE SMOOTH",
"629 -200 OFFCURVE",
"674 -155 OFFCURVE",
"674 -87 CURVE SMOOTH",
"674 724 LINE",
"499 724 LINE",
"209 213 LINE",
"209 724 LINE",
"62 724 LINE",
"62 0 LINE",
"236 0 LINE",
"527 512 LINE",
"527 -69 LINE",
"364 -69 LINE",
"364 -200 LINE"
);
}
);
width = 736;
},
{
anchors = (
{
name = bottom;
position = "{375, 0}";
},
{
name = top;
position = "{375, 724}";
}
);
layerId = "9744B420-26AC-498D-9016-81F71DDA7C26";
paths = (
{
closed = 1;
nodes = (
"590 -200 LINE SMOOTH",
"623 -200 OFFCURVE",
"645 -179 OFFCURVE",
"645 -146 CURVE SMOOTH",
"645 724 LINE",
"573 724 LINE",
"171 123 LINE",
"171 724 LINE",
"101 724 LINE",
"101 0 LINE",
"173 0 LINE",
"575 601 LINE",
"575 -138 LINE",
"408 -138 LINE",
"408 -200 LINE"
);
}
);
width = 747;
},
{
anchors = (
{
name = bottom;
position = "{371, 0}";
},
{
name = top;
position = "{371, 724}";
}
);
layerId = "E61E66CE-5363-4C81-9EFF-07DC28A46654";
paths = (
{
closed = 1;
nodes = (
"584 -200 LINE SMOOTH",
"625 -200 OFFCURVE",
"651 -174 OFFCURVE",
"651 -134 CURVE SMOOTH",
"651 724 LINE",
"558 724 LINE",
"178 141 LINE",
"178 724 LINE",
"93 724 LINE",
"93 0 LINE",
"186 0 LINE",
"566 583 LINE",
"566 -124 LINE",
"399 -124 LINE",
"399 -200 LINE"
);
}
);
width = 744;
}
);
leftKerningGroup = KO_H;
leftMetricsKey = H;
rightKerningGroup = KO_H;
rightMetricsKey = H;
unicode = 014A;
},
{
glyphname = O;
lastChange = "2023-01-22 17:01:56 +0000";
layers = (
{
anchors = (
{
name = bottom;
position = "{411, 0}";
},
{
name = center;
position = "{411, 362}";
},
{
name = ogonek;
position = "{725, 10}";
},
{
name = top;
position = "{411, 724}";
},
{
name = topleft;
position = "{39, 724}";
},
{
name = topright;
position = "{783, 724}";
}
);
layerId = "E9EF56E4-BA0E-4F86-8263-866E5C5AE35D";
paths = (
{
closed = 1;
nodes = (
"34 141 OFFCURVE",
"190 -8 OFFCURVE",
"411 -8 CURVE SMOOTH",
"632 -8 OFFCURVE",
"787 141 OFFCURVE",
"787 362 CURVE SMOOTH",
"787 583 OFFCURVE",
"632 732 OFFCURVE",
"411 732 CURVE SMOOTH",
"190 732 OFFCURVE",
"34 583 OFFCURVE",
"34 362 CURVE SMOOTH"
);
},
{
closed = 1;
nodes = (
"187 507 OFFCURVE",
"277 592 OFFCURVE",
"411 592 CURVE SMOOTH",
"551 592 OFFCURVE",
"634 500 OFFCURVE",
"634 362 CURVE SMOOTH",
"634 217 OFFCURVE",
"545 132 OFFCURVE",
"411 132 CURVE SMOOTH",
"270 132 OFFCURVE",
"187 225 OFFCURVE",
"187 362 CURVE SMOOTH"
);
}
);
width = 822;
},
{
anchors = (
{
name = bottom;
position = "{427, 0}";
},
{
name = center;
position = "{427, 362}";
},
{
name = ogonek;
position = "{741, 10}";
},
{
name = top;
position = "{427, 724}";
},
{
name = topleft;
position = "{55, 724}";
},
{
name = topright;
position = "{799, 724}";
}
);
layerId = "9744B420-26AC-498D-9016-81F71DDA7C26";
paths = (
{
closed = 1;
nodes = (
"52 143 OFFCURVE",
"206 -6 OFFCURVE",
"427 -6 CURVE SMOOTH",
"648 -6 OFFCURVE",
"802 143 OFFCURVE",
"802 362 CURVE SMOOTH",
"802 581 OFFCURVE",
"648 730 OFFCURVE",
"427 730 CURVE SMOOTH",
"206 730 OFFCURVE",
"52 581 OFFCURVE",
"52 362 CURVE SMOOTH"
);
},
{
closed = 1;
nodes = (
"124 545 OFFCURVE",
"247 664 OFFCURVE",
"427 664 CURVE SMOOTH",
"610 664 OFFCURVE",
"730 542 OFFCURVE",
"730 362 CURVE SMOOTH",
"730 179 OFFCURVE",
"607 60 OFFCURVE",
"427 60 CURVE SMOOTH",
"244 60 OFFCURVE",
"124 182 OFFCURVE",
"124 362 CURVE SMOOTH"
);
}
);
width = 854;
},
{
anchors = (
{
name = bottom;
position = "{424, 0}";
},
{
name = center;
position = "{424, 362}";
},
{
name = ogonek;
position = "{738, 10}";
},
{
name = top;
position = "{424, 724}";
},
{
name = topleft;
position = "{51, 724}";
},
{
name = topright;
position = "{796, 724}";
}
);
layerId = "E61E66CE-5363-4C81-9EFF-07DC28A46654";
paths = (
{
closed = 1;
nodes = (
"49 143 OFFCURVE",
"202 -6 OFFCURVE",
"424 -6 CURVE SMOOTH",
"645 -6 OFFCURVE",
"799 143 OFFCURVE",
"799 362 CURVE SMOOTH",
"799 581 OFFCURVE",
"645 730 OFFCURVE",
"424 730 CURVE SMOOTH",
"202 730 OFFCURVE",
"49 581 OFFCURVE",
"49 362 CURVE SMOOTH"
);
},
{
closed = 1;
nodes = (
"137 538 OFFCURVE",
"253 650 OFFCURVE",
"424 650 CURVE SMOOTH",
"598 650 OFFCURVE",
"711 533 OFFCURVE",
"711 362 CURVE SMOOTH",
"711 186 OFFCURVE",
"595 74 OFFCURVE",
"424 74 CURVE SMOOTH",
"249 74 OFFCURVE",
"137 191 OFFCURVE",
"137 362 CURVE SMOOTH"
);
}
);
width = 847;
}
);
leftKerningGroup = KO_O;
rightKerningGroup = KO_O;
unicode = 004F;
userData = {
KernOnName = O;
};
},
{
glyphname = OE;
lastChange = "2023-01-19 15:31:29 +0000";
layers = (
{
anchors = (
{
name = bottom;
position = "{701, 0}";
},
{
name = center;
position = "{108, 362}";
},
{
name = ogonek;
position = "{847, 0}";
},
{
name = top;
position = "{701, 724}";
},
{
name = topleft;
position = "{460, 724}";
}
);
layerId = "E9EF56E4-BA0E-4F86-8263-866E5C5AE35D";
paths = (
{
closed = 1;
nodes = (
"34 146 OFFCURVE",
"190 0 OFFCURVE",
"412 0 CURVE SMOOTH",
"920 0 LINE",
"920 140 LINE",
"607 140 LINE",
"607 301 LINE",
"858 301 LINE",
"858 431 LINE",
"607 431 LINE",
"607 585 LINE",
"910 585 LINE",
"910 724 LINE",
"412 724 LINE SMOOTH",
"190 724 OFFCURVE",
"34 579 OFFCURVE",
"34 362 CURVE SMOOTH"
);
},
{
closed = 1;
nodes = (
"187 495 OFFCURVE",
"271 585 OFFCURVE",
"412 585 CURVE SMOOTH",
"460 585 LINE",
"460 140 LINE",
"412 140 LINE SMOOTH",
"278 140 OFFCURVE",
"187 222 OFFCURVE",
"187 362 CURVE SMOOTH"
);
}
);
width = 954;
},
{
anchors = (
{
name = bottom;
position = "{773, 0}";
},
{
name = center;
position = "{200, 362}";
},
{
name = ogonek;
position = "{881, 0}";
},
{
name = top;
position = "{773, 724}";
},
{
name = topleft;
position = "{532, 724}";
}
);
layerId = "9744B420-26AC-498D-9016-81F71DDA7C26";
paths = (
{
closed = 1;
nodes = (
"52 147 OFFCURVE",
"207 0 OFFCURVE",
"431 0 CURVE SMOOTH",
"921 0 LINE",
"921 67 LINE",
"571 67 LINE",
"571 335 LINE",
"859 335 LINE",
"859 397 LINE",
"571 397 LINE",
"571 657 LINE",
"911 657 LINE",
"911 724 LINE",
"431 724 LINE SMOOTH",
"207 724 OFFCURVE",
"52 577 OFFCURVE",
"52 362 CURVE SMOOTH"
);
},
{
closed = 1;
nodes = (
"124 538 OFFCURVE",
"245 657 OFFCURVE",
"431 657 CURVE SMOOTH",
"501 657 LINE",
"501 67 LINE",
"431 67 LINE SMOOTH",
"249 67 OFFCURVE",
"124 183 OFFCURVE",
"124 362 CURVE SMOOTH"
);
}
);
width = 961;
},
{
anchors = (
{
name = bottom;
position = "{759, 0}";
},
{
name = center;
position = "{182, 362}";
},
{
name = ogonek;
position = "{874, 0}";
},
{
name = top;
position = "{759, 724}";
},
{
name = topleft;
position = "{518, 724}";
}
);
layerId = "E61E66CE-5363-4C81-9EFF-07DC28A46654";
paths = (
{
closed = 1;
nodes = (
"49 147 OFFCURVE",
"204 0 OFFCURVE",
"427 0 CURVE SMOOTH",
"921 0 LINE",
"921 82 LINE",
"578 82 LINE",
"578 328 LINE",
"859 328 LINE",
"859 404 LINE",
"578 404 LINE",
"578 643 LINE",
"911 643 LINE",
"911 724 LINE",
"427 724 LINE SMOOTH",
"204 724 OFFCURVE",
"49 577 OFFCURVE",
"49 362 CURVE SMOOTH"
);
},
{
closed = 1;
nodes = (
"137 529 OFFCURVE",
"250 643 OFFCURVE",
"427 643 CURVE SMOOTH",
"492 643 LINE",
"492 82 LINE",
"427 82 LINE SMOOTH",
"255 82 OFFCURVE",
"137 191 OFFCURVE",
"137 362 CURVE SMOOTH"
);
}
);
width = 960;
}
);
leftKerningGroup = KO_O;
leftMetricsKey = O;
rightKerningGroup = KO_E;
rightMetricsKey = E;
unicode = 0152;
},
{
glyphname = P;
lastChange = "2023-01-21 14:06:10 +0000";
layers = (
{
anchors = (
{
name = bottom;
position = "{329, 0}";
},
{
name = top;
position = "{329, 724}";
}
);
layerId = "E9EF56E4-BA0E-4F86-8263-866E5C5AE35D";
paths = (
{
closed = 1;
nodes = (
"209 0 LINE",
"209 281 LINE",
"380 281 LINE SMOOTH",
"518 281 OFFCURVE",
"611 369 OFFCURVE",
"611 502 CURVE SMOOTH",
"611 640 OFFCURVE",
"522 724 OFFCURVE",
"380 724 CURVE SMOOTH",
"62 724 LINE",
"62 0 LINE"
);
},
{
closed = 1;
nodes = (
"209 585 LINE",
"373 585 LINE SMOOTH",
"426 585 OFFCURVE",
"458 553 OFFCURVE",
"458 502 CURVE SMOOTH",
"458 453 OFFCURVE",
"427 420 OFFCURVE",
"373 420 CURVE SMOOTH",
"209 420 LINE"
);
}
);
width = 643;
},
{
anchors = (
{
name = bottom;
position = "{349, 0}";
},
{
name = top;
position = "{349, 724}";
}
);
layerId = "9744B420-26AC-498D-9016-81F71DDA7C26";
paths = (
{
closed = 1;
nodes = (
"171 0 LINE",
"171 309 LINE",
"386 309 LINE SMOOTH",
"512 309 OFFCURVE",
"598 390 OFFCURVE",
"598 517 CURVE SMOOTH",
"598 645 OFFCURVE",
"514 724 OFFCURVE",
"386 724 CURVE SMOOTH",
"101 724 LINE",
"101 0 LINE"
);
},
{
closed = 1;
nodes = (
"171 657 LINE",
"382 657 LINE SMOOTH",
"465 657 OFFCURVE",
"524 606 OFFCURVE",
"524 517 CURVE SMOOTH",
"524 432 OFFCURVE",
"470 376 OFFCURVE",
"382 376 CURVE SMOOTH",
"171 376 LINE"
);
}
);
width = 648;
},
{
anchors = (
{
name = bottom;
position = "{345, 0}";
},
{
name = top;
position = "{345, 724}";
}
);
layerId = "E61E66CE-5363-4C81-9EFF-07DC28A46654";
paths = (
{
closed = 1;
nodes = (
"178 0 LINE",
"178 304 LINE",
"384 304 LINE SMOOTH",
"514 304 OFFCURVE",
"600 386 OFFCURVE",
"600 514 CURVE SMOOTH",
"600 644 OFFCURVE",
"516 724 OFFCURVE",
"384 724 CURVE SMOOTH",
"93 724 LINE",
"93 0 LINE"
);
},
{
closed = 1;
nodes = (
"178 643 LINE",
"380 643 LINE SMOOTH",
"457 643 OFFCURVE",
"511 595 OFFCURVE",
"511 514 CURVE SMOOTH",
"511 436 OFFCURVE",
"461 385 OFFCURVE",
"380 385 CURVE SMOOTH",
"178 385 LINE"
);
}
);
width = 647;
}
);
leftKerningGroup = KO_H;
rightKerningGroup = KO_P;
unicode = 0050;
},
{
glyphname = Thorn;
lastChange = "2023-01-19 15:31:29 +0000";
layers = (
{
layerId = "E9EF56E4-BA0E-4F86-8263-866E5C5AE35D";
paths = (
{
closed = 1;
nodes = (
"62 724 LINE",
"62 0 LINE",
"209 0 LINE",
"209 724 LINE"
);
},
{
closed = 1;
nodes = (
"356 444 LINE SMOOTH",
"409 444 OFFCURVE",
"441 413 OFFCURVE",
"441 362 CURVE SMOOTH",
"441 313 OFFCURVE",
"410 280 OFFCURVE",
"356 280 CURVE SMOOTH",
"158 280 LINE",
"158 140 LINE",
"371 140 LINE SMOOTH",
"505 140 OFFCURVE",
"594 225 OFFCURVE",
"594 362 CURVE SMOOTH",
"594 499 OFFCURVE",
"505 584 OFFCURVE",
"371 584 CURVE SMOOTH",
"158 584 LINE",
"158 444 LINE"
);
}
);
width = 626;
},
{
layerId = "9744B420-26AC-498D-9016-81F71DDA7C26";
paths = (
{
closed = 1;
nodes = (
"101 724 LINE",
"101 0 LINE",
"171 0 LINE",
"171 724 LINE"
);
},
{
closed = 1;
nodes = (
"375 503 LINE SMOOTH",
"457 503 OFFCURVE",
"518 451 OFFCURVE",
"518 362 CURVE SMOOTH",
"518 277 OFFCURVE",
"463 222 OFFCURVE",
"375 222 CURVE SMOOTH",
"149 222 LINE",
"149 155 LINE",
"382 155 LINE SMOOTH",
"506 155 OFFCURVE",
"590 234 OFFCURVE",
"590 362 CURVE SMOOTH",
"590 490 OFFCURVE",
"506 569 OFFCURVE",
"382 569 CURVE SMOOTH",
"149 569 LINE",
"149 503 LINE"
);
}
);
width = 640;
},
{
layerId = "E61E66CE-5363-4C81-9EFF-07DC28A46654";
paths = (
{
closed = 1;
nodes = (
"93 724 LINE",
"93 0 LINE",
"178 0 LINE",
"178 724 LINE"
);
},
{
closed = 1;
nodes = (
"371 491 LINE SMOOTH",
"448 491 OFFCURVE",
"502 444 OFFCURVE",
"502 362 CURVE SMOOTH",
"502 284 OFFCURVE",
"452 233 OFFCURVE",
"371 233 CURVE SMOOTH",
"151 233 LINE",
"151 152 LINE",
"380 152 LINE SMOOTH",
"506 152 OFFCURVE",
"590 232 OFFCURVE",
"590 362 CURVE SMOOTH",
"590 492 OFFCURVE",
"506 572 OFFCURVE",
"380 572 CURVE SMOOTH",
"151 572 LINE",
"151 491 LINE"
);
}
);
width = 637;
}
);
leftKerningGroup = KO_H;
rightMetricsKey = P;
unicode = 00DE;
},
{
glyphname = R;
lastChange = "2023-01-22 17:01:56 +0000";
layers = (
{
anchors = (
{
name = bottom;
position = "{334, 0}";
},
{
name = top;
position = "{334, 717}";
}
);
layerId = "E9EF56E4-BA0E-4F86-8263-866E5C5AE35D";
paths = (
{
closed = 1;
nodes = (
"209 0 LINE",
"209 585 LINE",
"390 585 LINE SMOOTH",
"448 585 OFFCURVE",
"478 555 OFFCURVE",
"478 505 CURVE SMOOTH",
"478 453 OFFCURVE",
"445 424 OFFCURVE",
"390 424 CURVE SMOOTH",
"200 424 LINE",
"200 299 LINE",
"304 299 LINE",
"481 0 LINE",
"654 0 LINE",
"465 311 LINE",
"563 330 OFFCURVE",
"632 401 OFFCURVE",
"632 513 CURVE SMOOTH",
"632 639 OFFCURVE",
"549 724 OFFCURVE",
"396 724 CURVE SMOOTH",
"62 724 LINE",
"62 0 LINE"
);
}
);
width = 665;
},
{
anchors = (
{
name = bottom;
position = "{354, 0}";
},
{
name = top;
position = "{354, 692}";
}
);
layerId = "9744B420-26AC-498D-9016-81F71DDA7C26";
paths = (
{
closed = 1;
nodes = (
"171 0 LINE",
"171 657 LINE",
"389 657 LINE SMOOTH",
"503 657 OFFCURVE",
"547 605 OFFCURVE",
"547 526 CURVE SMOOTH",
"547 431 OFFCURVE",
"483 394 OFFCURVE",
"389 394 CURVE SMOOTH",
"154 394 LINE",
"154 324 LINE",
"346 324 LINE",
"536 0 LINE",
"616 0 LINE",
"422 328 LINE",
"535 337 OFFCURVE",
"620 402 OFFCURVE",
"620 528 CURVE SMOOTH",
"620 644 OFFCURVE",
"547 724 OFFCURVE",
"388 724 CURVE SMOOTH",
"101 724 LINE",
"101 0 LINE"
);
}
);
width = 666;
},
{
anchors = (
{
name = bottom;
position = "{350, 0}";
},
{
name = top;
position = "{350, 697}";
}
);
layerId = "E61E66CE-5363-4C81-9EFF-07DC28A46654";
paths = (
{
closed = 1;
nodes = (
"178 0 LINE",
"178 643 LINE",
"389 643 LINE SMOOTH",
"492 643 OFFCURVE",
"533 595 OFFCURVE",
"533 522 CURVE SMOOTH",
"533 435 OFFCURVE",
"476 400 OFFCURVE",
"389 400 CURVE SMOOTH",
"163 400 LINE",
"163 319 LINE",
"337 319 LINE",
"525 0 LINE",
"623 0 LINE",
"431 325 LINE",
"540 335 OFFCURVE",
"622 402 OFFCURVE",
"622 525 CURVE SMOOTH",
"622 643 OFFCURVE",
"547 724 OFFCURVE",
"390 724 CURVE SMOOTH",
"93 724 LINE",
"93 0 LINE"
);
}
);
width = 666;
}
);
leftKerningGroup = KO_H;
leftMetricsKey = H;
rightKerningGroup = KO_R;
unicode = 0052;
userData = {
KernOnName = R;
};
},
{
glyphname = S;
lastChange = "2023-01-22 17:01:56 +0000";
layers = (
{
anchors = (
{
name = bottom;
position = "{308, 0}";
},
{
name = top;
position = "{308, 720}";
}
);
layerId = "E9EF56E4-BA0E-4F86-8263-866E5C5AE35D";
paths = (
{
closed = 1;
nodes = (
"467 -8 OFFCURVE",
"571 80 OFFCURVE",
"571 211 CURVE SMOOTH",
"571 376 OFFCURVE",
"440 411 OFFCURVE",
"324 438 CURVE SMOOTH",
"248 455 OFFCURVE",
"207 478 OFFCURVE",
"207 527 CURVE SMOOTH",
"207 577 OFFCURVE",
"246 609 OFFCURVE",
"315 609 CURVE SMOOTH",
"381 609 OFFCURVE",
"427 572 OFFCURVE",
"437 508 CURVE",
"570 548 LINE",
"547 657 OFFCURVE",
"456 732 OFFCURVE",
"315 732 CURVE SMOOTH",
"164 732 OFFCURVE",
"59 646 OFFCURVE",
"59 516 CURVE SMOOTH",
"59 390 OFFCURVE",
"143 338 OFFCURVE",
"279 303 CURVE SMOOTH",
"345 287 OFFCURVE",
"420 275 OFFCURVE",
"420 204 CURVE SMOOTH",
"420 150 OFFCURVE",
"382 118 OFFCURVE",
"307 118 CURVE SMOOTH",
"230 118 OFFCURVE",
"189 155 OFFCURVE",
"177 216 CURVE",
"39 170 LINE",
"66 62 OFFCURVE",
"158 -8 OFFCURVE",
"302 -8 CURVE SMOOTH"
);
}
);
width = 606;
},
{
anchors = (
{
name = bottom;
position = "{306, 0}";
},
{
name = top;
position = "{306, 714}";
}
);
layerId = "9744B420-26AC-498D-9016-81F71DDA7C26";
paths = (
{
closed = 1;
nodes = (
"460 -8 OFFCURVE",
"550 81 OFFCURVE",
"550 200 CURVE SMOOTH",
"550 347 OFFCURVE",
"428 375 OFFCURVE",
"321 399 CURVE SMOOTH",
"215 422 OFFCURVE",
"142 443 OFFCURVE",
"142 535 CURVE SMOOTH",
"142 619 OFFCURVE",
"207 669 OFFCURVE",
"312 669 CURVE SMOOTH",
"404 669 OFFCURVE",
"460 622 OFFCURVE",
"483 540 CURVE",
"551 565 LINE",
"522 665 OFFCURVE",
"434 732 OFFCURVE",
"312 732 CURVE SMOOTH",
"179 732 OFFCURVE",
"71 653 OFFCURVE",
"71 527 CURVE SMOOTH",
"71 408 OFFCURVE",
"167 364 OFFCURVE",
"287 338 CURVE SMOOTH",
"368 320 OFFCURVE",
"477 307 OFFCURVE",
"477 197 CURVE SMOOTH",
"477 102 OFFCURVE",
"414 56 OFFCURVE",
"300 56 CURVE SMOOTH",
"200 56 OFFCURVE",
"134 106 OFFCURVE",
"116 185 CURVE",
"49 159 LINE",
"76 54 OFFCURVE",
"168 -8 OFFCURVE",
"301 -8 CURVE SMOOTH"
);
}
);
width = 609;
},
{
anchors = (
{
name = bottom;
position = "{306, 0}";
},
{
name = top;
position = "{306, 716}";
}
);
layerId = "E61E66CE-5363-4C81-9EFF-07DC28A46654";
paths = (
{
closed = 1;
nodes = (
"462 -8 OFFCURVE",
"554 81 OFFCURVE",
"554 202 CURVE SMOOTH",
"554 353 OFFCURVE",
"430 382 OFFCURVE",
"321 407 CURVE SMOOTH",
"222 429 OFFCURVE",
"155 450 OFFCURVE",
"155 533 CURVE SMOOTH",
"155 610 OFFCURVE",
"215 657 OFFCURVE",
"312 657 CURVE SMOOTH",
"399 657 OFFCURVE",
"453 612 OFFCURVE",
"474 533 CURVE",
"555 562 LINE",
"527 663 OFFCURVE",
"438 732 OFFCURVE",
"312 732 CURVE SMOOTH",
"176 732 OFFCURVE",
"69 651 OFFCURVE",
"69 525 CURVE SMOOTH",
"69 405 OFFCURVE",
"162 359 OFFCURVE",
"285 331 CURVE SMOOTH",
"363 313 OFFCURVE",
"466 300 OFFCURVE",
"466 199 CURVE SMOOTH",
"466 111 OFFCURVE",
"407 68 OFFCURVE",
"302 68 CURVE SMOOTH",
"206 68 OFFCURVE",
"145 115 OFFCURVE",
"128 191 CURVE",
"47 161 LINE",
"74 56 OFFCURVE",
"166 -8 OFFCURVE",
"301 -8 CURVE SMOOTH"
);
}
);
width = 609;
}
);
leftKerningGroup = KO_S;
rightKerningGroup = KO_S;
unicode = 0053;
userData = {
KernOnName = S;
};
},
{
glyphname = Germandbls;
lastChange = "2023-01-19 15:31:29 +0000";
layers = (
{
layerId = "E9EF56E4-BA0E-4F86-8263-866E5C5AE35D";
paths = (
{
closed = 1;
nodes = (
"209 0 LINE",
"209 585 LINE",
"450 585 LINE",
"268 375 LINE",
"268 304 LINE",
"388 304 LINE SMOOTH",
"439 304 OFFCURVE",
"473 274 OFFCURVE",
"473 222 CURVE SMOOTH",
"473 171 OFFCURVE",
"441 140 OFFCURVE",
"388 140 CURVE SMOOTH",
"268 140 LINE",
"268 0 LINE",
"403 0 LINE SMOOTH",
"537 0 OFFCURVE",
"626 85 OFFCURVE",
"626 213 CURVE SMOOTH",
"626 334 OFFCURVE",
"547 412 OFFCURVE",
"430 411 CURVE",
"432 384 LINE",
"596 570 LINE",
"596 724 LINE",
"62 724 LINE",
"62 0 LINE"
);
}
);
width = 660;
},
{
layerId = "9744B420-26AC-498D-9016-81F71DDA7C26";
paths = (
{
closed = 1;
nodes = (
"171 0 LINE",
"171 657 LINE",
"469 657 LINE",
"241 389 LINE",
"241 348 LINE",
"380 348 LINE SMOOTH",
"467 348 OFFCURVE",
"523 293 OFFCURVE",
"523 207 CURVE SMOOTH",
"523 118 OFFCURVE",
"464 67 OFFCURVE",
"380 67 CURVE SMOOTH",
"241 67 LINE",
"241 0 LINE",
"387 0 LINE SMOOTH",
"512 0 OFFCURVE",
"596 79 OFFCURVE",
"596 204 CURVE SMOOTH",
"596 328 OFFCURVE",
"511 409 OFFCURVE",
"384 409 CURVE",
"348 412 LINE",
"565 659 LINE",
"565 724 LINE",
"101 724 LINE",
"101 0 LINE"
);
}
);
width = 652;
},
{
layerId = "E61E66CE-5363-4C81-9EFF-07DC28A46654";
paths = (
{
closed = 1;
nodes = (
"178 0 LINE",
"178 643 LINE",
"465 643 LINE",
"246 386 LINE",
"246 339 LINE",
"382 339 LINE SMOOTH",
"462 339 OFFCURVE",
"513 289 OFFCURVE",
"513 210 CURVE SMOOTH",
"513 129 OFFCURVE",
"459 82 OFFCURVE",
"382 82 CURVE SMOOTH",
"246 82 LINE",
"246 0 LINE",
"390 0 LINE SMOOTH",
"517 0 OFFCURVE",
"602 81 OFFCURVE",
"602 206 CURVE SMOOTH",
"602 330 OFFCURVE",
"518 409 OFFCURVE",
"393 409 CURVE",
"365 407 LINE",
"571 641 LINE",
"571 724 LINE",
"93 724 LINE",
"93 0 LINE"
);
}
);
width = 654;
}
);
leftKerningGroup = KO_H;
leftMetricsKey = H;
rightKerningGroup = KO_S;
unicode = 1E9E;
},
{
glyphname = T;
lastChange = "2023-01-21 14:06:10 +0000";
layers = (
{
anchors = (
{
name = bottom;
position = "{324, 0}";
},
{
name = center;
position = "{324, 362}";
},
{
name = top;
position = "{324, 724}";
}
);
layerId = "E9EF56E4-BA0E-4F86-8263-866E5C5AE35D";
paths = (
{
closed = 1;
nodes = (
"251 0 LINE",
"398 0 LINE",
"398 655 LINE",
"251 655 LINE"
);
},
{
closed = 1;
nodes = (
"27 724 LINE",
"27 585 LINE",
"621 585 LINE",
"621 724 LINE"
);
}
);
width = 648;
},
{
anchors = (
{
name = bottom;
position = "{307, 0}";
},
{
name = center;
position = "{307, 362}";
},
{
name = top;
position = "{307, 724}";
}
);
layerId = "9744B420-26AC-498D-9016-81F71DDA7C26";
paths = (
{
closed = 1;
nodes = (
"272 0 LINE",
"342 0 LINE",
"342 688 LINE",
"272 688 LINE"
);
},
{
closed = 1;
nodes = (
"24 724 LINE",
"24 657 LINE",
"591 657 LINE",
"591 724 LINE"
);
}
);
width = 614;
},
{
anchors = (
{
name = bottom;
position = "{311, 0}";
},
{
name = center;
position = "{311, 362}";
},
{
name = top;
position = "{311, 724}";
}
);
layerId = "E61E66CE-5363-4C81-9EFF-07DC28A46654";
paths = (
{
closed = 1;
nodes = (
"268 0 LINE",
"353 0 LINE",
"353 681 LINE",
"268 681 LINE"
);
},
{
closed = 1;
nodes = (
"24 724 LINE",
"24 643 LINE",
"597 643 LINE",
"597 724 LINE"
);
}
);
width = 621;
}
);
leftKerningGroup = KO_T;
rightKerningGroup = KO_T;
unicode = 0054;
},
{
glyphname = Tbar;
lastChange = "2023-01-19 15:31:29 +0000";
layers = (
{
components = (
{
alignment = -1;
name = T;
transform = "{1, 0, 0, 1, -3, 0}";
}
);
layerId = "E9EF56E4-BA0E-4F86-8263-866E5C5AE35D";
paths = (
{
closed = 1;
nodes = (
"128 317 LINE",
"516 317 LINE",
"516 424 LINE",
"128 424 LINE"
);
}
);
width = 649;
},
{
components = (
{
alignment = -1;
name = T;
transform = "{1, 0, 0, 1, -11, 0}";
}
);
layerId = "9744B420-26AC-498D-9016-81F71DDA7C26";
paths = (
{
closed = 1;
nodes = (
"121 369 LINE",
"472 369 LINE",
"472 425 LINE",
"121 425 LINE"
);
}
);
width = 616;
},
{
components = (
{
alignment = -1;
name = T;
transform = "{1, 0, 0, 1, -9, 0}";
}
);
layerId = "E61E66CE-5363-4C81-9EFF-07DC28A46654";
paths = (
{
closed = 1;
nodes = (
"123 359 LINE",
"481 359 LINE",
"481 425 LINE",
"123 425 LINE"
);
}
);
width = 623;
}
);
leftKerningGroup = KO_W;
rightKerningGroup = KO_V;
unicode = 0166;
},
{
glyphname = U;
lastChange = "2023-01-21 15:07:25 +0000";
layers = (
{
anchors = (
{
name = bottom;
position = "{339, 0}";
},
{
name = ogonek;
position = "{391, 0}";
},
{
name = top;
position = "{339, 724}";
},
{
name = topright;
position = "{639, 724}";
}
);
layerId = "E9EF56E4-BA0E-4F86-8263-866E5C5AE35D";
paths = (
{
closed = 1;
nodes = (
"510 -9 OFFCURVE",
"624 96 OFFCURVE",
"624 254 CURVE SMOOTH",
"624 724 LINE",
"476 724 LINE",
"476 258 LINE SMOOTH",
"476 181 OFFCURVE",
"426 129 OFFCURVE",
"340 129 CURVE SMOOTH",
"256 129 OFFCURVE",
"200 176 OFFCURVE",
"200 258 CURVE SMOOTH",
"200 724 LINE",
"54 724 LINE",
"54 254 LINE SMOOTH",
"54 96 OFFCURVE",
"167 -9 OFFCURVE",
"340 -9 CURVE SMOOTH"
);
}
);
width = 677;
},
{
anchors = (
{
name = bottom;
position = "{357, 0}";
},
{
name = ogonek;
position = "{390, 0}";
},
{
name = top;
position = "{357, 724}";
},
{
name = topright;
position = "{657, 724}";
}
);
layerId = "9744B420-26AC-498D-9016-81F71DDA7C26";
paths = (
{
closed = 1;
nodes = (
"519 -11 OFFCURVE",
"625 88 OFFCURVE",
"625 239 CURVE SMOOTH",
"625 724 LINE",
"555 724 LINE",
"555 241 LINE SMOOTH",
"555 128 OFFCURVE",
"480 55 OFFCURVE",
"358 55 CURVE SMOOTH",
"237 55 OFFCURVE",
"158 127 OFFCURVE",
"158 241 CURVE SMOOTH",
"158 724 LINE",
"89 724 LINE",
"89 239 LINE SMOOTH",
"89 87 OFFCURVE",
"195 -11 OFFCURVE",
"358 -11 CURVE SMOOTH"
);
}
);
width = 714;
},
{
anchors = (
{
name = bottom;
position = "{354, 0}";
},
{
name = ogonek;
position = "{392, 0}";
},
{
name = top;
position = "{354, 724}";
},
{
name = topright;
position = "{654, 724}";
}
);
layerId = "E61E66CE-5363-4C81-9EFF-07DC28A46654";
paths = (
{
closed = 1;
nodes = (
"517 -11 OFFCURVE",
"625 90 OFFCURVE",
"625 242 CURVE SMOOTH",
"625 724 LINE",
"539 724 LINE",
"539 245 LINE SMOOTH",
"539 139 OFFCURVE",
"469 70 OFFCURVE",
"355 70 CURVE SMOOTH",
"241 70 OFFCURVE",
"167 137 OFFCURVE",
"167 245 CURVE SMOOTH",
"167 724 LINE",
"82 724 LINE",
"82 242 LINE SMOOTH",
"82 89 OFFCURVE",
"190 -11 OFFCURVE",
"355 -11 CURVE SMOOTH"
);
}
);
width = 707;
}
);
leftKerningGroup = KO_U;
rightKerningGroup = KO_U;
unicode = 0055;
},
{
glyphname = V;
lastChange = "2023-01-22 17:01:56 +0000";
layers = (
{
anchors = (
{
name = bottom;
position = "{369, -9}";
},
{
name = top;
position = "{369, 724}";
}
);
layerId = "E9EF56E4-BA0E-4F86-8263-866E5C5AE35D";
paths = (
{
closed = 1;
nodes = (
"445 0 LINE",
"716 724 LINE",
"559 724 LINE",
"363 163 LINE",
"376 163 LINE",
"180 724 LINE",
"23 724 LINE",
"294 0 LINE"
);
}
);
width = 739;
},
{
anchors = (
{
name = bottom;
position = "{357, -37}";
},
{
name = top;
position = "{357, 724}";
}
);
layerId = "9744B420-26AC-498D-9016-81F71DDA7C26";
paths = (
{
closed = 1;
nodes = (
"391 0 LINE",
"688 724 LINE",
"613 724 LINE",
"348 71 LINE",
"365 71 LINE",
"100 724 LINE",
"25 724 LINE",
"322 0 LINE"
);
}
);
width = 713;
},
{
anchors = (
{
name = bottom;
position = "{359, -32}";
},
{
name = top;
position = "{359, 724}";
}
);
layerId = "E61E66CE-5363-4C81-9EFF-07DC28A46654";
paths = (
{
closed = 1;
nodes = (
"402 0 LINE",
"693 724 LINE",
"602 724 LINE",
"351 89 LINE",
"367 89 LINE",
"116 724 LINE",
"25 724 LINE",
"317 0 LINE"
);
}
);
width = 718;
}
);
leftKerningGroup = KO_V;
rightKerningGroup = KO_V;
unicode = 0056;
userData = {
KernOnName = V;
};
},
{
glyphname = W;
lastChange = "2023-01-22 17:01:56 +0000";
layers = (
{
anchors = (
{
name = bottom;
position = "{510, 0}";
},
{
name = top;
position = "{510, 724}";
}
);
layerId = "E9EF56E4-BA0E-4F86-8263-866E5C5AE35D";
paths = (
{
closed = 1;
nodes = (
"397 0 LINE",
"521 504 LINE",
"500 504 LINE",
"623 0 LINE",
"806 0 LINE",
"997 724 LINE",
"842 724 LINE",
"710 157 LINE",
"723 157 LINE",
"586 724 LINE",
"433 724 LINE",
"297 157 LINE",
"311 157 LINE",
"177 724 LINE",
"23 724 LINE",
"214 0 LINE"
);
}
);
width = 1019;
},
{
anchors = (
{
name = bottom;
position = "{480, 0}";
},
{
name = top;
position = "{480, 724}";
}
);
layerId = "9744B420-26AC-498D-9016-81F71DDA7C26";
paths = (
{
closed = 1;
nodes = (
"318 0 LINE",
"492 636 LINE",
"470 636 LINE",
"642 0 LINE",
"713 0 LINE",
"939 724 LINE",
"866 724 LINE",
"664 65 LINE",
"692 65 LINE",
"513 724 LINE",
"448 724 LINE",
"268 65 LINE",
"295 65 LINE",
"94 724 LINE",
"21 724 LINE",
"247 0 LINE"
);
}
);
width = 959;
},
{
anchors = (
{
name = bottom;
position = "{486, 0}";
},
{
name = top;
position = "{486, 724}";
}
);
layerId = "E61E66CE-5363-4C81-9EFF-07DC28A46654";
paths = (
{
closed = 1;
nodes = (
"334 0 LINE",
"498 609 LINE",
"476 609 LINE",
"638 0 LINE",
"731 0 LINE",
"950 724 LINE",
"861 724 LINE",
"673 83 LINE",
"698 83 LINE",
"528 724 LINE",
"445 724 LINE",
"274 83 LINE",
"299 83 LINE",
"111 724 LINE",
"21 724 LINE",
"240 0 LINE"
);
}
);
width = 971;
}
);
leftKerningGroup = KO_W;
rightKerningGroup = KO_W;
unicode = 0057;
userData = {
KernOnName = W;
};
},
{
glyphname = X;
lastChange = "2023-01-19 15:31:29 +0000";
layers = (
{
anchors = (
{
name = bottom;
position = "{353, 0}";
},
{
name = top;
position = "{353, 724}";
}
);
layerId = "E9EF56E4-BA0E-4F86-8263-866E5C5AE35D";
paths = (
{
closed = 1;
nodes = (
"174 0 LINE",
"353 280 LINE",
"531 0 LINE",
"695 0 LINE",
"438 397 LINE",
"658 724 LINE",
"494 724 LINE",
"352 503 LINE",
"211 724 LINE",
"47 724 LINE",
"266 397 LINE",
"10 0 LINE"
);
}
);
width = 705;
},
{
anchors = (
{
name = bottom;
position = "{334, 0}";
},
{
name = top;
position = "{334, 724}";
}
);
layerId = "9744B420-26AC-498D-9016-81F71DDA7C26";
paths = (
{
closed = 1;
nodes = (
"102 0 LINE",
"334 350 LINE",
"566 0 LINE",
"646 0 LINE",
"375 405 LINE",
"592 724 LINE",
"510 724 LINE",
"333 455 LINE",
"156 724 LINE",
"76 724 LINE",
"293 405 LINE",
"21 0 LINE"
);
}
);
width = 667;
},
{
anchors = (
{
name = bottom;
position = "{338, 0}";
},
{
name = top;
position = "{338, 724}";
}
);
layerId = "E61E66CE-5363-4C81-9EFF-07DC28A46654";
paths = (
{
closed = 1;
nodes = (
"116 0 LINE",
"338 336 LINE",
"559 0 LINE",
"656 0 LINE",
"388 403 LINE",
"605 724 LINE",
"507 724 LINE",
"337 464 LINE",
"167 724 LINE",
"70 724 LINE",
"288 403 LINE",
"19 0 LINE"
);
}
);
width = 674;
}
);
leftKerningGroup = KO_X;
rightKerningGroup = KO_X;
unicode = 0058;
},
{
glyphname = Y;
lastChange = "2023-01-22 17:01:56 +0000";
layers = (
{
anchors = (
{
name = bottom;
position = "{341, 0}";
},
{
name = top;
position = "{342, 724}";
},
{
name = topleft;
position = "{9, 655}";
}
);
background = {
paths = (
{
closed = 1;
nodes = (
"415 0 LINE",
"415 284 LINE",
"677 724 LINE",
"509 724 LINE",
"316 375 LINE",
"368 375 LINE",
"175 724 LINE",
"5 724 LINE",
"268 283 LINE",
"268 0 LINE"
);
}
);
};
layerId = "E9EF56E4-BA0E-4F86-8263-866E5C5AE35D";
paths = (
{
closed = 1;
nodes = (
"415 0 LINE",
"415 326 LINE",
"677 724 LINE",
"504 724 LINE",
"316 418 LINE",
"368 418 LINE",
"180 724 LINE",
"5 724 LINE",
"268 325 LINE",
"268 0 LINE"
);
}
);
width = 683;
},
{
anchors = (
{
name = bottom;
position = "{319, 0}";
},
{
name = top;
position = "{319, 724}";
},
{
name = topleft;
position = "{-14, 654}";
}
);
background = {
paths = (
{
closed = 1;
nodes = (
"353 0 LINE",
"353 283 LINE",
"621 724 LINE",
"537 724 LINE",
"305 326 LINE",
"332 326 LINE",
"100 724 LINE",
"16 724 LINE",
"284 283 LINE",
"284 0 LINE"
);
}
);
};
layerId = "9744B420-26AC-498D-9016-81F71DDA7C26";
paths = (
{
closed = 1;
nodes = (
"353 0 LINE",
"353 326 LINE",
"621 724 LINE",
"537 724 LINE",
"305 367 LINE",
"332 367 LINE",
"100 724 LINE",
"16 724 LINE",
"284 326 LINE",
"284 0 LINE"
);
}
);
width = 637;
},
{
anchors = (
{
name = bottom;
position = "{323, 0}";
},
{
name = top;
position = "{324, 724}";
},
{
name = topleft;
position = "{-9, 654}";
}
);
background = {
paths = (
{
closed = 1;
nodes = (
"365 0 LINE",
"365 283 LINE",
"632 724 LINE",
"532 724 LINE",
"307 336 LINE",
"339 336 LINE",
"115 724 LINE",
"14 724 LINE",
"281 283 LINE",
"281 0 LINE"
);
}
);
};
layerId = "E61E66CE-5363-4C81-9EFF-07DC28A46654";
paths = (
{
closed = 1;
nodes = (
"365 0 LINE",
"365 326 LINE",
"632 724 LINE",
"532 724 LINE",
"307 377 LINE",
"339 377 LINE",
"115 724 LINE",
"14 724 LINE",
"281 326 LINE",
"281 0 LINE"
);
}
);
width = 646;
}
);
leftKerningGroup = KO_Y;
rightKerningGroup = KO_Y;
unicode = 0059;
userData = {
KernOnName = Y;
};
},
{
glyphname = Z;
lastChange = "2023-01-21 14:06:10 +0000";
layers = (
{
anchors = (
{
name = bottom;
position = "{320, 0}";
},
{
name = center;
position = "{320, 362}";
},
{
name = top;
position = "{320, 724}";
}
);
layerId = "E9EF56E4-BA0E-4F86-8263-866E5C5AE35D";
paths = (
{
closed = 1;
nodes = (
"604 0 LINE",
"604 140 LINE",
"236 140 LINE",
"595 600 LINE",
"595 724 LINE",
"48 724 LINE",
"48 585 LINE",
"397 585 LINE",
"36 122 LINE",
"36 0 LINE"
);
}
);
width = 641;
},
{
anchors = (
{
name = bottom;
position = "{320, 0}";
},
{
name = center;
position = "{320, 362}";
},
{
name = top;
position = "{320, 724}";
}
);
layerId = "9744B420-26AC-498D-9016-81F71DDA7C26";
paths = (
{
closed = 1;
nodes = (
"589 0 LINE",
"589 67 LINE",
"146 67 LINE",
"586 659 LINE",
"586 724 LINE",
"67 724 LINE",
"67 657 LINE",
"493 657 LINE",
"51 59 LINE",
"51 0 LINE"
);
}
);
width = 643;
},
{
anchors = (
{
name = bottom;
position = "{320, 0}";
},
{
name = center;
position = "{320, 362}";
},
{
name = top;
position = "{320, 724}";
}
);
layerId = "E61E66CE-5363-4C81-9EFF-07DC28A46654";
paths = (
{
closed = 1;
nodes = (
"592 0 LINE",
"592 82 LINE",
"164 82 LINE",
"588 647 LINE",
"588 724 LINE",
"63 724 LINE",
"63 643 LINE",
"474 643 LINE",
"48 72 LINE",
"48 0 LINE"
);
}
);
width = 643;
}
);
leftKerningGroup = KO_Z;
rightKerningGroup = KO_Z;
unicode = 005A;
},
{
color = 3;
glyphname = G.ss01;
lastChange = "2023-01-21 14:22:01 +0000";
layers = (
{
anchors = (
{
name = bottom;
position = "{420, 0}";
},
{
name = top;
position = "{420, 724}";
}
);
layerId = "E9EF56E4-BA0E-4F86-8263-866E5C5AE35D";
paths = (
{
closed = 1;
nodes = (
"481 -8 OFFCURVE",
"572 13 OFFCURVE",
"634 77 CURVE",
"634 0 LINE",
"763 0 LINE",
"763 269 LINE SMOOTH",
"763 340 OFFCURVE",
"716 385 OFFCURVE",
"647 385 CURVE SMOOTH",
"437 385 LINE",
"437 270 LINE",
"591 270 LINE SMOOTH",
"608 270 OFFCURVE",
"617 261 OFFCURVE",
"617 244 CURVE SMOOTH",
"617 206 LINE",
"581 154 OFFCURVE",
"508 124 OFFCURVE",
"424 124 CURVE SMOOTH",
"281 124 OFFCURVE",
"189 210 OFFCURVE",
"189 357 CURVE SMOOTH",
"189 498 OFFCURVE",
"274 592 OFFCURVE",
"423 592 CURVE SMOOTH",
"529 592 OFFCURVE",
"599 545 OFFCURVE",
"630 471 CURVE",
"769 532 LINE",
"713 661 OFFCURVE",
"584 732 OFFCURVE",
"424 732 CURVE SMOOTH",
"189 732 OFFCURVE",
"36 580 OFFCURVE",
"36 357 CURVE SMOOTH",
"36 139 OFFCURVE",
"179 -8 OFFCURVE",
"395 -8 CURVE SMOOTH"
);
}
);
width = 816;
},
{
anchors = (
{
name = bottom;
position = "{431, 0}";
},
{
name = top;
position = "{431, 724}";
}
);
layerId = "9744B420-26AC-498D-9016-81F71DDA7C26";
paths = (
{
closed = 1;
nodes = (
"527 -6 OFFCURVE",
"635 31 OFFCURVE",
"699 115 CURVE",
"699 0 LINE",
"762 0 LINE",
"762 259 LINE SMOOTH",
"762 324 OFFCURVE",
"721 360 OFFCURVE",
"661 360 CURVE SMOOTH",
"482 360 LINE",
"482 296 LINE",
"651 296 LINE SMOOTH",
"679 296 OFFCURVE",
"696 279 OFFCURVE",
"696 251 CURVE SMOOTH",
"696 204 LINE",
"661 118 OFFCURVE",
"553 61 OFFCURVE",
"425 61 CURVE SMOOTH",
"243 61 OFFCURVE",
"129 184 OFFCURVE",
"129 362 CURVE SMOOTH",
"129 546 OFFCURVE",
"252 664 OFFCURVE",
"433 664 CURVE SMOOTH",
"561 664 OFFCURVE",
"668 608 OFFCURVE",
"711 487 CURVE",
"778 513 LINE",
"727 652 OFFCURVE",
"600 730 OFFCURVE",
"435 730 CURVE SMOOTH",
"209 730 OFFCURVE",
"57 581 OFFCURVE",
"57 362 CURVE SMOOTH",
"57 144 OFFCURVE",
"204 -6 OFFCURVE",
"422 -6 CURVE SMOOTH"
);
}
);
width = 836;
},
{
anchors = (
{
name = bottom;
position = "{429, 0}";
},
{
name = top;
position = "{429, 724}";
}
);
layerId = "E61E66CE-5363-4C81-9EFF-07DC28A46654";
paths = (
{
closed = 1;
nodes = (
"518 -6 OFFCURVE",
"622 27 OFFCURVE",
"686 108 CURVE",
"686 0 LINE",
"762 0 LINE",
"762 261 LINE SMOOTH",
"762 328 OFFCURVE",
"720 365 OFFCURVE",
"658 365 CURVE SMOOTH",
"473 365 LINE",
"473 291 LINE",
"639 291 LINE SMOOTH",
"665 291 OFFCURVE",
"680 276 OFFCURVE",
"680 249 CURVE SMOOTH",
"680 204 LINE",
"645 125 OFFCURVE",
"544 74 OFFCURVE",
"425 74 CURVE SMOOTH",
"250 74 OFFCURVE",
"141 189 OFFCURVE",
"141 361 CURVE SMOOTH",
"141 537 OFFCURVE",
"256 650 OFFCURVE",
"431 650 CURVE SMOOTH",
"554 650 OFFCURVE",
"654 595 OFFCURVE",
"695 484 CURVE",
"776 517 LINE",
"724 654 OFFCURVE",
"597 730 OFFCURVE",
"433 730 CURVE SMOOTH",
"205 730 OFFCURVE",
"53 581 OFFCURVE",
"53 361 CURVE SMOOTH",
"53 143 OFFCURVE",
"199 -6 OFFCURVE",
"417 -6 CURVE SMOOTH"
);
}
);
width = 832;
}
);
leftKerningGroup = KO_O;
leftMetricsKey = C;
rightKerningGroup = KO_G;
},
{
color = 3;
glyphname = J.ss01;
lastChange = "2023-01-22 10:54:42 +0000";
layers = (
{
anchors = (
{
name = bottom;
position = "{229, 0}";
},
{
name = top;
position = "{419, 724}";
}
);
layerId = "E9EF56E4-BA0E-4F86-8263-866E5C5AE35D";
paths = (
{
closed = 1;
nodes = (
"403 -8 OFFCURVE",
"493 75 OFFCURVE",
"493 200 CURVE SMOOTH",
"493 724 LINE",
"345 724 LINE",
"345 205 LINE SMOOTH",
"345 160 OFFCURVE",
"318 130 OFFCURVE",
"269 130 CURVE SMOOTH",
"221 130 OFFCURVE",
"189 157 OFFCURVE",
"189 205 CURVE SMOOTH",
"189 301 LINE",
"43 301 LINE",
"43 200 LINE SMOOTH",
"43 75 OFFCURVE",
"133 -8 OFFCURVE",
"269 -8 CURVE SMOOTH"
);
}
);
width = 546;
},
{
anchors = (
{
name = bottom;
position = "{259, 0}";
},
{
name = top;
position = "{430, 724}";
}
);
layerId = "9744B420-26AC-498D-9016-81F71DDA7C26";
paths = (
{
closed = 1;
nodes = (
"386 -8 OFFCURVE",
"465 68 OFFCURVE",
"465 182 CURVE SMOOTH",
"465 724 LINE",
"395 724 LINE",
"395 182 LINE SMOOTH",
"395 108 OFFCURVE",
"349 58 OFFCURVE",
"268 58 CURVE SMOOTH",
"190 58 OFFCURVE",
"138 103 OFFCURVE",
"138 182 CURVE SMOOTH",
"138 285 LINE",
"69 285 LINE",
"69 182 LINE SMOOTH",
"69 68 OFFCURVE",
"149 -8 OFFCURVE",
"268 -8 CURVE SMOOTH"
);
}
);
width = 554;
},
{
anchors = (
{
name = bottom;
position = "{223, 0}";
},
{
name = top;
position = "{322, 724}";
}
);
layerId = "E61E66CE-5363-4C81-9EFF-07DC28A46654";
paths = (
{
closed = 1;
nodes = (
"391 -8 OFFCURVE",
"473 69 OFFCURVE",
"473 185 CURVE SMOOTH",
"473 724 LINE",
"387 724 LINE",
"387 186 LINE SMOOTH",
"387 118 OFFCURVE",
"344 72 OFFCURVE",
"268 72 CURVE SMOOTH",
"197 72 OFFCURVE",
"149 113 OFFCURVE",
"149 186 CURVE SMOOTH",
"149 280 LINE",
"65 280 LINE",
"65 185 LINE SMOOTH",
"65 69 OFFCURVE",
"147 -8 OFFCURVE",
"269 -8 CURVE SMOOTH"
);
}
);
width = 555;
}
);
leftKerningGroup = KO_J.ss01;
rightKerningGroup = KO_U;
rightMetricsKey = U;
},
{
color = 3;
glyphname = M.ss01;
lastChange = "2023-01-21 09:40:36 +0000";
layers = (
{
anchors = (
{
name = bottom;
position = "{543, 0}";
},
{
name = top;
position = "{543, 721}";
}
);
layerId = "E9EF56E4-BA0E-4F86-8263-866E5C5AE35D";
paths = (
{
closed = 1;
nodes = (
"208 0 LINE",
"208 522 LINE SMOOTH",
"208 567 OFFCURVE",
"233 597 OFFCURVE",
"277 597 CURVE SMOOTH",
"321 597 OFFCURVE",
"346 567 OFFCURVE",
"346 522 CURVE SMOOTH",
"346 0 LINE",
"739 0 LINE",
"739 522 LINE SMOOTH",
"739 567 OFFCURVE",
"764 597 OFFCURVE",
"807 597 CURVE SMOOTH",
"851 597 OFFCURVE",
"876 567 OFFCURVE",
"876 522 CURVE SMOOTH",
"876 0 LINE",
"1023 0 LINE",
"1023 524 LINE SMOOTH",
"1023 655 OFFCURVE",
"937 731 OFFCURVE",
"807 731 CURVE SMOOTH",
"678 731 OFFCURVE",
"592 655 OFFCURVE",
"592 524 CURVE SMOOTH",
"592 135 LINE",
"492 135 LINE",
"492 524 LINE SMOOTH",
"492 655 OFFCURVE",
"407 731 OFFCURVE",
"277 731 CURVE SMOOTH",
"147 731 OFFCURVE",
"62 655 OFFCURVE",
"62 524 CURVE SMOOTH",
"62 0 LINE"
);
}
);
width = 1085;
},
{
anchors = (
{
name = bottom;
position = "{544, 0}";
},
{
name = top;
position = "{544, 724}";
}
);
layerId = "9744B420-26AC-498D-9016-81F71DDA7C26";
paths = (
{
closed = 1;
nodes = (
"172 0 LINE",
"172 547 LINE SMOOTH",
"172 620 OFFCURVE",
"217 666 OFFCURVE",
"284 666 CURVE SMOOTH",
"350 666 OFFCURVE",
"396 620 OFFCURVE",
"396 547 CURVE SMOOTH",
"396 0 LINE",
"693 0 LINE",
"693 547 LINE SMOOTH",
"693 620 OFFCURVE",
"738 666 OFFCURVE",
"805 666 CURVE SMOOTH",
"871 666 OFFCURVE",
"917 620 OFFCURVE",
"917 547 CURVE SMOOTH",
"917 0 LINE",
"987 0 LINE",
"987 549 LINE SMOOTH",
"987 661 OFFCURVE",
"913 732 OFFCURVE",
"805 732 CURVE SMOOTH",
"696 732 OFFCURVE",
"622 661 OFFCURVE",
"622 549 CURVE SMOOTH",
"622 68 LINE",
"466 68 LINE",
"466 549 LINE SMOOTH",
"466 661 OFFCURVE",
"392 732 OFFCURVE",
"284 732 CURVE SMOOTH",
"175 732 OFFCURVE",
"101 661 OFFCURVE",
"101 549 CURVE SMOOTH",
"101 0 LINE"
);
}
);
width = 1089;
},
{
anchors = (
{
name = bottom;
position = "{544, 0}";
},
{
name = top;
position = "{544, 724}";
}
);
layerId = "E61E66CE-5363-4C81-9EFF-07DC28A46654";
paths = (
{
closed = 1;
nodes = (
"179 0 LINE",
"179 542 LINE SMOOTH",
"179 609 OFFCURVE",
"221 652 OFFCURVE",
"282 652 CURVE SMOOTH",
"344 652 OFFCURVE",
"386 609 OFFCURVE",
"386 542 CURVE SMOOTH",
"386 0 LINE",
"702 0 LINE",
"702 542 LINE SMOOTH",
"702 609 OFFCURVE",
"743 652 OFFCURVE",
"805 652 CURVE SMOOTH",
"867 652 OFFCURVE",
"908 609 OFFCURVE",
"908 542 CURVE SMOOTH",
"908 0 LINE",
"994 0 LINE",
"994 544 LINE SMOOTH",
"994 659 OFFCURVE",
"918 732 OFFCURVE",
"805 732 CURVE SMOOTH",
"693 732 OFFCURVE",
"616 659 OFFCURVE",
"616 544 CURVE SMOOTH",
"616 81 LINE",
"471 81 LINE",
"471 544 LINE SMOOTH",
"471 659 OFFCURVE",
"395 732 OFFCURVE",
"282 732 CURVE SMOOTH",
"170 732 OFFCURVE",
"93 659 OFFCURVE",
"93 544 CURVE SMOOTH",
"93 0 LINE"
);
}
);
width = 1087;
}
);
leftKerningGroup = KO_N.ss03;
leftMetricsKey = N;
rightKerningGroup = KO_H;
rightMetricsKey = N;
},
{
color = 3;
glyphname = N.ss01;
lastChange = "2023-01-21 09:40:37 +0000";
layers = (
{
anchors = (
{
name = bottom;
position = "{417, 0}";
},
{
name = top;
position = "{417, 724}";
}
);
layerId = "E9EF56E4-BA0E-4F86-8263-866E5C5AE35D";
paths = (
{
closed = 1;
nodes = (
"686 -7 OFFCURVE",
"771 70 OFFCURVE",
"771 200 CURVE SMOOTH",
"771 724 LINE",
"625 724 LINE",
"625 202 LINE SMOOTH",
"625 157 OFFCURVE",
"600 127 OFFCURVE",
"556 127 CURVE SMOOTH",
"517 127 OFFCURVE",
"490 153 OFFCURVE",
"490 202 CURVE SMOOTH",
"490 524 LINE SMOOTH",
"490 649 OFFCURVE",
"411 731 OFFCURVE",
"277 731 CURVE SMOOTH",
"147 731 OFFCURVE",
"62 655 OFFCURVE",
"62 524 CURVE SMOOTH",
"62 0 LINE",
"208 0 LINE",
"208 522 LINE SMOOTH",
"208 567 OFFCURVE",
"233 597 OFFCURVE",
"277 597 CURVE SMOOTH",
"316 597 OFFCURVE",
"343 570 OFFCURVE",
"343 522 CURVE SMOOTH",
"343 200 LINE SMOOTH",
"343 75 OFFCURVE",
"423 -7 OFFCURVE",
"556 -7 CURVE SMOOTH"
);
}
);
width = 833;
},
{
anchors = (
{
name = bottom;
position = "{432, 0}";
},
{
name = top;
position = "{432, 724}";
}
);
layerId = "9744B420-26AC-498D-9016-81F71DDA7C26";
paths = (
{
closed = 1;
nodes = (
"689 -8 OFFCURVE",
"762 64 OFFCURVE",
"762 175 CURVE SMOOTH",
"762 724 LINE",
"691 724 LINE",
"691 177 LINE SMOOTH",
"691 104 OFFCURVE",
"647 57 OFFCURVE",
"580 57 CURVE SMOOTH",
"511 57 OFFCURVE",
"468 104 OFFCURVE",
"468 177 CURVE SMOOTH",
"468 549 LINE SMOOTH",
"468 659 OFFCURVE",
"395 732 OFFCURVE",
"284 732 CURVE SMOOTH",
"175 732 OFFCURVE",
"101 661 OFFCURVE",
"101 549 CURVE SMOOTH",
"101 0 LINE",
"172 0 LINE",
"172 547 LINE SMOOTH",
"172 620 OFFCURVE",
"217 666 OFFCURVE",
"284 666 CURVE SMOOTH",
"352 666 OFFCURVE",
"396 618 OFFCURVE",
"396 547 CURVE SMOOTH",
"396 175 LINE SMOOTH",
"396 63 OFFCURVE",
"471 -8 OFFCURVE",
"580 -8 CURVE SMOOTH"
);
}
);
width = 864;
},
{
anchors = (
{
name = bottom;
position = "{429, 0}";
},
{
name = top;
position = "{429, 724}";
}
);
layerId = "E61E66CE-5363-4C81-9EFF-07DC28A46654";
paths = (
{
closed = 1;
nodes = (
"689 -8 OFFCURVE",
"764 66 OFFCURVE",
"764 180 CURVE SMOOTH",
"764 724 LINE",
"678 724 LINE",
"678 182 LINE SMOOTH",
"678 115 OFFCURVE",
"638 71 OFFCURVE",
"575 71 CURVE SMOOTH",
"513 71 OFFCURVE",
"472 114 OFFCURVE",
"472 182 CURVE SMOOTH",
"472 544 LINE SMOOTH",
"472 657 OFFCURVE",
"399 732 OFFCURVE",
"282 732 CURVE SMOOTH",
"170 732 OFFCURVE",
"93 659 OFFCURVE",
"93 544 CURVE SMOOTH",
"93 0 LINE",
"179 0 LINE",
"179 542 LINE SMOOTH",
"179 609 OFFCURVE",
"221 652 OFFCURVE",
"282 652 CURVE SMOOTH",
"345 652 OFFCURVE",
"385 609 OFFCURVE",
"385 542 CURVE SMOOTH",
"385 180 LINE SMOOTH",
"385 65 OFFCURVE",
"462 -8 OFFCURVE",
"575 -8 CURVE SMOOTH"
);
}
);
width = 857;
}
);
leftKerningGroup = KO_N.ss03;
leftMetricsKey = H;
rightKerningGroup = KO_N.ss01;
rightMetricsKey = H;
},
{
color = 3;
glyphname = S.ss01;
lastChange = "2023-01-21 10:13:29 +0000";
layers = (
{
anchors = (
{
name = bottom;
position = "{334, 0}";
},
{
name = top;
position = "{334, 724}";
}
);
background = {
paths = (
{
closed = 1;
nodes = (
"380 0 LINE SMOOTH",
"528 0 OFFCURVE",
"627 79 OFFCURVE",
"627 220 CURVE SMOOTH",
"627 348 OFFCURVE",
"550 432 OFFCURVE",
"392 432 CURVE SMOOTH",
"280 432 LINE SMOOTH",
"228 432 OFFCURVE",
"193 456 OFFCURVE",
"193 507 CURVE SMOOTH",
"193 554 OFFCURVE",
"223 585 OFFCURVE",
"284 585 CURVE SMOOTH",
"600 585 LINE",
"600 724 LINE",
"285 724 LINE SMOOTH",
"138 724 OFFCURVE",
"41 646 OFFCURVE",
"41 504 CURVE SMOOTH",
"41 377 OFFCURVE",
"125 292 OFFCURVE",
"275 292 CURVE SMOOTH",
"386 292 LINE SMOOTH",
"441 292 OFFCURVE",
"471 268 OFFCURVE",
"471 216 CURVE SMOOTH",
"471 170 OFFCURVE",
"442 140 OFFCURVE",
"380 140 CURVE SMOOTH",
"68 140 LINE",
"68 0 LINE"
);
}
);
};
layerId = "E9EF56E4-BA0E-4F86-8263-866E5C5AE35D";
paths = (
{
closed = 1;
nodes = (
"399 0 LINE SMOOTH",
"533 0 OFFCURVE",
"623 86 OFFCURVE",
"623 216 CURVE SMOOTH",
"623 346 OFFCURVE",
"535 432 OFFCURVE",
"404 432 CURVE SMOOTH",
"275 432 LINE SMOOTH",
"225 432 OFFCURVE",
"191 459 OFFCURVE",
"191 508 CURVE SMOOTH",
"191 554 OFFCURVE",
"221 585 OFFCURVE",
"275 585 CURVE SMOOTH",
"598 585 LINE",
"598 724 LINE",
"269 724 LINE SMOOTH",
"135 724 OFFCURVE",
"45 638 OFFCURVE",
"45 508 CURVE SMOOTH",
"45 378 OFFCURVE",
"133 292 OFFCURVE",
"264 292 CURVE SMOOTH",
"392 292 LINE SMOOTH",
"443 292 OFFCURVE",
"477 265 OFFCURVE",
"477 216 CURVE SMOOTH",
"477 169 OFFCURVE",
"446 138 OFFCURVE",
"392 138 CURVE SMOOTH",
"71 138 LINE",
"71 0 LINE"
);
}
);
width = 668;
},
{
anchors = (
{
name = bottom;
position = "{325, 0}";
},
{
name = top;
position = "{325, 724}";
}
);
background = {
paths = (
{
closed = 1;
nodes = (
"363 0 LINE SMOOTH",
"501 0 OFFCURVE",
"592 70 OFFCURVE",
"592 198 CURVE SMOOTH",
"592 319 OFFCURVE",
"514 396 OFFCURVE",
"373 396 CURVE SMOOTH",
"273 396 LINE SMOOTH",
"186 396 OFFCURVE",
"129 437 OFFCURVE",
"129 523 CURVE SMOOTH",
"129 605 OFFCURVE",
"179 657 OFFCURVE",
"287 657 CURVE SMOOTH",
"574 657 LINE",
"574 724 LINE",
"291 724 LINE SMOOTH",
"151 724 OFFCURVE",
"58 654 OFFCURVE",
"58 522 CURVE SMOOTH",
"58 405 OFFCURVE",
"135 328 OFFCURVE",
"274 328 CURVE SMOOTH",
"374 328 LINE SMOOTH",
"468 328 OFFCURVE",
"522 286 OFFCURVE",
"522 196 CURVE SMOOTH",
"522 118 OFFCURVE",
"471 67 OFFCURVE",
"363 67 CURVE SMOOTH",
"76 67 LINE",
"76 0 LINE"
);
}
);
};
layerId = "9744B420-26AC-498D-9016-81F71DDA7C26";
paths = (
{
closed = 1;
nodes = (
"379 0 LINE SMOOTH",
"504 0 OFFCURVE",
"588 79 OFFCURVE",
"588 198 CURVE SMOOTH",
"588 315 OFFCURVE",
"510 397 OFFCURVE",
"379 397 CURVE SMOOTH",
"271 397 LINE SMOOTH",
"188 397 OFFCURVE",
"133 444 OFFCURVE",
"133 527 CURVE SMOOTH",
"133 605 OFFCURVE",
"183 657 OFFCURVE",
"271 657 CURVE SMOOTH",
"572 657 LINE",
"572 724 LINE",
"271 724 LINE SMOOTH",
"146 724 OFFCURVE",
"62 645 OFFCURVE",
"62 527 CURVE SMOOTH",
"62 407 OFFCURVE",
"141 327 OFFCURVE",
"271 327 CURVE SMOOTH",
"379 327 LINE SMOOTH",
"462 327 OFFCURVE",
"517 281 OFFCURVE",
"517 198 CURVE SMOOTH",
"517 120 OFFCURVE",
"467 68 OFFCURVE",
"379 68 CURVE SMOOTH",
"78 68 LINE",
"78 0 LINE"
);
}
);
width = 650;
},
{
anchors = (
{
name = bottom;
position = "{329, 0}";
},
{
name = top;
position = "{329, 724}";
}
);
background = {
paths = (
{
closed = 1;
nodes = (
"369 0 LINE SMOOTH",
"509 0 OFFCURVE",
"601 72 OFFCURVE",
"601 202 CURVE SMOOTH",
"601 325 OFFCURVE",
"523 403 OFFCURVE",
"379 403 CURVE SMOOTH",
"277 403 LINE SMOOTH",
"197 403 OFFCURVE",
"144 441 OFFCURVE",
"144 520 CURVE SMOOTH",
"144 595 OFFCURVE",
"190 643 OFFCURVE",
"289 643 CURVE SMOOTH",
"582 643 LINE",
"582 724 LINE",
"292 724 LINE SMOOTH",
"151 724 OFFCURVE",
"57 652 OFFCURVE",
"57 519 CURVE SMOOTH",
"57 400 OFFCURVE",
"136 321 OFFCURVE",
"276 321 CURVE SMOOTH",
"378 321 LINE SMOOTH",
"465 321 OFFCURVE",
"514 283 OFFCURVE",
"514 200 CURVE SMOOTH",
"514 129 OFFCURVE",
"468 82 OFFCURVE",
"369 82 CURVE SMOOTH",
"77 82 LINE",
"77 0 LINE"
);
}
);
};
layerId = "E61E66CE-5363-4C81-9EFF-07DC28A46654";
paths = (
{
closed = 1;
nodes = (
"383 0 LINE SMOOTH",
"511 0 OFFCURVE",
"597 80 OFFCURVE",
"597 201 CURVE SMOOTH",
"597 321 OFFCURVE",
"519 404 OFFCURVE",
"383 404 CURVE SMOOTH",
"275 404 LINE SMOOTH",
"199 404 OFFCURVE",
"148 447 OFFCURVE",
"148 523 CURVE SMOOTH",
"148 595 OFFCURVE",
"194 643 OFFCURVE",
"275 643 CURVE SMOOTH",
"580 643 LINE",
"580 724 LINE",
"275 724 LINE SMOOTH",
"147 724 OFFCURVE",
"61 644 OFFCURVE",
"61 523 CURVE SMOOTH",
"61 400 OFFCURVE",
"141 320 OFFCURVE",
"275 320 CURVE SMOOTH",
"383 320 LINE SMOOTH",
"459 320 OFFCURVE",
"510 277 OFFCURVE",
"510 201 CURVE SMOOTH",
"510 130 OFFCURVE",
"464 82 OFFCURVE",
"383 82 CURVE SMOOTH",
"79 82 LINE",
"79 0 LINE"
);
}
);
width = 658;
}
);
leftKerningGroup = KO_S.ss03;
rightKerningGroup = KO_S.ss01;
},
{
color = 9;
glyphname = M.ss02;
lastChange = "2023-01-21 09:51:52 +0000";
layers = (
{
anchors = (
{
name = bottom;
position = "{493, 0}";
},
{
name = top;
position = "{493, 724}";
}
);
layerId = "E9EF56E4-BA0E-4F86-8263-866E5C5AE35D";
paths = (
{
closed = 1;
nodes = (
"209 0 LINE",
"209 506 LINE",
"420 0 LINE",
"537 0 LINE",
"748 506 LINE",
"748 0 LINE",
"895 0 LINE",
"895 724 LINE",
"697 724 LINE",
"478 205 LINE",
"260 724 LINE",
"62 724 LINE",
"62 0 LINE"
);
}
);
width = 957;
},
{
anchors = (
{
name = bottom;
position = "{465, 0}";
},
{
name = top;
position = "{465, 724}";
}
);
layerId = "9744B420-26AC-498D-9016-81F71DDA7C26";
paths = (
{
closed = 1;
nodes = (
"172 0 LINE",
"172 602 LINE",
"450 0 LINE",
"515 0 LINE",
"793 602 LINE",
"793 0 LINE",
"864 0 LINE",
"864 724 LINE",
"774 724 LINE",
"483 100 LINE",
"191 724 LINE",
"101 724 LINE",
"101 0 LINE"
);
}
);
width = 966;
},
{
anchors = (
{
name = bottom;
position = "{470, 0}";
},
{
name = top;
position = "{470, 724}";
}
);
layerId = "E61E66CE-5363-4C81-9EFF-07DC28A46654";
paths = (
{
closed = 1;
nodes = (
"179 0 LINE",
"179 583 LINE",
"444 0 LINE",
"519 0 LINE",
"784 583 LINE",
"784 0 LINE",
"870 0 LINE",
"870 724 LINE",
"758 724 LINE",
"482 121 LINE",
"205 724 LINE",
"93 724 LINE",
"93 0 LINE"
);
}
);
width = 963;
}
);
leftKerningGroup = KO_H;
leftMetricsKey = N;
rightKerningGroup = KO_H;
rightMetricsKey = N;
},
{
color = 9;
glyphname = N.ss02;
lastChange = "2023-01-21 10:34:21 +0000";
layers = (
{
anchors = (
{
name = bottom;
position = "{355, 0}";
},
{
name = top;
position = "{355, 724}";
}
);
layerId = "E9EF56E4-BA0E-4F86-8263-866E5C5AE35D";
paths = (
{
closed = 1;
nodes = (
"209 0 LINE",
"209 488 LINE",
"507 0 LINE",
"674 0 LINE",
"674 724 LINE",
"527 724 LINE",
"527 237 LINE",
"229 724 LINE",
"62 724 LINE",
"62 0 LINE"
);
}
);
width = 736;
},
{
anchors = (
{
name = bottom;
position = "{375, 0}";
},
{
name = top;
position = "{375, 724}";
}
);
layerId = "9744B420-26AC-498D-9016-81F71DDA7C26";
paths = (
{
closed = 1;
nodes = (
"171 0 LINE",
"171 604 LINE",
"572 0 LINE",
"645 0 LINE",
"645 724 LINE",
"575 724 LINE",
"575 120 LINE",
"174 724 LINE",
"101 724 LINE",
"101 0 LINE"
);
}
);
width = 747;
},
{
anchors = (
{
name = bottom;
position = "{371, 0}";
},
{
name = top;
position = "{371, 724}";
}
);
layerId = "E61E66CE-5363-4C81-9EFF-07DC28A46654";
paths = (
{
closed = 1;
nodes = (
"178 0 LINE",
"178 581 LINE",
"559 0 LINE",
"651 0 LINE",
"651 724 LINE",
"566 724 LINE",
"566 144 LINE",
"185 724 LINE",
"93 724 LINE",
"93 0 LINE"
);
}
);
width = 744;
}
);
leftKerningGroup = KO_H;
leftMetricsKey = H;
rightKerningGroup = KO_H;
rightMetricsKey = H;
},
{
color = 7;
glyphname = G.ss03;
lastChange = "2023-01-21 14:22:03 +0000";
layers = (
{
anchors = (
{
name = bottom;
position = "{420, 0}";
},
{
name = top;
position = "{420, 724}";
}
);
layerId = "E9EF56E4-BA0E-4F86-8263-866E5C5AE35D";
paths = (
{
closed = 1;
nodes = (
"481 -8 OFFCURVE",
"572 13 OFFCURVE",
"634 77 CURVE",
"634 0 LINE",
"763 0 LINE",
"763 269 LINE SMOOTH",
"763 340 OFFCURVE",
"716 385 OFFCURVE",
"647 385 CURVE SMOOTH",
"437 385 LINE",
"437 270 LINE",
"591 270 LINE SMOOTH",
"608 270 OFFCURVE",
"617 261 OFFCURVE",
"617 244 CURVE SMOOTH",
"617 206 LINE",
"581 154 OFFCURVE",
"508 124 OFFCURVE",
"424 124 CURVE SMOOTH",
"281 124 OFFCURVE",
"189 210 OFFCURVE",
"189 357 CURVE SMOOTH",
"189 498 OFFCURVE",
"274 592 OFFCURVE",
"423 592 CURVE SMOOTH",
"529 592 OFFCURVE",
"599 545 OFFCURVE",
"630 471 CURVE",
"769 532 LINE",
"713 661 OFFCURVE",
"584 732 OFFCURVE",
"424 732 CURVE SMOOTH",
"189 732 OFFCURVE",
"36 580 OFFCURVE",
"36 357 CURVE SMOOTH",
"36 139 OFFCURVE",
"179 -8 OFFCURVE",
"395 -8 CURVE SMOOTH"
);
}
);
width = 816;
},
{
anchors = (
{
name = bottom;
position = "{431, 0}";
},
{
name = top;
position = "{431, 724}";
}
);
layerId = "9744B420-26AC-498D-9016-81F71DDA7C26";
paths = (
{
closed = 1;
nodes = (
"527 -6 OFFCURVE",
"635 31 OFFCURVE",
"699 115 CURVE",
"699 0 LINE",
"762 0 LINE",
"762 259 LINE SMOOTH",
"762 324 OFFCURVE",
"721 360 OFFCURVE",
"661 360 CURVE SMOOTH",
"482 360 LINE",
"482 296 LINE",
"651 296 LINE SMOOTH",
"679 296 OFFCURVE",
"696 279 OFFCURVE",
"696 251 CURVE SMOOTH",
"696 204 LINE",
"661 118 OFFCURVE",
"553 61 OFFCURVE",
"425 61 CURVE SMOOTH",
"243 61 OFFCURVE",
"129 184 OFFCURVE",
"129 362 CURVE SMOOTH",
"129 546 OFFCURVE",
"252 664 OFFCURVE",
"433 664 CURVE SMOOTH",
"561 664 OFFCURVE",
"668 608 OFFCURVE",
"711 487 CURVE",
"778 513 LINE",
"727 652 OFFCURVE",
"600 730 OFFCURVE",
"435 730 CURVE SMOOTH",
"209 730 OFFCURVE",
"57 581 OFFCURVE",
"57 362 CURVE SMOOTH",
"57 144 OFFCURVE",
"204 -6 OFFCURVE",
"422 -6 CURVE SMOOTH"
);
}
);
width = 836;
},
{
anchors = (
{
name = bottom;
position = "{429, 0}";
},
{
name = top;
position = "{429, 724}";
}
);
layerId = "E61E66CE-5363-4C81-9EFF-07DC28A46654";
paths = (
{
closed = 1;
nodes = (
"518 -6 OFFCURVE",
"622 27 OFFCURVE",
"686 108 CURVE",
"686 0 LINE",
"762 0 LINE",
"762 261 LINE SMOOTH",
"762 328 OFFCURVE",
"720 365 OFFCURVE",
"658 365 CURVE SMOOTH",
"473 365 LINE",
"473 291 LINE",
"639 291 LINE SMOOTH",
"665 291 OFFCURVE",
"680 276 OFFCURVE",
"680 249 CURVE SMOOTH",
"680 204 LINE",
"645 125 OFFCURVE",
"544 74 OFFCURVE",
"425 74 CURVE SMOOTH",
"250 74 OFFCURVE",
"141 189 OFFCURVE",
"141 361 CURVE SMOOTH",
"141 537 OFFCURVE",
"256 650 OFFCURVE",
"431 650 CURVE SMOOTH",
"554 650 OFFCURVE",
"654 595 OFFCURVE",
"695 484 CURVE",
"776 517 LINE",
"724 654 OFFCURVE",
"597 730 OFFCURVE",
"433 730 CURVE SMOOTH",
"205 730 OFFCURVE",
"53 581 OFFCURVE",
"53 361 CURVE SMOOTH",
"53 143 OFFCURVE",
"199 -6 OFFCURVE",
"417 -6 CURVE SMOOTH"
);
}
);
width = 832;
}
);
leftKerningGroup = KO_O;
leftMetricsKey = C;
rightKerningGroup = KO_G;
},
{
color = 7;
glyphname = J.ss03;
lastChange = "2023-01-21 09:49:47 +0000";
layers = (
{
anchors = (
{
name = bottom;
position = "{200, 0}";
},
{
name = top;
position = "{213, 724}";
}
);
layerId = "E9EF56E4-BA0E-4F86-8263-866E5C5AE35D";
paths = (
{
closed = 1;
nodes = (
"177 0 LINE SMOOTH",
"283 0 OFFCURVE",
"347 56 OFFCURVE",
"347 150 CURVE SMOOTH",
"347 724 LINE",
"199 724 LINE",
"199 187 LINE SMOOTH",
"199 154 OFFCURVE",
"182 137 OFFCURVE",
"150 137 CURVE SMOOTH",
"31 137 LINE",
"31 0 LINE"
);
}
);
width = 405;
},
{
anchors = (
{
name = bottom;
position = "{209, 0}";
},
{
name = top;
position = "{265, 724}";
}
);
layerId = "9744B420-26AC-498D-9016-81F71DDA7C26";
paths = (
{
closed = 1;
nodes = (
"198 0 LINE SMOOTH",
"274 0 OFFCURVE",
"318 45 OFFCURVE",
"318 122 CURVE SMOOTH",
"318 724 LINE",
"247 724 LINE",
"247 124 LINE SMOOTH",
"247 87 OFFCURVE",
"227 66 OFFCURVE",
"189 66 CURVE SMOOTH",
"40 66 LINE",
"40 0 LINE"
);
}
);
width = 416;
},
{
anchors = (
{
name = bottom;
position = "{207, 0}";
},
{
name = top;
position = "{255, 724}";
}
);
layerId = "E61E66CE-5363-4C81-9EFF-07DC28A46654";
paths = (
{
closed = 1;
nodes = (
"194 0 LINE SMOOTH",
"276 0 OFFCURVE",
"324 47 OFFCURVE",
"324 127 CURVE SMOOTH",
"324 724 LINE",
"238 724 LINE",
"238 137 LINE SMOOTH",
"238 100 OFFCURVE",
"218 80 OFFCURVE",
"181 80 CURVE SMOOTH",
"38 80 LINE",
"38 0 LINE"
);
}
);
width = 414;
}
);
leftKerningGroup = KO_J;
rightKerningGroup = KO_J;
},
{
color = 7;
glyphname = M.ss03;
lastChange = "2023-01-21 09:49:47 +0000";
layers = (
{
anchors = (
{
name = bottom;
position = "{543, 0}";
},
{
name = top;
position = "{543, 721}";
}
);
layerId = "E9EF56E4-BA0E-4F86-8263-866E5C5AE35D";
paths = (
{
closed = 1;
nodes = (
"208 0 LINE",
"208 522 LINE SMOOTH",
"208 567 OFFCURVE",
"233 597 OFFCURVE",
"277 597 CURVE SMOOTH",
"321 597 OFFCURVE",
"346 567 OFFCURVE",
"346 522 CURVE SMOOTH",
"346 0 LINE",
"739 0 LINE",
"739 522 LINE SMOOTH",
"739 567 OFFCURVE",
"764 597 OFFCURVE",
"807 597 CURVE SMOOTH",
"851 597 OFFCURVE",
"876 567 OFFCURVE",
"876 522 CURVE SMOOTH",
"876 0 LINE",
"1023 0 LINE",
"1023 524 LINE SMOOTH",
"1023 655 OFFCURVE",
"937 731 OFFCURVE",
"807 731 CURVE SMOOTH",
"678 731 OFFCURVE",
"592 655 OFFCURVE",
"592 524 CURVE SMOOTH",
"592 135 LINE",
"492 135 LINE",
"492 524 LINE SMOOTH",
"492 655 OFFCURVE",
"407 731 OFFCURVE",
"277 731 CURVE SMOOTH",
"147 731 OFFCURVE",
"62 655 OFFCURVE",
"62 524 CURVE SMOOTH",
"62 0 LINE"
);
}
);
width = 1085;
},
{
anchors = (
{
name = bottom;
position = "{544, 0}";
},
{
name = top;
position = "{544, 724}";
}
);
layerId = "9744B420-26AC-498D-9016-81F71DDA7C26";
paths = (
{
closed = 1;
nodes = (
"172 0 LINE",
"172 547 LINE SMOOTH",
"172 620 OFFCURVE",
"217 666 OFFCURVE",
"284 666 CURVE SMOOTH",
"350 666 OFFCURVE",
"396 620 OFFCURVE",
"396 547 CURVE SMOOTH",
"396 0 LINE",
"693 0 LINE",
"693 547 LINE SMOOTH",
"693 620 OFFCURVE",
"738 666 OFFCURVE",
"805 666 CURVE SMOOTH",
"871 666 OFFCURVE",
"917 620 OFFCURVE",
"917 547 CURVE SMOOTH",
"917 0 LINE",
"987 0 LINE",
"987 549 LINE SMOOTH",
"987 661 OFFCURVE",
"913 732 OFFCURVE",
"805 732 CURVE SMOOTH",
"696 732 OFFCURVE",
"622 661 OFFCURVE",
"622 549 CURVE SMOOTH",
"622 68 LINE",
"466 68 LINE",
"466 549 LINE SMOOTH",
"466 661 OFFCURVE",
"392 732 OFFCURVE",
"284 732 CURVE SMOOTH",
"175 732 OFFCURVE",
"101 661 OFFCURVE",
"101 549 CURVE SMOOTH",
"101 0 LINE"
);
}
);
width = 1089;
},
{
anchors = (
{
name = bottom;
position = "{544, 0}";
},
{
name = top;
position = "{544, 724}";
}
);
layerId = "E61E66CE-5363-4C81-9EFF-07DC28A46654";
paths = (
{
closed = 1;
nodes = (
"179 0 LINE",
"179 542 LINE SMOOTH",
"179 609 OFFCURVE",
"221 652 OFFCURVE",
"282 652 CURVE SMOOTH",
"344 652 OFFCURVE",
"386 609 OFFCURVE",
"386 542 CURVE SMOOTH",
"386 0 LINE",
"702 0 LINE",
"702 542 LINE SMOOTH",
"702 609 OFFCURVE",
"743 652 OFFCURVE",
"805 652 CURVE SMOOTH",
"867 652 OFFCURVE",
"908 609 OFFCURVE",
"908 542 CURVE SMOOTH",
"908 0 LINE",
"994 0 LINE",
"994 544 LINE SMOOTH",
"994 659 OFFCURVE",
"918 732 OFFCURVE",
"805 732 CURVE SMOOTH",
"693 732 OFFCURVE",
"616 659 OFFCURVE",
"616 544 CURVE SMOOTH",
"616 81 LINE",
"471 81 LINE",
"471 544 LINE SMOOTH",
"471 659 OFFCURVE",
"395 732 OFFCURVE",
"282 732 CURVE SMOOTH",
"170 732 OFFCURVE",
"93 659 OFFCURVE",
"93 544 CURVE SMOOTH",
"93 0 LINE"
);
}
);
width = 1087;
}
);
leftKerningGroup = KO_N.ss03;
leftMetricsKey = N;
rightKerningGroup = KO_H;
rightMetricsKey = N;
},
{
color = 7;
glyphname = N.ss03;
lastChange = "2023-01-21 09:49:47 +0000";
layers = (
{
anchors = (
{
name = bottom;
position = "{417, 0}";
},
{
name = top;
position = "{417, 724}";
}
);
layerId = "E9EF56E4-BA0E-4F86-8263-866E5C5AE35D";
paths = (
{
closed = 1;
nodes = (
"686 -7 OFFCURVE",
"771 70 OFFCURVE",
"771 200 CURVE SMOOTH",
"771 724 LINE",
"625 724 LINE",
"625 202 LINE SMOOTH",
"625 157 OFFCURVE",
"600 127 OFFCURVE",
"556 127 CURVE SMOOTH",
"517 127 OFFCURVE",
"490 153 OFFCURVE",
"490 202 CURVE SMOOTH",
"490 524 LINE SMOOTH",
"490 649 OFFCURVE",
"411 731 OFFCURVE",
"277 731 CURVE SMOOTH",
"147 731 OFFCURVE",
"62 655 OFFCURVE",
"62 524 CURVE SMOOTH",
"62 0 LINE",
"208 0 LINE",
"208 522 LINE SMOOTH",
"208 567 OFFCURVE",
"233 597 OFFCURVE",
"277 597 CURVE SMOOTH",
"316 597 OFFCURVE",
"343 570 OFFCURVE",
"343 522 CURVE SMOOTH",
"343 200 LINE SMOOTH",
"343 75 OFFCURVE",
"423 -7 OFFCURVE",
"556 -7 CURVE SMOOTH"
);
}
);
width = 833;
},
{
anchors = (
{
name = bottom;
position = "{432, 0}";
},
{
name = top;
position = "{432, 724}";
}
);
layerId = "9744B420-26AC-498D-9016-81F71DDA7C26";
paths = (
{
closed = 1;
nodes = (
"689 -8 OFFCURVE",
"762 64 OFFCURVE",
"762 175 CURVE SMOOTH",
"762 724 LINE",
"691 724 LINE",
"691 177 LINE SMOOTH",
"691 104 OFFCURVE",
"647 57 OFFCURVE",
"580 57 CURVE SMOOTH",
"511 57 OFFCURVE",
"468 104 OFFCURVE",
"468 177 CURVE SMOOTH",
"468 549 LINE SMOOTH",
"468 659 OFFCURVE",
"395 732 OFFCURVE",
"284 732 CURVE SMOOTH",
"175 732 OFFCURVE",
"101 661 OFFCURVE",
"101 549 CURVE SMOOTH",
"101 0 LINE",
"172 0 LINE",
"172 547 LINE SMOOTH",
"172 620 OFFCURVE",
"217 666 OFFCURVE",
"284 666 CURVE SMOOTH",
"352 666 OFFCURVE",
"396 618 OFFCURVE",
"396 547 CURVE SMOOTH",
"396 175 LINE SMOOTH",
"396 63 OFFCURVE",
"471 -8 OFFCURVE",
"580 -8 CURVE SMOOTH"
);
}
);
width = 864;
},
{
anchors = (
{
name = bottom;
position = "{429, 0}";
},
{
name = top;
position = "{429, 724}";
}
);
layerId = "E61E66CE-5363-4C81-9EFF-07DC28A46654";
paths = (
{
closed = 1;
nodes = (
"689 -8 OFFCURVE",
"764 66 OFFCURVE",
"764 180 CURVE SMOOTH",
"764 724 LINE",
"678 724 LINE",
"678 182 LINE SMOOTH",
"678 115 OFFCURVE",
"638 71 OFFCURVE",
"575 71 CURVE SMOOTH",
"513 71 OFFCURVE",
"472 114 OFFCURVE",
"472 182 CURVE SMOOTH",
"472 544 LINE SMOOTH",
"472 657 OFFCURVE",
"399 732 OFFCURVE",
"282 732 CURVE SMOOTH",
"170 732 OFFCURVE",
"93 659 OFFCURVE",
"93 544 CURVE SMOOTH",
"93 0 LINE",
"179 0 LINE",
"179 542 LINE SMOOTH",
"179 609 OFFCURVE",
"221 652 OFFCURVE",
"282 652 CURVE SMOOTH",
"345 652 OFFCURVE",
"385 609 OFFCURVE",
"385 542 CURVE SMOOTH",
"385 180 LINE SMOOTH",
"385 65 OFFCURVE",
"462 -8 OFFCURVE",
"575 -8 CURVE SMOOTH"
);
}
);
width = 857;
}
);
leftKerningGroup = KO_N.ss03;
leftMetricsKey = H;
rightKerningGroup = KO_N.ss01;
rightMetricsKey = H;
},
{
color = 8;
glyphname = O.ss04;
lastChange = "2023-01-22 17:08:06 +0000";
layers = (
{
anchors = (
{
name = bottom;
position = "{394, 0}";
},
{
name = center;
position = "{394, 362}";
},
{
name = ogonek;
position = "{697, 10}";
},
{
name = top;
position = "{394, 724}";
},
{
name = topleft;
position = "{11, 724}";
},
{
name = topright;
position = "{755, 724}";
}
);
layerId = "E9EF56E4-BA0E-4F86-8263-866E5C5AE35D";
paths = (
{
closed = 1;
nodes = (
"763 362 LINE",
"394 731 LINE",
"25 362 LINE",
"394 -7 LINE"
);
},
{
closed = 1;
nodes = (
"236 362 LINE",
"394 520 LINE",
"552 362 LINE",
"394 204 LINE"
);
}
);
width = 788;
},
{
anchors = (
{
name = bottom;
position = "{415, 0}";
},
{
name = center;
position = "{396, 362}";
},
{
name = ogonek;
position = "{710, 10}";
},
{
name = top;
position = "{415, 724}";
},
{
name = topleft;
position = "{24, 724}";
},
{
name = topright;
position = "{768, 724}";
}
);
layerId = "9744B420-26AC-498D-9016-81F71DDA7C26";
paths = (
{
closed = 1;
nodes = (
"785 362 LINE",
"415 732 LINE",
"45 362 LINE",
"415 -8 LINE"
);
},
{
closed = 1;
nodes = (
"142 362 LINE",
"415 635 LINE",
"688 362 LINE",
"415 89 LINE"
);
}
);
width = 830;
},
{
anchors = (
{
name = bottom;
position = "{402, 0}";
},
{
name = center;
position = "{402, 362}";
},
{
name = ogonek;
position = "{714, 10}";
},
{
name = top;
position = "{402, 724}";
},
{
name = topleft;
position = "{27, 724}";
},
{
name = topright;
position = "{772, 724}";
}
);
layerId = "E61E66CE-5363-4C81-9EFF-07DC28A46654";
paths = (
{
closed = 1;
nodes = (
"772 362 LINE",
"402 732 LINE",
"32 362 LINE",
"402 -8 LINE"
);
},
{
closed = 1;
nodes = (
"153 362 LINE",
"402 611 LINE",
"651 362 LINE",
"402 113 LINE"
);
}
);
width = 804;
}
);
leftKerningGroup = KO_O.ss04;
rightKerningGroup = KO_O.ss04;
userData = {
KernOnName = O.ss04;
};
},
{
color = 8;
glyphname = Q.ss04;
lastChange = "2023-01-22 10:59:43 +0000";
layers = (
{
anchors = (
{
name = bottom;
position = "{392, 0}";
},
{
name = center;
position = "{383, 362}";
},
{
name = ogonek;
position = "{697, 10}";
},
{
name = top;
position = "{392, 724}";
},
{
name = topleft;
position = "{11, 724}";
},
{
name = topright;
position = "{755, 724}";
}
);
layerId = "E9EF56E4-BA0E-4F86-8263-866E5C5AE35D";
paths = (
{
closed = 1;
nodes = (
"763 0 LINE",
"763 140 LINE",
"541 140 LINE",
"763 362 LINE",
"394 731 LINE",
"25 362 LINE",
"387 0 LINE"
);
},
{
closed = 1;
nodes = (
"236 362 LINE",
"394 520 LINE",
"552 362 LINE",
"394 204 LINE"
);
}
);
width = 788;
},
{
anchors = (
{
name = bottom;
position = "{392, 0}";
},
{
name = center;
position = "{396, 362}";
},
{
name = ogonek;
position = "{710, 10}";
},
{
name = top;
position = "{392, 724}";
},
{
name = topleft;
position = "{24, 724}";
},
{
name = topright;
position = "{768, 724}";
}
);
layerId = "9744B420-26AC-498D-9016-81F71DDA7C26";
paths = (
{
closed = 1;
nodes = (
"785 0 LINE",
"785 67 LINE",
"490 67 LINE",
"785 362 LINE",
"415 732 LINE",
"45 362 LINE",
"407 0 LINE"
);
},
{
closed = 1;
nodes = (
"142 362 LINE",
"415 635 LINE",
"688 362 LINE",
"415 89 LINE"
);
}
);
width = 830;
},
{
anchors = (
{
name = bottom;
position = "{389, 0}";
},
{
name = center;
position = "{400, 362}";
},
{
name = ogonek;
position = "{714, 10}";
},
{
name = top;
position = "{389, 724}";
},
{
name = topleft;
position = "{27, 724}";
},
{
name = topright;
position = "{772, 724}";
}
);
layerId = "E61E66CE-5363-4C81-9EFF-07DC28A46654";
paths = (
{
closed = 1;
nodes = (
"773 0 LINE",
"773 82 LINE",
"492 82 LINE",
"772 362 LINE",
"402 732 LINE",
"32 362 LINE",
"394 0 LINE"
);
},
{
closed = 1;
nodes = (
"153 362 LINE",
"402 611 LINE",
"651 362 LINE",
"402 113 LINE"
);
}
);
width = 804;
}
);
leftKerningGroup = KO_O.ss04;
},
{
color = 8;
glyphname = R.ss04;
lastChange = "2023-01-22 10:59:43 +0000";
layers = (
{
anchors = (
{
name = bottom;
position = "{369, 0}";
},
{
name = top;
position = "{369, 724}";
}
);
layerId = "E9EF56E4-BA0E-4F86-8263-866E5C5AE35D";
paths = (
{
closed = 1;
nodes = (
"209 0 LINE",
"209 585 LINE",
"391 585 LINE SMOOTH",
"456 585 OFFCURVE",
"493 551 OFFCURVE",
"493 491 CURVE SMOOTH",
"493 435 OFFCURVE",
"456 398 OFFCURVE",
"391 398 CURVE SMOOTH",
"245 398 LINE",
"505 0 LINE",
"682 0 LINE",
"456 338 LINE",
"371 298 LINE",
"412 298 LINE SMOOTH",
"555 298 OFFCURVE",
"646 375 OFFCURVE",
"646 508 CURVE SMOOTH",
"646 640 OFFCURVE",
"560 724 OFFCURVE",
"390 724 CURVE SMOOTH",
"62 724 LINE",
"62 0 LINE"
);
}
);
width = 693;
},
{
anchors = (
{
name = bottom;
position = "{352, 0}";
},
{
name = top;
position = "{352, 724}";
}
);
layerId = "9744B420-26AC-498D-9016-81F71DDA7C26";
paths = (
{
closed = 1;
nodes = (
"171 0 LINE",
"171 657 LINE",
"371 657 LINE SMOOTH",
"464 657 OFFCURVE",
"523 606 OFFCURVE",
"523 518 CURVE SMOOTH",
"523 433 OFFCURVE",
"468 379 OFFCURVE",
"371 379 CURVE SMOOTH",
"226 379 LINE",
"523 0 LINE",
"609 0 LINE",
"342 337 LINE",
"318 317 LINE",
"372 317 LINE SMOOTH",
"517 317 OFFCURVE",
"596 398 OFFCURVE",
"596 520 CURVE SMOOTH",
"596 651 OFFCURVE",
"506 724 OFFCURVE",
"373 724 CURVE SMOOTH",
"101 724 LINE",
"101 0 LINE"
);
}
);
width = 655;
},
{
anchors = (
{
name = bottom;
position = "{352, 0}";
},
{
name = top;
position = "{352, 724}";
}
);
layerId = "E61E66CE-5363-4C81-9EFF-07DC28A46654";
paths = (
{
closed = 1;
nodes = (
"178 0 LINE",
"178 643 LINE",
"371 643 LINE SMOOTH",
"459 643 OFFCURVE",
"513 595 OFFCURVE",
"513 513 CURVE SMOOTH",
"513 433 OFFCURVE",
"461 383 OFFCURVE",
"371 383 CURVE SMOOTH",
"230 383 LINE",
"516 0 LINE",
"618 0 LINE",
"362 337 LINE",
"325 313 LINE",
"376 313 LINE SMOOTH",
"521 313 OFFCURVE",
"602 393 OFFCURVE",
"602 518 CURVE SMOOTH",
"602 649 OFFCURVE",
"513 724 OFFCURVE",
"373 724 CURVE SMOOTH",
"93 724 LINE",
"93 0 LINE"
);
}
);
width = 661;
}
);
leftKerningGroup = KO_H;
leftMetricsKey = H;
rightMetricsKey = R;
},
{
glyphname = Y.ss04;
lastChange = "2023-01-22 17:01:56 +0000";
layers = (
{
anchors = (
{
name = bottom;
position = "{371, 0}";
},
{
name = top;
position = "{372, 724}";
},
{
name = topleft;
position = "{39, 655}";
}
);
background = {
paths = (
{
closed = 1;
nodes = (
"445 0 LINE",
"445 284 LINE",
"707 724 LINE",
"539 724 LINE",
"346 375 LINE",
"398 375 LINE",
"205 724 LINE",
"35 724 LINE",
"298 283 LINE",
"298 0 LINE"
);
}
);
};
layerId = "E9EF56E4-BA0E-4F86-8263-866E5C5AE35D";
paths = (
{
closed = 1;
nodes = (
"445 0 LINE",
"445 416 LINE",
"737 724 LINE",
"539 724 LINE",
"372 542 LINE",
"205 724 LINE",
"5 724 LINE",
"298 415 LINE",
"298 0 LINE"
);
}
);
width = 743;
},
{
anchors = (
{
name = bottom;
position = "{349, 0}";
},
{
name = top;
position = "{349, 724}";
},
{
name = topleft;
position = "{16, 654}";
}
);
background = {
paths = (
{
closed = 1;
nodes = (
"383 0 LINE",
"383 283 LINE",
"651 724 LINE",
"567 724 LINE",
"335 326 LINE",
"362 326 LINE",
"130 724 LINE",
"46 724 LINE",
"314 283 LINE",
"314 0 LINE"
);
}
);
};
layerId = "9744B420-26AC-498D-9016-81F71DDA7C26";
paths = (
{
closed = 1;
nodes = (
"384 0 LINE",
"384 438 LINE",
"681 724 LINE",
"583 724 LINE",
"349 499 LINE",
"114 724 LINE",
"16 724 LINE",
"313 437 LINE",
"313 0 LINE"
);
}
);
width = 697;
},
{
anchors = (
{
name = bottom;
position = "{353, 0}";
},
{
name = top;
position = "{353, 724}";
},
{
name = topleft;
position = "{5, 654}";
}
);
background = {
paths = (
{
closed = 1;
nodes = (
"370 0 LINE",
"370 283 LINE",
"637 724 LINE",
"537 724 LINE",
"312 336 LINE",
"344 336 LINE",
"120 724 LINE",
"19 724 LINE",
"286 283 LINE",
"286 0 LINE"
);
}
);
};
layerId = "E61E66CE-5363-4C81-9EFF-07DC28A46654";
paths = (
{
closed = 1;
nodes = (
"396 0 LINE",
"396 415 LINE",
"692 724 LINE",
"575 724 LINE",
"354 488 LINE",
"131 724 LINE",
"14 724 LINE",
"310 414 LINE",
"310 0 LINE"
);
}
);
width = 706;
}
);
leftKerningGroup = KO_Y;
leftMetricsKey = Y;
rightKerningGroup = KO_Y.ss04;
rightMetricsKey = Y;
userData = {
KernOnName = Y.ss04;
};
},
{
glyphname = Z.ss04;
lastChange = "2023-01-22 17:00:27 +0000";
layers = (
{
anchors = (
{
name = bottom;
position = "{370, 0}";
},
{
name = center;
position = "{370, 362}";
},
{
name = top;
position = "{370, 724}";
}
);
layerId = "E9EF56E4-BA0E-4F86-8263-866E5C5AE35D";
paths = (
{
closed = 1;
nodes = (
"704 0 LINE",
"704 140 LINE",
"241 140 LINE",
"695 585 LINE",
"695 724 LINE",
"48 724 LINE",
"48 585 LINE",
"492 585 LINE",
"36 137 LINE",
"36 0 LINE"
);
}
);
width = 741;
},
{
anchors = (
{
name = bottom;
position = "{373, 0}";
},
{
name = center;
position = "{373, 362}";
},
{
name = top;
position = "{373, 724}";
}
);
layerId = "9744B420-26AC-498D-9016-81F71DDA7C26";
paths = (
{
closed = 1;
nodes = (
"689 0 LINE",
"689 67 LINE",
"136 67 LINE",
"686 639 LINE",
"686 724 LINE",
"67 724 LINE",
"67 657 LINE",
"603 657 LINE",
"51 79 LINE",
"51 0 LINE"
);
}
);
width = 743;
},
{
anchors = (
{
name = bottom;
position = "{372, 0}";
},
{
name = center;
position = "{372, 362}";
},
{
name = top;
position = "{372, 724}";
}
);
layerId = "E61E66CE-5363-4C81-9EFF-07DC28A46654";
paths = (
{
closed = 1;
nodes = (
"692 0 LINE",
"692 82 LINE",
"162 82 LINE",
"688 637 LINE",
"688 724 LINE",
"63 724 LINE",
"63 643 LINE",
"579 643 LINE",
"48 82 LINE",
"48 0 LINE"
);
}
);
width = 743;
}
);
leftKerningGroup = KO_Z;
leftMetricsKey = Z;
rightKerningGroup = KO_Z;
rightMetricsKey = Z;
},
{
export = 0;
glyphname = G.001;
lastChange = "2023-01-21 15:14:36 +0000";
layers = (
{
anchors = (
{
name = bottom;
position = "{417, 0}";
},
{
name = top;
position = "{417, 724}";
}
);
background = {
paths = (
{
closed = 1;
nodes = (
"541 -8 OFFCURVE",
"667 30 OFFCURVE",
"755 119 CURVE",
"755 395 LINE",
"435 395 LINE",
"435 280 LINE",
"614 280 LINE",
"614 190 LINE",
"574 148 OFFCURVE",
"503 124 OFFCURVE",
"421 124 CURVE SMOOTH",
"279 124 OFFCURVE",
"186 210 OFFCURVE",
"186 355 CURVE SMOOTH",
"186 501 OFFCURVE",
"273 592 OFFCURVE",
"418 592 CURVE SMOOTH",
"517 592 OFFCURVE",
"593 553 OFFCURVE",
"623 475 CURVE",
"761 535 LINE",
"713 657 OFFCURVE",
"587 732 OFFCURVE",
"418 732 CURVE SMOOTH",
"189 732 OFFCURVE",
"33 581 OFFCURVE",
"33 358 CURVE SMOOTH",
"33 139 OFFCURVE",
"182 -8 OFFCURVE",
"413 -8 CURVE SMOOTH"
);
}
);
};
layerId = "E9EF56E4-BA0E-4F86-8263-866E5C5AE35D";
paths = (
{
closed = 1;
nodes = (
"548 -8 OFFCURVE",
"670 34 OFFCURVE",
"745 107 CURVE",
"745 381 LINE",
"433 381 LINE",
"433 266 LINE",
"598 266 LINE",
"598 179 LINE",
"561 149 OFFCURVE",
"496 132 OFFCURVE",
"417 132 CURVE SMOOTH",
"272 132 OFFCURVE",
"189 225 OFFCURVE",
"189 362 CURVE SMOOTH",
"189 507 OFFCURVE",
"279 592 OFFCURVE",
"413 592 CURVE SMOOTH",
"512 592 OFFCURVE",
"588 553 OFFCURVE",
"618 475 CURVE",
"756 535 LINE",
"708 657 OFFCURVE",
"582 732 OFFCURVE",
"413 732 CURVE SMOOTH",
"192 732 OFFCURVE",
"36 583 OFFCURVE",
"36 362 CURVE SMOOTH",
"36 141 OFFCURVE",
"192 -8 OFFCURVE",
"413 -8 CURVE SMOOTH"
);
}
);
width = 798;
},
{
anchors = (
{
name = bottom;
position = "{432, 0}";
},
{
name = top;
position = "{432, 724}";
}
);
background = {
paths = (
{
closed = 1;
nodes = (
"568 -6 OFFCURVE",
"689 35 OFFCURVE",
"764 120 CURVE",
"764 370 LINE",
"472 370 LINE",
"472 306 LINE",
"697 306 LINE",
"697 157 LINE",
"644 95 OFFCURVE",
"542 61 OFFCURVE",
"431 61 CURVE SMOOTH",
"247 61 OFFCURVE",
"130 183 OFFCURVE",
"130 363 CURVE SMOOTH",
"130 542 OFFCURVE",
"251 664 OFFCURVE",
"440 664 CURVE SMOOTH",
"569 664 OFFCURVE",
"666 605 OFFCURVE",
"702 507 CURVE",
"771 533 LINE",
"722 656 OFFCURVE",
"597 730 OFFCURVE",
"440 730 CURVE SMOOTH",
"211 730 OFFCURVE",
"58 579 OFFCURVE",
"58 359 CURVE SMOOTH",
"58 141 OFFCURVE",
"207 -6 OFFCURVE",
"432 -6 CURVE SMOOTH"
);
}
);
};
layerId = "9744B420-26AC-498D-9016-81F71DDA7C26";
paths = (
{
closed = 1;
nodes = (
"559 -6 OFFCURVE",
"683 35 OFFCURVE",
"754 113 CURVE",
"754 350 LINE",
"455 350 LINE",
"455 286 LINE",
"683 286 LINE",
"683 141 LINE",
"628 85 OFFCURVE",
"532 61 OFFCURVE",
"431 61 CURVE SMOOTH",
"249 60 OFFCURVE",
"129 182 OFFCURVE",
"129 362 CURVE SMOOTH",
"129 545 OFFCURVE",
"252 664 OFFCURVE",
"432 664 CURVE SMOOTH",
"561 664 OFFCURVE",
"658 605 OFFCURVE",
"694 507 CURVE",
"763 533 LINE",
"714 656 OFFCURVE",
"589 730 OFFCURVE",
"432 730 CURVE SMOOTH",
"211 730 OFFCURVE",
"57 581 OFFCURVE",
"57 362 CURVE SMOOTH",
"57 143 OFFCURVE",
"211 -6 OFFCURVE",
"432 -6 CURVE SMOOTH"
);
}
);
width = 819;
},
{
anchors = (
{
name = bottom;
position = "{429, 0}";
},
{
name = top;
position = "{429, 724}";
}
);
background = {
paths = (
{
closed = 1;
nodes = (
"562 -6 OFFCURVE",
"685 34 OFFCURVE",
"762 120 CURVE",
"762 375 LINE",
"464 375 LINE",
"464 301 LINE",
"680 301 LINE",
"680 164 LINE",
"630 106 OFFCURVE",
"534 74 OFFCURVE",
"428 74 CURVE SMOOTH",
"253 74 OFFCURVE",
"141 188 OFFCURVE",
"141 361 CURVE SMOOTH",
"141 533 OFFCURVE",
"255 650 OFFCURVE",
"436 650 CURVE SMOOTH",
"559 650 OFFCURVE",
"651 595 OFFCURVE",
"686 500 CURVE",
"768 533 LINE",
"720 656 OFFCURVE",
"594 730 OFFCURVE",
"436 730 CURVE SMOOTH",
"207 730 OFFCURVE",
"53 579 OFFCURVE",
"53 359 CURVE SMOOTH",
"53 141 OFFCURVE",
"202 -6 OFFCURVE",
"428 -6 CURVE SMOOTH"
);
}
);
};
layerId = "E61E66CE-5363-4C81-9EFF-07DC28A46654";
paths = (
{
closed = 1;
nodes = (
"557 -6 OFFCURVE",
"686 41 OFFCURVE",
"752 111 CURVE",
"752 360 LINE",
"454 360 LINE",
"454 286 LINE",
"666 286 LINE",
"666 146 LINE",
"622 103 OFFCURVE",
"527 74 OFFCURVE",
"428 74 CURVE SMOOTH",
"253 74 OFFCURVE",
"141 191 OFFCURVE",
"141 362 CURVE SMOOTH",
"141 538 OFFCURVE",
"257 650 OFFCURVE",
"428 650 CURVE SMOOTH",
"551 650 OFFCURVE",
"643 595 OFFCURVE",
"678 500 CURVE",
"760 533 LINE",
"712 656 OFFCURVE",
"586 730 OFFCURVE",
"428 730 CURVE SMOOTH",
"206 730 OFFCURVE",
"53 581 OFFCURVE",
"53 362 CURVE SMOOTH",
"53 143 OFFCURVE",
"206 -6 OFFCURVE",
"428 -6 CURVE SMOOTH"
);
}
);
width = 814;
}
);
leftMetricsKey = C;
},
{
export = 0;
glyphname = W.001;
lastChange = "2023-01-21 09:49:28 +0000";
layers = (
{
anchors = (
{
name = bottom;
position = "{458, 0}";
},
{
name = top;
position = "{527, 724}";
}
);
layerId = "E9EF56E4-BA0E-4F86-8263-866E5C5AE35D";
paths = (
{
closed = 1;
nodes = (
"541 436 LINE",
"512 436 LINE",
"709 -23 LINE",
"1059 724 LINE",
"894 724 LINE",
"699 281 LINE",
"728 281 LINE",
"527 747 LINE",
"326 280 LINE",
"356 280 LINE",
"160 724 LINE",
"-5 724 LINE",
"344 -23 LINE"
);
}
);
width = 1054;
},
{
anchors = (
{
name = bottom;
position = "{486, 0}";
},
{
name = top;
position = "{478, 724}";
}
);
layerId = "9744B420-26AC-498D-9016-81F71DDA7C26";
paths = (
{
closed = 1;
nodes = (
"488 576 LINE",
"467 576 LINE",
"693 -6 LINE",
"983 724 LINE",
"909 724 LINE",
"683 149 LINE",
"704 149 LINE",
"478 730 LINE",
"251 150 LINE",
"272 150 LINE",
"46 724 LINE",
"-28 724 LINE",
"262 -6 LINE"
);
}
);
width = 955;
},
{
anchors = (
{
name = bottom;
position = "{481, 0}";
},
{
name = top;
position = "{488, 724}";
}
);
layerId = "E61E66CE-5363-4C81-9EFF-07DC28A46654";
paths = (
{
closed = 1;
nodes = (
"499 548 LINE",
"476 548 LINE",
"697 -10 LINE",
"998 724 LINE",
"906 724 LINE",
"687 176 LINE",
"709 176 LINE",
"488 734 LINE",
"266 176 LINE",
"289 176 LINE",
"69 724 LINE",
"-23 724 LINE",
"278 -10 LINE"
);
}
);
width = 975;
}
);
},
{
export = 0;
glyphname = Q.ss03;
lastChange = "2023-01-19 15:31:29 +0000";
layers = (
{
anchors = (
{
name = bottom;
position = "{392, 0}";
},
{
name = top;
position = "{392, 724}";
}
);
components = (
{
alignment = -1;
name = O;
}
);
layerId = "E9EF56E4-BA0E-4F86-8263-866E5C5AE35D";
paths = (
{
closed = 1;
nodes = (
"464 380 LINE",
"368 297 LINE",
"660 0 LINE",
"831 0 LINE"
);
}
);
width = 824;
},
{
anchors = (
{
name = bottom;
position = "{392, 0}";
},
{
name = top;
position = "{392, 724}";
}
);
components = (
{
alignment = -1;
name = O;
}
);
layerId = "9744B420-26AC-498D-9016-81F71DDA7C26";
paths = (
{
closed = 1;
nodes = (
"465 363 LINE",
"418 320 LINE",
"755 0 LINE",
"841 0 LINE"
);
}
);
width = 865;
},
{
anchors = (
{
name = bottom;
position = "{392, 0}";
},
{
name = top;
position = "{392, 724}";
}
);
components = (
{
alignment = -1;
name = O;
}
);
layerId = "E61E66CE-5363-4C81-9EFF-07DC28A46654";
paths = (
{
closed = 1;
nodes = (
"465 367 LINE",
"408 315 LINE",
"736 0 LINE",
"839 0 LINE"
);
}
);
width = 856;
}
);
},
{
glyphname = a;
lastChange = "2023-01-22 17:01:56 +0000";
layers = (
{
anchors = (
{
name = bottom;
position = "{257, 0}";
},
{
name = ogonek;
position = "{374, 0}";
},
{
name = top;
position = "{259, 500}";
}
);
layerId = "E9EF56E4-BA0E-4F86-8263-866E5C5AE35D";
paths = (
{
closed = 1;
nodes = (
"480 0 LINE",
"480 387 LINE SMOOTH",
"480 455 OFFCURVE",
"435 500 OFFCURVE",
"367 500 CURVE SMOOTH",
"42 500 LINE",
"42 369 LINE",
"341 369 LINE",
"341 118 LINE",
"232 118 LINE SMOOTH",
"196 118 OFFCURVE",
"176 136 OFFCURVE",
"176 167 CURVE SMOOTH",
"176 197 OFFCURVE",
"195 216 OFFCURVE",
"232 216 CURVE SMOOTH",
"357 216 LINE",
"357 303 LINE",
"194 303 LINE SMOOTH",
"92 303 OFFCURVE",
"30 242 OFFCURVE",
"30 151 CURVE SMOOTH",
"30 60 OFFCURVE",
"92 0 OFFCURVE",
"194 0 CURVE SMOOTH"
);
}
);
width = 525;
},
{
anchors = (
{
name = bottom;
position = "{235, 0}";
},
{
name = ogonek;
position = "{354, 0}";
},
{
name = top;
position = "{253, 500}";
}
);
background = {
paths = (
{
closed = 1;
nodes = (
"473 0 LINE",
"473 446 LINE SMOOTH",
"473 479 OFFCURVE",
"451 500 OFFCURVE",
"418 500 CURVE SMOOTH",
"72 500 LINE",
"72 438 LINE",
"407 438 LINE",
"407 59 LINE",
"234 59 LINE SMOOTH",
"155 59 OFFCURVE",
"117 94 OFFCURVE",
"117 155 CURVE SMOOTH",
"117 212 OFFCURVE",
"150 251 OFFCURVE",
"234 251 CURVE SMOOTH",
"423 251 LINE",
"423 309 LINE",
"221 309 LINE SMOOTH",
"117 309 OFFCURVE",
"47 247 OFFCURVE",
"47 154 CURVE SMOOTH",
"47 62 OFFCURVE",
"117 0 OFFCURVE",
"221 0 CURVE SMOOTH"
);
}
);
};
layerId = "9744B420-26AC-498D-9016-81F71DDA7C26";
paths = (
{
closed = 1;
nodes = (
"473 0 LINE",
"473 446 LINE SMOOTH",
"473 479 OFFCURVE",
"451 500 OFFCURVE",
"418 500 CURVE SMOOTH",
"72 500 LINE",
"72 438 LINE",
"407 438 LINE",
"407 59 LINE",
"234 59 LINE SMOOTH",
"150 59 OFFCURVE",
"117 97 OFFCURVE",
"117 155 CURVE SMOOTH",
"117 212 OFFCURVE",
"150 250 OFFCURVE",
"234 250 CURVE SMOOTH",
"422 250 LINE",
"422 309 LINE",
"221 309 LINE SMOOTH",
"123 309 OFFCURVE",
"50 253 OFFCURVE",
"50 155 CURVE SMOOTH",
"50 56 OFFCURVE",
"123 0 OFFCURVE",
"221 0 CURVE SMOOTH"
);
}
);
width = 549;
},
{
anchors = (
{
name = bottom;
position = "{244, 0}";
},
{
name = ogonek;
position = "{359, 0}";
},
{
name = top;
position = "{258, 500}";
}
);
layerId = "E61E66CE-5363-4C81-9EFF-07DC28A46654";
paths = (
{
closed = 1;
nodes = (
"477 0 LINE",
"477 434 LINE SMOOTH",
"477 474 OFFCURVE",
"451 500 OFFCURVE",
"410 500 CURVE SMOOTH",
"68 500 LINE",
"68 424 LINE",
"396 424 LINE",
"396 71 LINE",
"236 71 LINE SMOOTH",
"166 71 OFFCURVE",
"131 102 OFFCURVE",
"131 157 CURVE SMOOTH",
"131 208 OFFCURVE",
"162 243 OFFCURVE",
"236 243 CURVE SMOOTH",
"412 243 LINE",
"412 310 LINE",
"218 310 LINE SMOOTH",
"115 310 OFFCURVE",
"46 248 OFFCURVE",
"46 155 CURVE SMOOTH",
"46 62 OFFCURVE",
"115 0 OFFCURVE",
"218 0 CURVE SMOOTH"
);
}
);
width = 547;
}
);
leftKerningGroup = KO_a;
rightKerningGroup = KO_a;
unicode = 0061;
userData = {
KernOnName = a;
};
},
{
glyphname = ae;
lastChange = "2023-01-19 15:31:29 +0000";
layers = (
{
background = {
paths = (
{
closed = 1;
nodes = (
"30 57 OFFCURVE",
"88 0 OFFCURVE",
"205 0 CURVE SMOOTH",
"779 0 LINE",
"779 131 LINE",
"481 131 LINE",
"481 215 LINE",
"614 215 LINE SMOOTH",
"731 215 OFFCURVE",
"792 270 OFFCURVE",
"792 357 CURVE SMOOTH",
"792 443 OFFCURVE",
"735 500 OFFCURVE",
"619 500 CURVE SMOOTH",
"43 500 LINE",
"43 369 LINE",
"341 369 LINE",
"341 288 LINE",
"210 288 LINE SMOOTH",
"92 288 OFFCURVE",
"30 232 OFFCURVE",
"30 144 CURVE SMOOTH"
);
},
{
closed = 1;
nodes = (
"176 192 OFFCURVE",
"194 209 OFFCURVE",
"234 209 CURVE SMOOTH",
"341 209 LINE",
"341 120 LINE",
"234 120 LINE SMOOTH",
"198 120 OFFCURVE",
"176 135 OFFCURVE",
"176 165 CURVE SMOOTH"
);
},
{
closed = 1;
nodes = (
"481 380 LINE",
"590 380 LINE SMOOTH",
"625 380 OFFCURVE",
"646 365 OFFCURVE",
"646 337 CURVE SMOOTH",
"646 311 OFFCURVE",
"629 293 OFFCURVE",
"590 293 CURVE SMOOTH",
"481 293 LINE"
);
}
);
};
layerId = "E9EF56E4-BA0E-4F86-8263-866E5C5AE35D";
paths = (
{
closed = 1;
nodes = (
"779 0 LINE",
"779 131 LINE",
"481 131 LINE",
"481 382 LINE",
"594 382 LINE SMOOTH",
"625 382 OFFCURVE",
"646 369 OFFCURVE",
"646 338 CURVE SMOOTH",
"646 307 OFFCURVE",
"625 294 OFFCURVE",
"594 294 CURVE SMOOTH",
"465 294 LINE",
"465 196 LINE",
"618 196 LINE SMOOTH",
"718 196 OFFCURVE",
"792 248 OFFCURVE",
"792 348 CURVE SMOOTH",
"792 448 OFFCURVE",
"718 500 OFFCURVE",
"618 500 CURVE SMOOTH",
"43 500 LINE",
"43 369 LINE",
"341 369 LINE",
"341 118 LINE",
"228 118 LINE SMOOTH",
"197 118 OFFCURVE",
"176 131 OFFCURVE",
"176 162 CURVE SMOOTH",
"176 193 OFFCURVE",
"197 206 OFFCURVE",
"228 206 CURVE SMOOTH",
"357 206 LINE",
"357 304 LINE",
"204 304 LINE SMOOTH",
"104 304 OFFCURVE",
"30 251 OFFCURVE",
"30 151 CURVE SMOOTH",
"30 51 OFFCURVE",
"104 0 OFFCURVE",
"204 0 CURVE SMOOTH"
);
}
);
width = 822;
},
{
layerId = "9744B420-26AC-498D-9016-81F71DDA7C26";
paths = (
{
closed = 1;
nodes = (
"811 0 LINE",
"811 62 LINE",
"475 62 LINE",
"475 442 LINE",
"671 442 LINE SMOOTH",
"735 442 OFFCURVE",
"765 413 OFFCURVE",
"765 363 CURVE SMOOTH",
"765 316 OFFCURVE",
"739 284 OFFCURVE",
"671 284 CURVE SMOOTH",
"461 284 LINE",
"461 228 LINE",
"684 228 LINE SMOOTH",
"775 228 OFFCURVE",
"835 283 OFFCURVE",
"835 364 CURVE SMOOTH",
"835 445 OFFCURVE",
"775 500 OFFCURVE",
"684 500 CURVE SMOOTH",
"75 500 LINE",
"75 438 LINE",
"410 438 LINE",
"410 58 LINE",
"226 58 LINE SMOOTH",
"154 58 OFFCURVE",
"120 89 OFFCURVE",
"120 143 CURVE SMOOTH",
"120 193 OFFCURVE",
"150 227 OFFCURVE",
"226 227 CURVE SMOOTH",
"425 227 LINE",
"425 284 LINE",
"212 284 LINE SMOOTH",
"114 284 OFFCURVE",
"50 226 OFFCURVE",
"50 142 CURVE SMOOTH",
"50 58 OFFCURVE",
"114 0 OFFCURVE",
"212 0 CURVE SMOOTH"
);
}
);
width = 885;
},
{
layerId = "E61E66CE-5363-4C81-9EFF-07DC28A46654";
paths = (
{
closed = 1;
nodes = (
"804 0 LINE",
"804 76 LINE",
"477 76 LINE",
"477 429 LINE",
"657 429 LINE SMOOTH",
"713 429 OFFCURVE",
"743 405 OFFCURVE",
"743 358 CURVE SMOOTH",
"743 315 OFFCURVE",
"718 286 OFFCURVE",
"657 286 CURVE SMOOTH",
"461 286 LINE",
"461 220 LINE",
"670 220 LINE SMOOTH",
"764 220 OFFCURVE",
"826 275 OFFCURVE",
"826 360 CURVE SMOOTH",
"826 444 OFFCURVE",
"766 500 OFFCURVE",
"670 500 CURVE SMOOTH",
"68 500 LINE",
"68 424 LINE",
"396 424 LINE",
"396 71 LINE",
"223 71 LINE SMOOTH",
"162 71 OFFCURVE",
"130 96 OFFCURVE",
"130 146 CURVE SMOOTH",
"130 191 OFFCURVE",
"157 221 OFFCURVE",
"223 221 CURVE SMOOTH",
"411 221 LINE",
"411 287 LINE",
"209 287 LINE SMOOTH",
"111 287 OFFCURVE",
"46 231 OFFCURVE",
"46 143 CURVE SMOOTH",
"46 57 OFFCURVE",
"109 0 OFFCURVE",
"209 0 CURVE SMOOTH"
);
}
);
width = 873;
}
);
leftKerningGroup = KO_a;
leftMetricsKey = a;
rightKerningGroup = KO_ae;
unicode = 00E6;
},
{
glyphname = b;
lastChange = "2023-01-21 14:06:10 +0000";
layers = (
{
anchors = (
{
name = bottom;
position = "{274, 0}";
},
{
name = center;
position = "{277, 250}";
},
{
name = top;
position = "{274, 800}";
},
{
name = topleft;
position = "{24, 500}";
}
);
layerId = "E9EF56E4-BA0E-4F86-8263-866E5C5AE35D";
paths = (
{
closed = 1;
nodes = (
"173 369 LINE",
"269 369 LINE SMOOTH",
"348 369 OFFCURVE",
"390 321 OFFCURVE",
"390 250 CURVE SMOOTH",
"390 172 OFFCURVE",
"341 131 OFFCURVE",
"269 131 CURVE SMOOTH",
"174 131 LINE",
"189 116 LINE",
"189 724 LINE",
"50 724 LINE",
"50 0 LINE",
"269 0 LINE SMOOTH",
"432 0 OFFCURVE",
"536 100 OFFCURVE",
"536 250 CURVE SMOOTH",
"536 400 OFFCURVE",
"432 500 OFFCURVE",
"269 500 CURVE SMOOTH",
"173 500 LINE"
);
}
);
width = 561;
},
{
anchors = (
{
name = bottom;
position = "{274, 0}";
},
{
name = center;
position = "{255, 250}";
},
{
name = top;
position = "{274, 800}";
},
{
name = topleft;
position = "{2, 500}";
}
);
layerId = "9744B420-26AC-498D-9016-81F71DDA7C26";
paths = (
{
closed = 1;
nodes = (
"134 438 LINE",
"251 438 LINE SMOOTH",
"371 438 OFFCURVE",
"446 363 OFFCURVE",
"446 250 CURVE SMOOTH",
"446 135 OFFCURVE",
"368 62 OFFCURVE",
"251 62 CURVE SMOOTH",
"135 62 LINE",
"150 47 LINE",
"150 724 LINE",
"83 724 LINE",
"83 0 LINE",
"251 0 LINE SMOOTH",
"410 0 OFFCURVE",
"516 100 OFFCURVE",
"516 250 CURVE SMOOTH",
"516 400 OFFCURVE",
"410 500 OFFCURVE",
"251 500 CURVE SMOOTH",
"134 500 LINE"
);
}
);
width = 555;
},
{
anchors = (
{
name = bottom;
position = "{274, 0}";
},
{
name = center;
position = "{259, 250}";
},
{
name = top;
position = "{274, 800}";
},
{
name = topleft;
position = "{6, 500}";
}
);
layerId = "E61E66CE-5363-4C81-9EFF-07DC28A46654";
paths = (
{
closed = 1;
nodes = (
"142 424 LINE",
"255 424 LINE SMOOTH",
"366 424 OFFCURVE",
"435 354 OFFCURVE",
"435 250 CURVE SMOOTH",
"435 142 OFFCURVE",
"363 76 OFFCURVE",
"255 76 CURVE SMOOTH",
"143 76 LINE",
"158 61 LINE",
"158 724 LINE",
"76 724 LINE",
"76 0 LINE",
"255 0 LINE SMOOTH",
"414 0 OFFCURVE",
"520 100 OFFCURVE",
"520 250 CURVE SMOOTH",
"520 400 OFFCURVE",
"414 500 OFFCURVE",
"255 500 CURVE SMOOTH",
"142 500 LINE"
);
}
);
width = 557;
}
);
leftKerningGroup = KO_i;
rightKerningGroup = KO_o;
unicode = 0062;
},
{
glyphname = c;
lastChange = "2023-01-21 14:06:10 +0000";
layers = (
{
anchors = (
{
name = bottom;
position = "{295, 0}";
},
{
name = top;
position = "{295, 500}";
}
);
layerId = "E9EF56E4-BA0E-4F86-8263-866E5C5AE35D";
paths = (
{
closed = 1;
nodes = (
"393 149 OFFCURVE",
"350 121 OFFCURVE",
"295 121 CURVE SMOOTH",
"221 121 OFFCURVE",
"171 170 OFFCURVE",
"171 250 CURVE SMOOTH",
"171 331 OFFCURVE",
"221 379 OFFCURVE",
"295 379 CURVE SMOOTH",
"354 379 OFFCURVE",
"398 348 OFFCURVE",
"413 294 CURVE",
"548 347 LINE",
"511 446 OFFCURVE",
"416 508 OFFCURVE",
"295 508 CURVE SMOOTH",
"139 508 OFFCURVE",
"25 404 OFFCURVE",
"25 250 CURVE SMOOTH",
"25 96 OFFCURVE",
"139 -8 OFFCURVE",
"295 -8 CURVE SMOOTH",
"414 -8 OFFCURVE",
"508 52 OFFCURVE",
"546 149 CURVE",
"410 198 LINE"
);
}
);
width = 568;
},
{
anchors = (
{
name = bottom;
position = "{307, 0}";
},
{
name = top;
position = "{307, 500}";
}
);
layerId = "9744B420-26AC-498D-9016-81F71DDA7C26";
paths = (
{
closed = 1;
nodes = (
"464 100 OFFCURVE",
"395 56 OFFCURVE",
"307 56 CURVE SMOOTH",
"191 56 OFFCURVE",
"109 134 OFFCURVE",
"109 250 CURVE SMOOTH",
"109 366 OFFCURVE",
"191 444 OFFCURVE",
"307 444 CURVE SMOOTH",
"398 444 OFFCURVE",
"468 398 OFFCURVE",
"494 321 CURVE",
"559 346 LINE",
"522 445 OFFCURVE",
"427 506 OFFCURVE",
"307 506 CURVE SMOOTH",
"151 506 OFFCURVE",
"40 402 OFFCURVE",
"40 250 CURVE SMOOTH",
"40 98 OFFCURVE",
"151 -6 OFFCURVE",
"307 -6 CURVE SMOOTH",
"425 -6 OFFCURVE",
"519 53 OFFCURVE",
"557 150 CURVE",
"492 173 LINE"
);
}
);
width = 594;
},
{
anchors = (
{
name = bottom;
position = "{305, 0}";
},
{
name = top;
position = "{305, 500}";
}
);
layerId = "E61E66CE-5363-4C81-9EFF-07DC28A46654";
paths = (
{
closed = 1;
nodes = (
"450 110 OFFCURVE",
"386 69 OFFCURVE",
"305 69 CURVE SMOOTH",
"197 69 OFFCURVE",
"121 141 OFFCURVE",
"121 250 CURVE SMOOTH",
"121 359 OFFCURVE",
"197 431 OFFCURVE",
"305 431 CURVE SMOOTH",
"389 431 OFFCURVE",
"454 388 OFFCURVE",
"478 316 CURVE",
"557 346 LINE",
"520 445 OFFCURVE",
"425 506 OFFCURVE",
"305 506 CURVE SMOOTH",
"149 506 OFFCURVE",
"37 402 OFFCURVE",
"37 250 CURVE SMOOTH",
"37 98 OFFCURVE",
"149 -6 OFFCURVE",
"305 -6 CURVE SMOOTH",
"423 -6 OFFCURVE",
"517 53 OFFCURVE",
"555 150 CURVE",
"476 178 LINE"
);
}
);
width = 589;
}
);
leftKerningGroup = KO_e;
leftMetricsKey = o;
rightKerningGroup = KO_c;
unicode = 0063;
},
{
glyphname = d;
lastChange = "2023-01-21 15:03:29 +0000";
layers = (
{
anchors = (
{
name = bottom;
position = "{285, 0}";
},
{
name = center;
position = "{285, 250}";
},
{
name = top;
position = "{448, 724}";
},
{
name = topright;
position = "{581, 724}";
}
);
layerId = "E9EF56E4-BA0E-4F86-8263-866E5C5AE35D";
paths = (
{
closed = 1;
nodes = (
"285 500 LINE SMOOTH",
"129 500 OFFCURVE",
"25 400 OFFCURVE",
"25 250 CURVE SMOOTH",
"25 100 OFFCURVE",
"129 0 OFFCURVE",
"285 0 CURVE SMOOTH",
"512 0 LINE",
"512 724 LINE",
"372 724 LINE",
"372 116 LINE",
"387 131 LINE",
"295 131 LINE SMOOTH",
"220 131 OFFCURVE",
"172 172 OFFCURVE",
"172 250 CURVE SMOOTH",
"172 321 OFFCURVE",
"214 369 OFFCURVE",
"295 369 CURVE SMOOTH",
"388 369 LINE",
"388 500 LINE"
);
}
);
width = 562;
},
{
anchors = (
{
name = bottom;
position = "{301, 0}";
},
{
name = center;
position = "{301, 250}";
},
{
name = top;
position = "{464, 724}";
},
{
name = topright;
position = "{554, 724}";
}
);
layerId = "9744B420-26AC-498D-9016-81F71DDA7C26";
paths = (
{
closed = 1;
nodes = (
"305 500 LINE SMOOTH",
"146 500 OFFCURVE",
"40 400 OFFCURVE",
"40 250 CURVE SMOOTH",
"40 100 OFFCURVE",
"146 0 OFFCURVE",
"305 0 CURVE SMOOTH",
"473 0 LINE",
"473 724 LINE",
"406 724 LINE",
"406 47 LINE",
"421 62 LINE",
"304 62 LINE SMOOTH",
"187 62 OFFCURVE",
"109 135 OFFCURVE",
"109 250 CURVE SMOOTH",
"109 363 OFFCURVE",
"185 438 OFFCURVE",
"304 438 CURVE SMOOTH",
"422 438 LINE",
"422 500 LINE"
);
}
);
width = 555;
},
{
anchors = (
{
name = bottom;
position = "{298, 0}";
},
{
name = center;
position = "{298, 250}";
},
{
name = top;
position = "{461, 724}";
},
{
name = topright;
position = "{551, 724}";
}
);
layerId = "E61E66CE-5363-4C81-9EFF-07DC28A46654";
paths = (
{
closed = 1;
nodes = (
"301 500 LINE SMOOTH",
"143 500 OFFCURVE",
"37 400 OFFCURVE",
"37 250 CURVE SMOOTH",
"37 100 OFFCURVE",
"143 0 OFFCURVE",
"301 0 CURVE SMOOTH",
"481 0 LINE",
"481 724 LINE",
"399 724 LINE",
"399 61 LINE",
"414 76 LINE",
"302 76 LINE SMOOTH",
"194 76 OFFCURVE",
"122 142 OFFCURVE",
"122 250 CURVE SMOOTH",
"122 354 OFFCURVE",
"191 424 OFFCURVE",
"302 424 CURVE SMOOTH",
"415 424 LINE",
"415 500 LINE"
);
}
);
width = 557;
}
);
leftKerningGroup = KO_e;
leftMetricsKey = o;
rightKerningGroup = KO_i;
rightMetricsKey = l;
unicode = 0064;
},
{
glyphname = dcroat;
lastChange = "2023-01-20 18:05:00 +0000";
layers = (
{
components = (
{
alignment = -1;
name = d;
}
);
layerId = "E9EF56E4-BA0E-4F86-8263-866E5C5AE35D";
paths = (
{
closed = 1;
nodes = (
"256 548 LINE",
"572 548 LINE",
"572 655 LINE",
"256 655 LINE"
);
}
);
width = 561;
},
{
components = (
{
alignment = -1;
name = d;
}
);
layerId = "9744B420-26AC-498D-9016-81F71DDA7C26";
paths = (
{
closed = 1;
nodes = (
"261 573 LINE",
"554 573 LINE",
"554 629 LINE",
"261 629 LINE"
);
}
);
width = 555;
},
{
components = (
{
alignment = -1;
name = d;
}
);
layerId = "E61E66CE-5363-4C81-9EFF-07DC28A46654";
paths = (
{
closed = 1;
nodes = (
"260 568 LINE",
"558 568 LINE",
"558 634 LINE",
"260 634 LINE"
);
}
);
width = 557;
}
);
leftKerningGroup = KO_e;
unicode = 0111;
},
{
glyphname = e;
lastChange = "2023-01-21 14:06:10 +0000";
layers = (
{
anchors = (
{
name = bottom;
position = "{294, 0}";
},
{
name = ogonek;
position = "{343, 10}";
},
{
name = top;
position = "{294, 500}";
}
);
layerId = "E9EF56E4-BA0E-4F86-8263-866E5C5AE35D";
paths = (
{
closed = 1;
nodes = (
"411 -8 OFFCURVE",
"512 49 OFFCURVE",
"546 136 CURVE",
"419 198 LINE",
"403 151 OFFCURVE",
"355 121 OFFCURVE",
"294 121 CURVE SMOOTH",
"227 121 OFFCURVE",
"181 160 OFFCURVE",
"174 218 CURVE",
"564 218 LINE",
"573 391 OFFCURVE",
"465 508 OFFCURVE",
"295 508 CURVE SMOOTH",
"138 508 OFFCURVE",
"25 404 OFFCURVE",
"25 250 CURVE SMOOTH",
"25 96 OFFCURVE",
"138 -8 OFFCURVE",
"295 -8 CURVE SMOOTH"
);
},
{
closed = 1;
nodes = (
"183 349 OFFCURVE",
"231 388 OFFCURVE",
"295 388 CURVE SMOOTH",
"361 388 OFFCURVE",
"408 349 OFFCURVE",
"413 292 CURVE",
"422 299 LINE",
"169 299 LINE",
"177 293 LINE"
);
}
);
width = 587;
},
{
anchors = (
{
name = bottom;
position = "{309, 0}";
},
{
name = ogonek;
position = "{332, 10}";
},
{
name = top;
position = "{309, 500}";
}
);
layerId = "9744B420-26AC-498D-9016-81F71DDA7C26";
paths = (
{
closed = 1;
nodes = (
"423 -6 OFFCURVE",
"521 51 OFFCURVE",
"557 144 CURVE",
"496 173 LINE",
"468 100 OFFCURVE",
"397 56 OFFCURVE",
"308 56 CURVE SMOOTH",
"194 56 OFFCURVE",
"114 129 OFFCURVE",
"110 234 CURVE",
"575 234 LINE",
"581 394 OFFCURVE",
"472 506 OFFCURVE",
"307 506 CURVE SMOOTH",
"150 506 OFFCURVE",
"40 402 OFFCURVE",
"40 250 CURVE SMOOTH",
"40 98 OFFCURVE",
"150 -6 OFFCURVE",
"307 -6 CURVE SMOOTH"
);
},
{
closed = 1;
nodes = (
"120 379 OFFCURVE",
"200 448 OFFCURVE",
"307 448 CURVE SMOOTH",
"417 448 OFFCURVE",
"496 379 OFFCURVE",
"504 279 CURVE",
"515 296 LINE",
"102 296 LINE",
"112 280 LINE"
);
}
);
width = 610;
},
{
anchors = (
{
name = bottom;
position = "{306, 0}";
},
{
name = ogonek;
position = "{334, 10}";
},
{
name = top;
position = "{306, 500}";
}
);
layerId = "E61E66CE-5363-4C81-9EFF-07DC28A46654";
paths = (
{
closed = 1;
nodes = (
"421 -6 OFFCURVE",
"519 51 OFFCURVE",
"555 142 CURVE",
"480 178 LINE",
"455 110 OFFCURVE",
"388 69 OFFCURVE",
"305 69 CURVE SMOOTH",
"201 69 OFFCURVE",
"127 134 OFFCURVE",
"123 230 CURVE",
"573 230 LINE",
"579 394 OFFCURVE",
"470 506 OFFCURVE",
"305 506 CURVE SMOOTH",
"148 506 OFFCURVE",
"37 402 OFFCURVE",
"37 250 CURVE SMOOTH",
"37 98 OFFCURVE",
"148 -6 OFFCURVE",
"305 -6 CURVE SMOOTH"
);
},
{
closed = 1;
nodes = (
"134 375 OFFCURVE",
"207 436 OFFCURVE",
"305 436 CURVE SMOOTH",
"405 436 OFFCURVE",
"477 375 OFFCURVE",
"486 284 CURVE",
"497 298 LINE",
"115 298 LINE",
"125 285 LINE"
);
}
);
width = 605;
}
);
leftKerningGroup = KO_e;
leftMetricsKey = c;
rightKerningGroup = KO_e;
unicode = 0065;
},
{
glyphname = f;
lastChange = "2023-01-22 17:01:43 +0000";
layers = (
{
anchors = (
{
name = bottom;
position = "{226, 0}";
},
{
name = top;
position = "{226, 800}";
}
);
layerId = "E9EF56E4-BA0E-4F86-8263-866E5C5AE35D";
paths = (
{
closed = 1;
nodes = (
"276 0 LINE",
"276 593 LINE",
"431 593 LINE",
"431 724 LINE",
"250 724 LINE SMOOTH",
"182 724 OFFCURVE",
"137 679 OFFCURVE",
"137 611 CURVE SMOOTH",
"137 0 LINE"
);
},
{
closed = 1;
nodes = (
"431 369 LINE",
"431 500 LINE",
"21 500 LINE",
"21 369 LINE"
);
}
);
width = 452;
},
{
anchors = (
{
name = bottom;
position = "{209, 0}";
},
{
name = top;
position = "{209, 800}";
}
);
layerId = "9744B420-26AC-498D-9016-81F71DDA7C26";
paths = (
{
closed = 1;
nodes = (
"222 0 LINE",
"222 662 LINE",
"394 662 LINE",
"394 724 LINE",
"211 724 LINE SMOOTH",
"176 724 OFFCURVE",
"155 703 OFFCURVE",
"155 670 CURVE SMOOTH",
"155 0 LINE"
);
},
{
closed = 1;
nodes = (
"394 438 LINE",
"394 500 LINE",
"23 500 LINE",
"23 438 LINE"
);
}
);
width = 417;
},
{
anchors = (
{
name = bottom;
position = "{213, 0}";
},
{
name = top;
position = "{213, 800}";
}
);
layerId = "E61E66CE-5363-4C81-9EFF-07DC28A46654";
paths = (
{
closed = 1;
nodes = (
"233 0 LINE",
"233 648 LINE",
"401 648 LINE",
"401 724 LINE",
"219 724 LINE SMOOTH",
"178 724 OFFCURVE",
"152 698 OFFCURVE",
"152 658 CURVE SMOOTH",
"152 0 LINE"
);
},
{
closed = 1;
nodes = (
"401 424 LINE",
"401 500 LINE",
"23 500 LINE",
"23 424 LINE"
);
}
);
width = 424;
}
);
leftKerningGroup = KO_t;
rightKerningGroup = KO_f;
unicode = 0066;
userData = {
KernOnName = f;
};
},
{
glyphname = g;
lastChange = "2023-01-21 14:06:10 +0000";
layers = (
{
anchors = (
{
name = bottom;
position = "{320, -200}";
},
{
name = top;
position = "{276, 500}";
}
);
background = {
paths = (
{
closed = 1;
nodes = (
"400 148 OFFCURVE",
"483 214 OFFCURVE",
"483 315 CURVE SMOOTH",
"483 345 OFFCURVE",
"475 374 OFFCURVE",
"459 396 CURVE",
"552 396 LINE",
"552 500 LINE",
"341 500 LINE",
"321 506 OFFCURVE",
"299 508 OFFCURVE",
"278 508 CURVE SMOOTH",
"153 508 OFFCURVE",
"68 435 OFFCURVE",
"68 326 CURVE SMOOTH",
"68 220 OFFCURVE",
"149 148 OFFCURVE",
"278 148 CURVE SMOOTH"
);
},
{
closed = 1;
nodes = (
"436 -208 OFFCURVE",
"531 -122 OFFCURVE",
"531 6 CURVE SMOOTH",
"531 107 LINE",
"30 107 LINE",
"30 6 LINE SMOOTH",
"30 -129 OFFCURVE",
"133 -208 OFFCURVE",
"280 -208 CURVE SMOOTH"
);
},
{
closed = 1;
nodes = (
"210 -104 OFFCURVE",
"164 -73 OFFCURVE",
"164 -14 CURVE SMOOTH",
"164 0 LINE",
"397 0 LINE",
"397 -14 LINE SMOOTH",
"397 -73 OFFCURVE",
"350 -104 OFFCURVE",
"280 -104 CURVE SMOOTH"
);
},
{
closed = 1;
nodes = (
"234 255 OFFCURVE",
"207 281 OFFCURVE",
"207 323 CURVE SMOOTH",
"207 365 OFFCURVE",
"234 389 OFFCURVE",
"276 389 CURVE SMOOTH",
"317 389 OFFCURVE",
"344 365 OFFCURVE",
"344 323 CURVE SMOOTH",
"344 281 OFFCURVE",
"317 255 OFFCURVE",
"276 255 CURVE SMOOTH"
);
}
);
};
layerId = "E9EF56E4-BA0E-4F86-8263-866E5C5AE35D";
paths = (
{
closed = 1;
nodes = (
"400 148 OFFCURVE",
"483 214 OFFCURVE",
"483 315 CURVE SMOOTH",
"483 345 OFFCURVE",
"475 374 OFFCURVE",
"459 396 CURVE",
"552 396 LINE",
"552 500 LINE",
"341 500 LINE",
"321 506 OFFCURVE",
"299 508 OFFCURVE",
"278 508 CURVE SMOOTH",
"153 508 OFFCURVE",
"68 435 OFFCURVE",
"68 326 CURVE SMOOTH",
"68 220 OFFCURVE",
"149 148 OFFCURVE",
"278 148 CURVE SMOOTH"
);
},
{
closed = 1;
nodes = (
"422 -208 OFFCURVE",
"531 -142 OFFCURVE",
"531 0 CURVE SMOOTH",
"531 102 LINE",
"29 102 LINE",
"29 0 LINE SMOOTH",
"29 -142 OFFCURVE",
"138 -208 OFFCURVE",
"280 -208 CURVE SMOOTH"
);
},
{
closed = 1;
nodes = (
"212 -104 OFFCURVE",
"163 -80 OFFCURVE",
"163 -20 CURVE SMOOTH",
"163 -5 LINE",
"397 -5 LINE",
"397 -20 LINE SMOOTH",
"397 -80 OFFCURVE",
"348 -104 OFFCURVE",
"280 -104 CURVE SMOOTH"
);
},
{
closed = 1;
nodes = (
"234 255 OFFCURVE",
"207 281 OFFCURVE",
"207 323 CURVE SMOOTH",
"207 365 OFFCURVE",
"234 389 OFFCURVE",
"276 389 CURVE SMOOTH",
"317 389 OFFCURVE",
"344 365 OFFCURVE",
"344 323 CURVE SMOOTH",
"344 281 OFFCURVE",
"317 255 OFFCURVE",
"276 255 CURVE SMOOTH"
);
}
);
width = 562;
},
{
anchors = (
{
name = bottom;
position = "{293, -200}";
},
{
name = top;
position = "{264, 500}";
}
);
layerId = "9744B420-26AC-498D-9016-81F71DDA7C26";
paths = (
{
closed = 1;
nodes = (
"378 155 OFFCURVE",
"453 231 OFFCURVE",
"453 331 CURVE SMOOTH",
"453 377 OFFCURVE",
"438 416 OFFCURVE",
"414 446 CURVE",
"519 446 LINE",
"519 500 LINE",
"323 500 LINE",
"305 505 OFFCURVE",
"284 508 OFFCURVE",
"263 508 CURVE SMOOTH",
"156 508 OFFCURVE",
"75 436 OFFCURVE",
"75 329 CURVE SMOOTH",
"75 230 OFFCURVE",
"150 155 OFFCURVE",
"263 155 CURVE SMOOTH"
);
},
{
closed = 1;
nodes = (
"395 -208 OFFCURVE",
"498 -124 OFFCURVE",
"498 -5 CURVE SMOOTH",
"498 90 LINE",
"30 90 LINE",
"30 -5 LINE SMOOTH",
"30 -124 OFFCURVE",
"134 -208 OFFCURVE",
"264 -208 CURVE SMOOTH"
);
},
{
closed = 1;
nodes = (
"164 -145 OFFCURVE",
"97 -87 OFFCURVE",
"97 -2 CURVE SMOOTH",
"97 29 LINE",
"432 29 LINE",
"432 -2 LINE SMOOTH",
"432 -87 OFFCURVE",
"365 -145 OFFCURVE",
"264 -145 CURVE SMOOTH"
);
},
{
closed = 1;
nodes = (
"191 211 OFFCURVE",
"141 259 OFFCURVE",
"141 330 CURVE SMOOTH",
"141 401 OFFCURVE",
"191 446 OFFCURVE",
"264 446 CURVE SMOOTH",
"336 446 OFFCURVE",
"387 401 OFFCURVE",
"387 330 CURVE SMOOTH",
"387 259 OFFCURVE",
"336 211 OFFCURVE",
"264 211 CURVE SMOOTH"
);
}
);
width = 533;
},
{
anchors = (
{
name = bottom;
position = "{298, -200}";
},
{
name = top;
position = "{266, 500}";
}
);
layerId = "E61E66CE-5363-4C81-9EFF-07DC28A46654";
paths = (
{
closed = 1;
nodes = (
"382 153 OFFCURVE",
"459 228 OFFCURVE",
"459 328 CURVE SMOOTH",
"459 370 OFFCURVE",
"445 407 OFFCURVE",
"423 436 CURVE",
"526 436 LINE",
"526 500 LINE",
"327 500 LINE",
"309 505 OFFCURVE",
"287 508 OFFCURVE",
"266 508 CURVE SMOOTH",
"156 508 OFFCURVE",
"73 436 OFFCURVE",
"73 329 CURVE SMOOTH",
"73 228 OFFCURVE",
"150 153 OFFCURVE",
"266 153 CURVE SMOOTH"
);
},
{
closed = 1;
nodes = (
"402 -208 OFFCURVE",
"505 -126 OFFCURVE",
"505 -3 CURVE SMOOTH",
"505 93 LINE",
"30 93 LINE",
"30 -3 LINE SMOOTH",
"30 -126 OFFCURVE",
"134 -208 OFFCURVE",
"268 -208 CURVE SMOOTH"
);
},
{
closed = 1;
nodes = (
"173 -136 OFFCURVE",
"110 -85 OFFCURVE",
"110 -5 CURVE SMOOTH",
"110 23 LINE",
"425 23 LINE",
"425 -5 LINE SMOOTH",
"425 -85 OFFCURVE",
"362 -136 OFFCURVE",
"268 -136 CURVE SMOOTH"
);
},
{
closed = 1;
nodes = (
"200 220 OFFCURVE",
"154 263 OFFCURVE",
"154 328 CURVE SMOOTH",
"154 394 OFFCURVE",
"200 435 OFFCURVE",
"266 435 CURVE SMOOTH",
"332 435 OFFCURVE",
"378 394 OFFCURVE",
"378 328 CURVE SMOOTH",
"378 263 OFFCURVE",
"332 220 OFFCURVE",
"266 220 CURVE SMOOTH"
);
}
);
width = 539;
}
);
leftKerningGroup = KO_g;
rightKerningGroup = KO_g;
unicode = 0067;
},
{
glyphname = h;
lastChange = "2023-01-22 14:13:51 +0000";
layers = (
{
anchors = (
{
name = bottom;
position = "{279, 0}";
},
{
name = center;
position = "{279, 400}";
},
{
name = top;
position = "{279, 800}";
}
);
layerId = "E9EF56E4-BA0E-4F86-8263-866E5C5AE35D";
paths = (
{
closed = 1;
nodes = (
"172 0 LINE",
"370 274 LINE",
"370 0 LINE",
"509 0 LINE",
"509 500 LINE",
"387 500 LINE",
"189 226 LINE",
"189 724 LINE",
"49 724 LINE",
"49 0 LINE"
);
}
);
width = 559;
},
{
anchors = (
{
name = bottom;
position = "{284, 0}";
},
{
name = center;
position = "{284, 400}";
},
{
name = top;
position = "{284, 800}";
}
);
layerId = "9744B420-26AC-498D-9016-81F71DDA7C26";
paths = (
{
closed = 1;
nodes = (
"139 0 LINE",
"420 391 LINE",
"420 0 LINE",
"487 0 LINE",
"487 500 LINE",
"428 500 LINE",
"147 109 LINE",
"147 724 LINE",
"81 724 LINE",
"81 0 LINE"
);
}
);
width = 567;
},
{
anchors = (
{
name = bottom;
position = "{283, 0}";
},
{
name = center;
position = "{283, 400}";
},
{
name = top;
position = "{283, 800}";
}
);
layerId = "E61E66CE-5363-4C81-9EFF-07DC28A46654";
paths = (
{
closed = 1;
nodes = (
"146 0 LINE",
"409 367 LINE",
"409 0 LINE",
"491 0 LINE",
"491 500 LINE",
"419 500 LINE",
"156 133 LINE",
"156 724 LINE",
"74 724 LINE",
"74 0 LINE"
);
}
);
width = 565;
}
);
leftKerningGroup = KO_i;
leftMetricsKey = n;
rightKerningGroup = KO_n;
rightMetricsKey = n;
unicode = 0068;
},
{
glyphname = hbar;
lastChange = "2023-01-19 15:31:29 +0000";
layers = (
{
components = (
{
alignment = -1;
name = h;
}
);
layerId = "E9EF56E4-BA0E-4F86-8263-866E5C5AE35D";
paths = (
{
closed = 1;
nodes = (
"-18 548 LINE",
"299 548 LINE",
"299 655 LINE",
"-18 655 LINE"
);
}
);
width = 559;
},
{
components = (
{
alignment = -1;
name = h;
}
);
layerId = "9744B420-26AC-498D-9016-81F71DDA7C26";
paths = (
{
closed = 1;
nodes = (
"-9 573 LINE",
"284 573 LINE",
"284 629 LINE",
"-9 629 LINE"
);
}
);
width = 567;
},
{
components = (
{
alignment = -1;
name = h;
}
);
layerId = "E61E66CE-5363-4C81-9EFF-07DC28A46654";
paths = (
{
closed = 1;
nodes = (
"-11 568 LINE",
"287 568 LINE",
"287 634 LINE",
"-11 634 LINE"
);
}
);
width = 565;
}
);
rightKerningGroup = KO_n;
unicode = 0127;
},
{
glyphname = i;
lastChange = "2023-01-21 14:06:10 +0000";
layers = (
{
anchors = (
{
name = bottom;
position = "{130, 0}";
}
);
layerId = "E9EF56E4-BA0E-4F86-8263-866E5C5AE35D";
paths = (
{
closed = 1;
nodes = (
"49 566 LINE",
"189 566 LINE",
"189 724 LINE",
"49 724 LINE"
);
},
{
closed = 1;
nodes = (
"49 0 LINE",
"189 0 LINE",
"189 500 LINE",
"49 500 LINE"
);
}
);
width = 238;
},
{
anchors = (
{
name = bottom;
position = "{162, 0}";
}
);
layerId = "9744B420-26AC-498D-9016-81F71DDA7C26";
paths = (
{
closed = 1;
nodes = (
"81 575 LINE",
"147 575 LINE",
"147 724 LINE",
"81 724 LINE"
);
},
{
closed = 1;
nodes = (
"81 0 LINE",
"147 0 LINE",
"147 500 LINE",
"81 500 LINE"
);
}
);
width = 228;
},
{
anchors = (
{
name = bottom;
position = "{155, 0}";
}
);
layerId = "E61E66CE-5363-4C81-9EFF-07DC28A46654";
paths = (
{
closed = 1;
nodes = (
"74 573 LINE",
"156 573 LINE",
"156 724 LINE",
"74 724 LINE"
);
},
{
closed = 1;
nodes = (
"74 0 LINE",
"156 0 LINE",
"156 500 LINE",
"74 500 LINE"
);
}
);
width = 230;
}
);
leftKerningGroup = KO_i;
rightKerningGroup = KO_i;
unicode = 0069;
},
{
glyphname = idotless;
lastChange = "2023-01-19 15:31:29 +0000";
layers = (
{
anchors = (
{
name = bottom;
position = "{120, 0}";
},
{
name = ogonek;
position = "{189, 0}";
},
{
name = top;
position = "{120, 500}";
}
);
layerId = "E9EF56E4-BA0E-4F86-8263-866E5C5AE35D";
paths = (
{
closed = 1;
nodes = (
"49 0 LINE",
"189 0 LINE",
"189 500 LINE",
"49 500 LINE"
);
}
);
width = 238;
},
{
anchors = (
{
name = bottom;
position = "{114, 0}";
},
{
name = ogonek;
position = "{147, 0}";
},
{
name = top;
position = "{114, 500}";
}
);
layerId = "9744B420-26AC-498D-9016-81F71DDA7C26";
paths = (
{
closed = 1;
nodes = (
"81 0 LINE",
"147 0 LINE",
"147 500 LINE",
"81 500 LINE"
);
}
);
width = 228;
},
{
anchors = (
{
name = bottom;
position = "{116, 0}";
},
{
name = ogonek;
position = "{156, 0}";
},
{
name = top;
position = "{116, 500}";
}
);
layerId = "E61E66CE-5363-4C81-9EFF-07DC28A46654";
paths = (
{
closed = 1;
nodes = (
"74 0 LINE",
"156 0 LINE",
"156 500 LINE",
"74 500 LINE"
);
}
);
width = 230;
}
);
leftKerningGroup = KO_n;
rightKerningGroup = KO_n;
unicode = 0131;
},
{
glyphname = j;
lastChange = "2023-01-19 15:31:29 +0000";
layers = (
{
layerId = "E9EF56E4-BA0E-4F86-8263-866E5C5AE35D";
paths = (
{
closed = 1;
nodes = (
"50 566 LINE",
"189 566 LINE",
"189 724 LINE",
"50 724 LINE"
);
},
{
closed = 1;
nodes = (
"50 -200 LINE",
"189 -200 LINE",
"189 500 LINE",
"50 500 LINE"
);
}
);
width = 239;
},
{
layerId = "9744B420-26AC-498D-9016-81F71DDA7C26";
paths = (
{
closed = 1;
nodes = (
"83 575 LINE",
"150 575 LINE",
"150 724 LINE",
"83 724 LINE"
);
},
{
closed = 1;
nodes = (
"83 -200 LINE",
"150 -200 LINE",
"150 500 LINE",
"83 500 LINE"
);
}
);
width = 232;
},
{
layerId = "E61E66CE-5363-4C81-9EFF-07DC28A46654";
paths = (
{
closed = 1;
nodes = (
"76 573 LINE",
"158 573 LINE",
"158 724 LINE",
"76 724 LINE"
);
},
{
closed = 1;
nodes = (
"76 -200 LINE",
"158 -200 LINE",
"158 500 LINE",
"76 500 LINE"
);
}
);
width = 234;
}
);
leftKerningGroup = KO_i;
rightKerningGroup = KO_i;
unicode = 006A;
},
{
glyphname = k;
lastChange = "2023-01-21 14:06:10 +0000";
layers = (
{
anchors = (
{
name = bottom;
position = "{283, 0}";
},
{
name = top;
position = "{283, 800}";
}
);
background = {
paths = (
{
closed = 1;
nodes = (
"346 369 LINE SMOOTH",
"379 369 OFFCURVE",
"401 351 OFFCURVE",
"401 318 CURVE SMOOTH",
"401 288 OFFCURVE",
"382 268 OFFCURVE",
"346 268 CURVE SMOOTH",
"172 268 LINE",
"172 166 LINE",
"359 166 LINE SMOOTH",
"475 166 OFFCURVE",
"547 232 OFFCURVE",
"547 333 CURVE SMOOTH",
"547 434 OFFCURVE",
"477 500 OFFCURVE",
"359 500 CURVE SMOOTH",
"176 500 LINE",
"176 384 LINE",
"176 369 LINE"
);
},
{
closed = 1;
nodes = (
"189 0 LINE",
"189 724 LINE",
"50 724 LINE",
"50 0 LINE"
);
},
{
closed = 1;
nodes = (
"553 0 LINE",
"553 11 LINE",
"361 239 LINE",
"243 239 LINE",
"241 173 LINE",
"386 0 LINE"
);
}
);
};
layerId = "E9EF56E4-BA0E-4F86-8263-866E5C5AE35D";
paths = (
{
closed = 1;
nodes = (
"189 0 LINE",
"189 373 LINE",
"341 373 LINE SMOOTH",
"380 373 OFFCURVE",
"401 354 OFFCURVE",
"401 320 CURVE SMOOTH",
"401 288 OFFCURVE",
"381 267 OFFCURVE",
"341 267 CURVE SMOOTH",
"173 267 LINE",
"173 155 LINE",
"256 155 LINE",
"386 0 LINE",
"553 0 LINE",
"553 11 LINE",
"418 171 LINE",
"497 192 OFFCURVE",
"547 252 OFFCURVE",
"547 329 CURVE SMOOTH",
"547 432 OFFCURVE",
"478 500 OFFCURVE",
"373 500 CURVE SMOOTH",
"189 500 LINE",
"189 724 LINE",
"50 724 LINE",
"50 0 LINE"
);
}
);
width = 572;
},
{
anchors = (
{
name = bottom;
position = "{253, 0}";
},
{
name = top;
position = "{253, 800}";
}
);
layerId = "9744B420-26AC-498D-9016-81F71DDA7C26";
paths = (
{
closed = 1;
nodes = (
"150 0 LINE",
"150 438 LINE",
"333 438 LINE SMOOTH",
"396 438 OFFCURVE",
"438 403 OFFCURVE",
"438 343 CURVE SMOOTH",
"438 287 OFFCURVE",
"401 251 OFFCURVE",
"333 251 CURVE SMOOTH",
"135 251 LINE",
"135 191 LINE",
"261 191 LINE",
"424 0 LINE",
"507 0 LINE",
"507 7 LINE",
"350 192 LINE",
"447 199 OFFCURVE",
"508 257 OFFCURVE",
"508 348 CURVE SMOOTH",
"508 440 OFFCURVE",
"446 500 OFFCURVE",
"331 500 CURVE SMOOTH",
"150 500 LINE",
"150 724 LINE",
"83 724 LINE",
"83 0 LINE"
);
}
);
width = 544;
},
{
anchors = (
{
name = bottom;
position = "{259, 0}";
},
{
name = top;
position = "{259, 800}";
}
);
layerId = "E61E66CE-5363-4C81-9EFF-07DC28A46654";
paths = (
{
closed = 1;
nodes = (
"158 0 LINE",
"158 424 LINE",
"335 424 LINE SMOOTH",
"392 424 OFFCURVE",
"431 393 OFFCURVE",
"431 338 CURVE SMOOTH",
"431 287 OFFCURVE",
"397 255 OFFCURVE",
"335 255 CURVE SMOOTH",
"142 255 LINE",
"142 186 LINE",
"259 186 LINE",
"417 0 LINE",
"516 0 LINE",
"516 7 LINE",
"364 187 LINE",
"458 197 OFFCURVE",
"516 256 OFFCURVE",
"516 345 CURVE SMOOTH",
"516 438 OFFCURVE",
"452 500 OFFCURVE",
"336 500 CURVE SMOOTH",
"158 500 LINE",
"158 724 LINE",
"76 724 LINE",
"76 0 LINE"
);
}
);
width = 549;
}
);
leftKerningGroup = KO_i;
leftMetricsKey = l;
rightKerningGroup = KO_k;
unicode = 006B;
},
{
glyphname = l;
lastChange = "2023-01-22 17:01:56 +0000";
layers = (
{
anchors = (
{
name = bottom;
position = "{120, 0}";
},
{
name = center;
position = "{132, 400}";
},
{
name = top;
position = "{120, 724}";
},
{
name = topright;
position = "{260, 724}";
}
);
layerId = "E9EF56E4-BA0E-4F86-8263-866E5C5AE35D";
paths = (
{
closed = 1;
nodes = (
"189 0 LINE",
"189 724 LINE",
"50 724 LINE",
"50 0 LINE"
);
}
);
width = 239;
},
{
anchors = (
{
name = bottom;
position = "{117, 0}";
},
{
name = center;
position = "{167, 400}";
},
{
name = top;
position = "{117, 724}";
},
{
name = topright;
position = "{231, 724}";
}
);
layerId = "9744B420-26AC-498D-9016-81F71DDA7C26";
paths = (
{
closed = 1;
nodes = (
"150 0 LINE",
"150 724 LINE",
"83 724 LINE",
"83 0 LINE"
);
}
);
width = 232;
},
{
anchors = (
{
name = bottom;
position = "{117, 0}";
},
{
name = center;
position = "{160, 400}";
},
{
name = top;
position = "{117, 724}";
},
{
name = topright;
position = "{234, 724}";
}
);
layerId = "E61E66CE-5363-4C81-9EFF-07DC28A46654";
paths = (
{
closed = 1;
nodes = (
"158 0 LINE",
"158 724 LINE",
"76 724 LINE",
"76 0 LINE"
);
}
);
width = 234;
}
);
leftKerningGroup = KO_i;
rightKerningGroup = KO_i;
unicode = 006C;
userData = {
KernOnName = l;
};
},
{
glyphname = lslash;
lastChange = "2023-01-19 15:31:29 +0000";
layers = (
{
components = (
{
alignment = -1;
name = l;
}
);
layerId = "E9EF56E4-BA0E-4F86-8263-866E5C5AE35D";
paths = (
{
closed = 1;
nodes = (
"-9 326 LINE",
"249 359 LINE",
"249 479 LINE",
"-9 446 LINE"
);
}
);
width = 239;
},
{
components = (
{
alignment = -1;
name = l;
}
);
layerId = "9744B420-26AC-498D-9016-81F71DDA7C26";
paths = (
{
closed = 1;
nodes = (
"26 376 LINE",
"206 400 LINE",
"206 458 LINE",
"26 434 LINE"
);
}
);
width = 232;
},
{
components = (
{
alignment = -1;
name = l;
}
);
layerId = "E61E66CE-5363-4C81-9EFF-07DC28A46654";
paths = (
{
closed = 1;
nodes = (
"19 366 LINE",
"215 391 LINE",
"215 462 LINE",
"19 436 LINE"
);
}
);
width = 234;
}
);
leftKerningGroup = KO_lslash;
unicode = 0142;
},
{
glyphname = m;
lastChange = "2023-01-19 15:32:51 +0000";
layers = (
{
anchors = (
{
name = bottom;
position = "{410, 0}";
},
{
name = top;
position = "{410, 500}";
}
);
layerId = "E9EF56E4-BA0E-4F86-8263-866E5C5AE35D";
paths = (
{
closed = 1;
nodes = (
"172 0 LINE",
"340 272 LINE",
"340 0 LINE",
"462 0 LINE",
"636 272 LINE",
"636 0 LINE",
"776 0 LINE",
"776 500 LINE",
"654 500 LINE",
"479 228 LINE",
"479 500 LINE",
"357 500 LINE",
"189 228 LINE",
"189 500 LINE",
"49 500 LINE",
"49 0 LINE"
);
}
);
width = 826;
},
{
anchors = (
{
name = bottom;
position = "{390, 0}";
},
{
name = top;
position = "{390, 500}";
}
);
layerId = "9744B420-26AC-498D-9016-81F71DDA7C26";
paths = (
{
closed = 1;
nodes = (
"139 0 LINE",
"356 382 LINE",
"356 0 LINE",
"415 0 LINE",
"656 382 LINE",
"656 0 LINE",
"723 0 LINE",
"723 500 LINE",
"665 500 LINE",
"423 118 LINE",
"423 500 LINE",
"364 500 LINE",
"148 120 LINE",
"148 500 LINE",
"81 500 LINE",
"81 0 LINE"
);
}
);
width = 803;
},
{
anchors = (
{
name = bottom;
position = "{394, 0}";
},
{
name = top;
position = "{394, 500}";
}
);
layerId = "E61E66CE-5363-4C81-9EFF-07DC28A46654";
paths = (
{
closed = 1;
nodes = (
"146 0 LINE",
"353 360 LINE",
"353 0 LINE",
"424 0 LINE",
"652 360 LINE",
"652 0 LINE",
"734 0 LINE",
"734 500 LINE",
"663 500 LINE",
"434 140 LINE",
"434 500 LINE",
"362 500 LINE",
"156 140 LINE",
"156 500 LINE",
"74 500 LINE",
"74 0 LINE"
);
}
);
width = 808;
}
);
leftKerningGroup = KO_n;
leftMetricsKey = n;
rightKerningGroup = KO_n;
rightMetricsKey = n;
unicode = 006D;
},
{
glyphname = n;
lastChange = "2023-01-22 17:01:56 +0000";
layers = (
{
anchors = (
{
name = bottom;
position = "{279, 0}";
},
{
name = top;
position = "{279, 500}";
}
);
layerId = "E9EF56E4-BA0E-4F86-8263-866E5C5AE35D";
paths = (
{
closed = 1;
nodes = (
"172 0 LINE",
"370 274 LINE",
"370 0 LINE",
"509 0 LINE",
"509 500 LINE",
"387 500 LINE",
"189 226 LINE",
"189 500 LINE",
"49 500 LINE",
"49 0 LINE"
);
}
);
width = 559;
},
{
anchors = (
{
name = bottom;
position = "{284, 0}";
},
{
name = top;
position = "{284, 500}";
}
);
layerId = "9744B420-26AC-498D-9016-81F71DDA7C26";
paths = (
{
closed = 1;
nodes = (
"139 0 LINE",
"420 391 LINE",
"420 0 LINE",
"487 0 LINE",
"487 500 LINE",
"428 500 LINE",
"147 109 LINE",
"147 500 LINE",
"81 500 LINE",
"81 0 LINE"
);
}
);
width = 567;
},
{
anchors = (
{
name = bottom;
position = "{283, 0}";
},
{
name = top;
position = "{283, 500}";
}
);
layerId = "E61E66CE-5363-4C81-9EFF-07DC28A46654";
paths = (
{
closed = 1;
nodes = (
"146 0 LINE",
"409 367 LINE",
"409 0 LINE",
"491 0 LINE",
"491 500 LINE",
"419 500 LINE",
"156 133 LINE",
"156 500 LINE",
"74 500 LINE",
"74 0 LINE"
);
}
);
width = 565;
}
);
leftKerningGroup = KO_n;
rightKerningGroup = KO_n;
unicode = 006E;
userData = {
KernOnName = n;
};
},
{
glyphname = eng;
lastChange = "2023-01-19 15:31:29 +0000";
layers = (
{
layerId = "E9EF56E4-BA0E-4F86-8263-866E5C5AE35D";
paths = (
{
closed = 1;
nodes = (
"172 0 LINE",
"370 274 LINE",
"370 52 LINE",
"509 52 LINE",
"509 500 LINE",
"387 500 LINE",
"189 226 LINE",
"189 500 LINE",
"49 500 LINE",
"49 0 LINE"
);
},
{
closed = 1;
nodes = (
"397 -200 LINE SMOOTH",
"464 -200 OFFCURVE",
"509 -155 OFFCURVE",
"509 -87 CURVE SMOOTH",
"509 52 LINE",
"370 52 LINE",
"370 -69 LINE",
"244 -69 LINE",
"244 -200 LINE"
);
}
);
width = 559;
},
{
layerId = "9744B420-26AC-498D-9016-81F71DDA7C26";
paths = (
{
closed = 1;
nodes = (
"139 0 LINE",
"420 391 LINE",
"420 23 LINE",
"487 23 LINE",
"487 500 LINE",
"428 500 LINE",
"147 109 LINE",
"147 500 LINE",
"81 500 LINE",
"81 0 LINE"
);
},
{
closed = 1;
nodes = (
"432 -200 LINE SMOOTH",
"465 -200 OFFCURVE",
"487 -179 OFFCURVE",
"487 -146 CURVE SMOOTH",
"487 23 LINE",
"420 23 LINE",
"420 -138 LINE",
"280 -138 LINE",
"280 -200 LINE"
);
}
);
width = 567;
},
{
layerId = "E61E66CE-5363-4C81-9EFF-07DC28A46654";
paths = (
{
closed = 1;
nodes = (
"146 0 LINE",
"409 367 LINE",
"409 29 LINE",
"491 29 LINE",
"491 500 LINE",
"419 500 LINE",
"156 133 LINE",
"156 500 LINE",
"74 500 LINE",
"74 0 LINE"
);
},
{
closed = 1;
nodes = (
"425 -200 LINE SMOOTH",
"465 -200 OFFCURVE",
"491 -174 OFFCURVE",
"491 -134 CURVE SMOOTH",
"491 29 LINE",
"409 29 LINE",
"409 -124 LINE",
"273 -124 LINE",
"273 -200 LINE"
);
}
);
width = 565;
}
);
leftKerningGroup = KO_n;
leftMetricsKey = n;
rightKerningGroup = KO_y;
rightMetricsKey = n;
unicode = 014B;
},
{
glyphname = o;
lastChange = "2023-01-22 17:01:56 +0000";
layers = (
{
anchors = (
{
name = bottom;
position = "{295, 0}";
},
{
name = center;
position = "{295, 250}";
},
{
name = ogonek;
position = "{523, 10}";
},
{
name = top;
position = "{295, 500}";
},
{
name = topright;
position = "{560, 500}";
}
);
layerId = "E9EF56E4-BA0E-4F86-8263-866E5C5AE35D";
paths = (
{
closed = 1;
nodes = (
"25 96 OFFCURVE",
"139 -8 OFFCURVE",
"295 -8 CURVE SMOOTH",
"451 -8 OFFCURVE",
"565 96 OFFCURVE",
"565 250 CURVE SMOOTH",
"565 404 OFFCURVE",
"451 508 OFFCURVE",
"295 508 CURVE SMOOTH",
"139 508 OFFCURVE",
"25 404 OFFCURVE",
"25 250 CURVE SMOOTH"
);
},
{
closed = 1;
nodes = (
"171 331 OFFCURVE",
"221 379 OFFCURVE",
"295 379 CURVE SMOOTH",
"369 379 OFFCURVE",
"419 331 OFFCURVE",
"419 250 CURVE SMOOTH",
"419 170 OFFCURVE",
"369 121 OFFCURVE",
"295 121 CURVE SMOOTH",
"221 121 OFFCURVE",
"171 170 OFFCURVE",
"171 250 CURVE SMOOTH"
);
}
);
width = 590;
},
{
anchors = (
{
name = bottom;
position = "{310, 0}";
},
{
name = center;
position = "{310, 250}";
},
{
name = ogonek;
position = "{538, 10}";
},
{
name = top;
position = "{310, 500}";
},
{
name = topright;
position = "{575, 500}";
}
);
layerId = "9744B420-26AC-498D-9016-81F71DDA7C26";
paths = (
{
closed = 1;
nodes = (
"40 98 OFFCURVE",
"151 -6 OFFCURVE",
"307 -6 CURVE SMOOTH",
"465 -6 OFFCURVE",
"576 98 OFFCURVE",
"576 250 CURVE SMOOTH",
"576 402 OFFCURVE",
"465 506 OFFCURVE",
"307 506 CURVE SMOOTH",
"151 506 OFFCURVE",
"40 402 OFFCURVE",
"40 250 CURVE SMOOTH"
);
},
{
closed = 1;
nodes = (
"109 366 OFFCURVE",
"191 444 OFFCURVE",
"307 444 CURVE SMOOTH",
"425 444 OFFCURVE",
"507 366 OFFCURVE",
"507 250 CURVE SMOOTH",
"507 134 OFFCURVE",
"425 56 OFFCURVE",
"307 56 CURVE SMOOTH",
"191 56 OFFCURVE",
"109 134 OFFCURVE",
"109 250 CURVE SMOOTH"
);
}
);
width = 616;
},
{
anchors = (
{
name = bottom;
position = "{307, 0}";
},
{
name = center;
position = "{307, 250}";
},
{
name = ogonek;
position = "{535, 10}";
},
{
name = top;
position = "{307, 500}";
},
{
name = topright;
position = "{572, 500}";
}
);
layerId = "E61E66CE-5363-4C81-9EFF-07DC28A46654";
paths = (
{
closed = 1;
nodes = (
"37 98 OFFCURVE",
"149 -6 OFFCURVE",
"305 -6 CURVE SMOOTH",
"462 -6 OFFCURVE",
"574 98 OFFCURVE",
"574 250 CURVE SMOOTH",
"574 402 OFFCURVE",
"462 506 OFFCURVE",
"305 506 CURVE SMOOTH",
"149 506 OFFCURVE",
"37 402 OFFCURVE",
"37 250 CURVE SMOOTH"
);
},
{
closed = 1;
nodes = (
"121 359 OFFCURVE",
"197 431 OFFCURVE",
"305 431 CURVE SMOOTH",
"414 431 OFFCURVE",
"489 359 OFFCURVE",
"489 250 CURVE SMOOTH",
"489 141 OFFCURVE",
"414 69 OFFCURVE",
"305 69 CURVE SMOOTH",
"197 69 OFFCURVE",
"121 141 OFFCURVE",
"121 250 CURVE SMOOTH"
);
}
);
width = 611;
}
);
leftKerningGroup = KO_e;
rightKerningGroup = KO_o;
unicode = 006F;
userData = {
KernOnName = o;
};
},
{
glyphname = p;
lastChange = "2023-01-21 14:06:10 +0000";
layers = (
{
layerId = "E9EF56E4-BA0E-4F86-8263-866E5C5AE35D";
paths = (
{
closed = 1;
nodes = (
"278 0 LINE SMOOTH",
"433 0 OFFCURVE",
"536 100 OFFCURVE",
"536 250 CURVE SMOOTH",
"536 400 OFFCURVE",
"433 500 OFFCURVE",
"278 500 CURVE SMOOTH",
"50 500 LINE",
"50 -200 LINE",
"189 -200 LINE",
"189 414 LINE",
"144 369 LINE",
"269 369 LINE SMOOTH",
"341 369 OFFCURVE",
"390 328 OFFCURVE",
"390 250 CURVE SMOOTH",
"390 179 OFFCURVE",
"348 131 OFFCURVE",
"269 131 CURVE SMOOTH",
"173 131 LINE",
"173 0 LINE"
);
}
);
width = 561;
},
{
layerId = "9744B420-26AC-498D-9016-81F71DDA7C26";
paths = (
{
closed = 1;
nodes = (
"256 0 LINE SMOOTH",
"412 0 OFFCURVE",
"516 100 OFFCURVE",
"516 250 CURVE SMOOTH",
"516 400 OFFCURVE",
"412 500 OFFCURVE",
"256 500 CURVE SMOOTH",
"83 500 LINE",
"83 -200 LINE",
"150 -200 LINE",
"150 483 LINE",
"105 438 LINE",
"252 438 LINE SMOOTH",
"368 438 OFFCURVE",
"446 365 OFFCURVE",
"446 250 CURVE SMOOTH",
"446 137 OFFCURVE",
"372 62 OFFCURVE",
"252 62 CURVE SMOOTH",
"134 62 LINE",
"134 0 LINE"
);
}
);
width = 555;
},
{
layerId = "E61E66CE-5363-4C81-9EFF-07DC28A46654";
paths = (
{
closed = 1;
nodes = (
"260 0 LINE SMOOTH",
"416 0 OFFCURVE",
"520 100 OFFCURVE",
"520 250 CURVE SMOOTH",
"520 400 OFFCURVE",
"416 500 OFFCURVE",
"260 500 CURVE SMOOTH",
"76 500 LINE",
"76 -200 LINE",
"158 -200 LINE",
"158 469 LINE",
"113 424 LINE",
"256 424 LINE SMOOTH",
"363 424 OFFCURVE",
"435 358 OFFCURVE",
"435 250 CURVE SMOOTH",
"435 146 OFFCURVE",
"367 76 OFFCURVE",
"256 76 CURVE SMOOTH",
"142 76 LINE",
"142 0 LINE"
);
}
);
width = 557;
}
);
leftKerningGroup = KO_n;
rightKerningGroup = KO_o;
unicode = 0070;
},
{
glyphname = thorn;
lastChange = "2023-01-20 14:23:50 +0000";
layers = (
{
layerId = "E9EF56E4-BA0E-4F86-8263-866E5C5AE35D";
paths = (
{
closed = 1;
nodes = (
"278 0 LINE SMOOTH",
"433 0 OFFCURVE",
"536 100 OFFCURVE",
"536 250 CURVE SMOOTH",
"536 400 OFFCURVE",
"433 500 OFFCURVE",
"278 500 CURVE SMOOTH",
"173 500 LINE",
"173 369 LINE",
"269 369 LINE SMOOTH",
"341 369 OFFCURVE",
"390 328 OFFCURVE",
"390 250 CURVE SMOOTH",
"390 179 OFFCURVE",
"348 131 OFFCURVE",
"269 131 CURVE SMOOTH",
"173 131 LINE",
"173 0 LINE"
);
},
{
closed = 1;
nodes = (
"189 -200 LINE",
"189 724 LINE",
"50 724 LINE",
"50 -200 LINE"
);
}
);
width = 561;
},
{
layerId = "9744B420-26AC-498D-9016-81F71DDA7C26";
paths = (
{
closed = 1;
nodes = (
"256 0 LINE SMOOTH",
"412 0 OFFCURVE",
"516 100 OFFCURVE",
"516 250 CURVE SMOOTH",
"516 400 OFFCURVE",
"412 500 OFFCURVE",
"256 500 CURVE SMOOTH",
"128 500 LINE",
"128 438 LINE",
"252 438 LINE SMOOTH",
"368 438 OFFCURVE",
"446 365 OFFCURVE",
"446 250 CURVE SMOOTH",
"446 137 OFFCURVE",
"372 62 OFFCURVE",
"252 62 CURVE SMOOTH",
"128 62 LINE",
"128 0 LINE"
);
},
{
closed = 1;
nodes = (
"150 -200 LINE",
"150 724 LINE",
"83 724 LINE",
"83 -200 LINE"
);
}
);
width = 555;
},
{
layerId = "E61E66CE-5363-4C81-9EFF-07DC28A46654";
paths = (
{
closed = 1;
nodes = (
"260 0 LINE SMOOTH",
"416 0 OFFCURVE",
"520 100 OFFCURVE",
"520 250 CURVE SMOOTH",
"520 400 OFFCURVE",
"416 500 OFFCURVE",
"260 500 CURVE SMOOTH",
"132 500 LINE",
"132 424 LINE",
"256 424 LINE SMOOTH",
"363 424 OFFCURVE",
"435 358 OFFCURVE",
"435 250 CURVE SMOOTH",
"435 146 OFFCURVE",
"367 76 OFFCURVE",
"256 76 CURVE SMOOTH",
"132 76 LINE",
"132 0 LINE"
);
},
{
closed = 1;
nodes = (
"158 -200 LINE",
"158 724 LINE",
"76 724 LINE",
"76 -200 LINE"
);
}
);
width = 557;
}
);
leftKerningGroup = KO_i;
leftMetricsKey = b;
rightKerningGroup = KO_o;
rightMetricsKey = p;
unicode = 00FE;
},
{
glyphname = q;
lastChange = "2023-01-19 15:31:29 +0000";
layers = (
{
layerId = "E9EF56E4-BA0E-4F86-8263-866E5C5AE35D";
paths = (
{
closed = 1;
nodes = (
"512 -200 LINE",
"512 500 LINE",
"284 500 LINE SMOOTH",
"129 500 OFFCURVE",
"25 400 OFFCURVE",
"25 250 CURVE SMOOTH",
"25 100 OFFCURVE",
"129 0 OFFCURVE",
"284 0 CURVE SMOOTH",
"388 0 LINE",
"388 131 LINE",
"293 131 LINE SMOOTH",
"214 131 OFFCURVE",
"172 179 OFFCURVE",
"172 250 CURVE SMOOTH",
"172 328 OFFCURVE",
"220 369 OFFCURVE",
"293 369 CURVE SMOOTH",
"417 369 LINE",
"372 414 LINE",
"372 -200 LINE"
);
}
);
width = 561;
},
{
layerId = "9744B420-26AC-498D-9016-81F71DDA7C26";
paths = (
{
closed = 1;
nodes = (
"473 -200 LINE",
"473 500 LINE",
"300 500 LINE SMOOTH",
"144 500 OFFCURVE",
"40 400 OFFCURVE",
"40 250 CURVE SMOOTH",
"40 100 OFFCURVE",
"144 0 OFFCURVE",
"300 0 CURVE SMOOTH",
"422 0 LINE",
"422 62 LINE",
"304 62 LINE SMOOTH",
"185 62 OFFCURVE",
"109 137 OFFCURVE",
"109 250 CURVE SMOOTH",
"109 365 OFFCURVE",
"187 438 OFFCURVE",
"304 438 CURVE SMOOTH",
"451 438 LINE",
"406 483 LINE",
"406 -200 LINE"
);
}
);
width = 555;
},
{
layerId = "E61E66CE-5363-4C81-9EFF-07DC28A46654";
paths = (
{
closed = 1;
nodes = (
"481 -200 LINE",
"481 500 LINE",
"297 500 LINE SMOOTH",
"141 500 OFFCURVE",
"37 400 OFFCURVE",
"37 250 CURVE SMOOTH",
"37 100 OFFCURVE",
"141 0 OFFCURVE",
"297 0 CURVE SMOOTH",
"415 0 LINE",
"415 76 LINE",
"302 76 LINE SMOOTH",
"191 76 OFFCURVE",
"122 146 OFFCURVE",
"122 250 CURVE SMOOTH",
"122 358 OFFCURVE",
"194 424 OFFCURVE",
"302 424 CURVE SMOOTH",
"444 424 LINE",
"399 469 LINE",
"399 -200 LINE"
);
}
);
width = 557;
}
);
leftKerningGroup = KO_e;
rightKerningGroup = KO_y;
unicode = 0071;
},
{
glyphname = r;
lastChange = "2023-01-21 14:06:10 +0000";
layers = (
{
anchors = (
{
name = bottom;
position = "{120, 0}";
},
{
name = top;
position = "{219, 500}";
}
);
layerId = "E9EF56E4-BA0E-4F86-8263-866E5C5AE35D";
paths = (
{
closed = 1;
nodes = (
"189 0 LINE",
"189 369 LINE",
"389 369 LINE",
"389 500 LINE",
"163 500 LINE SMOOTH",
"95 500 OFFCURVE",
"50 455 OFFCURVE",
"50 387 CURVE SMOOTH",
"50 0 LINE"
);
}
);
width = 410;
},
{
anchors = (
{
name = bottom;
position = "{118, 0}";
},
{
name = top;
position = "{224, 500}";
}
);
layerId = "9744B420-26AC-498D-9016-81F71DDA7C26";
paths = (
{
closed = 1;
nodes = (
"150 0 LINE",
"150 438 LINE",
"363 438 LINE",
"363 500 LINE",
"138 500 LINE SMOOTH",
"104 500 OFFCURVE",
"83 479 OFFCURVE",
"83 446 CURVE SMOOTH",
"83 0 LINE"
);
}
);
width = 388;
},
{
anchors = (
{
name = bottom;
position = "{118, 0}";
},
{
name = top;
position = "{223, 500}";
}
);
layerId = "E61E66CE-5363-4C81-9EFF-07DC28A46654";
paths = (
{
closed = 1;
nodes = (
"158 0 LINE",
"158 424 LINE",
"368 424 LINE",
"368 500 LINE",
"143 500 LINE SMOOTH",
"102 500 OFFCURVE",
"76 474 OFFCURVE",
"76 434 CURVE SMOOTH",
"76 0 LINE"
);
}
);
width = 392;
}
);
leftKerningGroup = KO_r;
leftMetricsKey = l;
rightKerningGroup = KO_r;
unicode = 0072;
},
{
glyphname = s;
lastChange = "2023-01-22 17:01:56 +0000";
layers = (
{
anchors = (
{
name = bottom;
position = "{167, 0}";
},
{
name = top;
position = "{277, 500}";
}
);
layerId = "E9EF56E4-BA0E-4F86-8263-866E5C5AE35D";
paths = (
{
closed = 1;
nodes = (
"235 0 LINE SMOOTH",
"303 0 OFFCURVE",
"348 45 OFFCURVE",
"348 113 CURVE SMOOTH",
"348 369 LINE",
"532 369 LINE",
"532 500 LINE",
"208 500 LINE",
"208 131 LINE",
"21 131 LINE",
"21 0 LINE"
);
}
);
width = 553;
},
{
anchors = (
{
name = bottom;
position = "{169, 0}";
},
{
name = top;
position = "{279, 500}";
}
);
layerId = "9744B420-26AC-498D-9016-81F71DDA7C26";
paths = (
{
closed = 1;
nodes = (
"264 0 LINE SMOOTH",
"297 0 OFFCURVE",
"319 21 OFFCURVE",
"319 55 CURVE SMOOTH",
"319 438 LINE",
"534 438 LINE",
"534 500 LINE",
"253 500 LINE",
"253 62 LINE",
"24 62 LINE",
"24 0 LINE"
);
}
);
width = 559;
},
{
anchors = (
{
name = bottom;
position = "{169, 0}";
},
{
name = top;
position = "{279, 500}";
}
);
layerId = "E61E66CE-5363-4C81-9EFF-07DC28A46654";
paths = (
{
closed = 1;
nodes = (
"258 0 LINE SMOOTH",
"299 0 OFFCURVE",
"325 26 OFFCURVE",
"325 66 CURVE SMOOTH",
"325 424 LINE",
"534 424 LINE",
"534 500 LINE",
"244 500 LINE",
"244 76 LINE",
"24 76 LINE",
"24 0 LINE"
);
}
);
width = 557;
}
);
leftKerningGroup = KO_s;
rightKerningGroup = KO_r;
unicode = 0073;
userData = {
KernOnName = s;
};
},
{
glyphname = germandbls;
lastChange = "2023-01-19 15:31:29 +0000";
layers = (
{
layerId = "E9EF56E4-BA0E-4F86-8263-866E5C5AE35D";
paths = (
{
closed = 1;
nodes = (
"416 0 LINE SMOOTH",
"548 0 OFFCURVE",
"651 77 OFFCURVE",
"651 200 CURVE SMOOTH",
"651 318 OFFCURVE",
"575 392 OFFCURVE",
"464 392 CURVE",
"473 360 LINE",
"554 376 OFFCURVE",
"606 444 OFFCURVE",
"606 528 CURVE SMOOTH",
"606 652 OFFCURVE",
"509 731 OFFCURVE",
"370 731 CURVE SMOOTH",
"214 731 OFFCURVE",
"113 636 OFFCURVE",
"113 495 CURVE SMOOTH",
"113 -200 LINE",
"253 -200 LINE",
"253 492 LINE SMOOTH",
"253 560 OFFCURVE",
"296 605 OFFCURVE",
"366 605 CURVE SMOOTH",
"428 605 OFFCURVE",
"467 569 OFFCURVE",
"467 513 CURVE SMOOTH",
"467 461 OFFCURVE",
"427 423 OFFCURVE",
"369 423 CURVE SMOOTH",
"329 423 LINE",
"329 307 LINE",
"406 307 LINE SMOOTH",
"468 307 OFFCURVE",
"504 272 OFFCURVE",
"504 218 CURVE SMOOTH",
"504 159 OFFCURVE",
"459 125 OFFCURVE",
"394 125 CURVE SMOOTH",
"322 125 LINE",
"322 0 LINE"
);
},
{
closed = 1;
nodes = (
"203 369 LINE",
"203 500 LINE",
"21 500 LINE",
"21 369 LINE"
);
}
);
width = 675;
},
{
layerId = "9744B420-26AC-498D-9016-81F71DDA7C26";
paths = (
{
closed = 1;
nodes = (
"418 0 LINE SMOOTH",
"545 0 OFFCURVE",
"644 78 OFFCURVE",
"644 200 CURVE SMOOTH",
"644 300 OFFCURVE",
"580 374 OFFCURVE",
"494 385 CURVE",
"494 375 LINE",
"563 396 OFFCURVE",
"608 462 OFFCURVE",
"608 536 CURVE SMOOTH",
"608 661 OFFCURVE",
"517 732 OFFCURVE",
"395 732 CURVE SMOOTH",
"257 732 OFFCURVE",
"158 642 OFFCURVE",
"158 506 CURVE SMOOTH",
"158 -200 LINE",
"229 -200 LINE",
"229 507 LINE SMOOTH",
"229 603 OFFCURVE",
"299 668 OFFCURVE",
"392 668 CURVE SMOOTH",
"481 668 OFFCURVE",
"539 617 OFFCURVE",
"539 538 CURVE SMOOTH",
"539 463 OFFCURVE",
"488 407 OFFCURVE",
"394 407 CURVE SMOOTH",
"339 407 LINE",
"339 334 LINE",
"433 334 LINE SMOOTH",
"507 334 OFFCURVE",
"573 290 OFFCURVE",
"573 199 CURVE SMOOTH",
"573 112 OFFCURVE",
"506 64 OFFCURVE",
"414 64 CURVE SMOOTH",
"324 64 LINE",
"324 0 LINE"
);
},
{
closed = 1;
nodes = (
"210 438 LINE",
"210 500 LINE",
"23 500 LINE",
"23 438 LINE"
);
}
);
width = 685;
},
{
layerId = "E61E66CE-5363-4C81-9EFF-07DC28A46654";
paths = (
{
closed = 1;
nodes = (
"418 0 LINE SMOOTH",
"545 0 OFFCURVE",
"646 78 OFFCURVE",
"646 200 CURVE SMOOTH",
"646 304 OFFCURVE",
"579 378 OFFCURVE",
"488 387 CURVE",
"490 372 LINE",
"561 392 OFFCURVE",
"608 459 OFFCURVE",
"608 534 CURVE SMOOTH",
"608 659 OFFCURVE",
"515 732 OFFCURVE",
"390 732 CURVE SMOOTH",
"248 732 OFFCURVE",
"149 640 OFFCURVE",
"149 504 CURVE SMOOTH",
"149 -200 LINE",
"234 -200 LINE",
"234 504 LINE SMOOTH",
"234 594 OFFCURVE",
"299 655 OFFCURVE",
"387 655 CURVE SMOOTH",
"470 655 OFFCURVE",
"525 608 OFFCURVE",
"525 533 CURVE SMOOTH",
"525 463 OFFCURVE",
"476 410 OFFCURVE",
"389 410 CURVE SMOOTH",
"337 410 LINE",
"337 329 LINE",
"428 329 LINE SMOOTH",
"499 329 OFFCURVE",
"559 287 OFFCURVE",
"559 203 CURVE SMOOTH",
"559 121 OFFCURVE",
"497 76 OFFCURVE",
"410 76 CURVE SMOOTH",
"324 76 LINE",
"324 0 LINE"
);
},
{
closed = 1;
nodes = (
"208 424 LINE",
"208 500 LINE",
"23 500 LINE",
"23 424 LINE"
);
}
);
width = 683;
}
);
leftKerningGroup = KO_t;
leftMetricsKey = t;
unicode = 00DF;
},
{
glyphname = t;
lastChange = "2023-01-21 14:06:10 +0000";
layers = (
{
anchors = (
{
name = bottom;
position = "{287, 0}";
},
{
name = center;
position = "{221, 250}";
},
{
name = top;
position = "{207, 667}";
},
{
name = topright;
position = "{427, 500}";
}
);
layerId = "E9EF56E4-BA0E-4F86-8263-866E5C5AE35D";
paths = (
{
closed = 1;
nodes = (
"423 0 LINE",
"423 131 LINE",
"276 131 LINE",
"276 667 LINE",
"137 667 LINE",
"137 113 LINE SMOOTH",
"137 45 OFFCURVE",
"182 0 OFFCURVE",
"250 0 CURVE SMOOTH"
);
},
{
closed = 1;
nodes = (
"423 369 LINE",
"423 500 LINE",
"21 500 LINE",
"21 369 LINE"
);
}
);
width = 455;
},
{
anchors = (
{
name = bottom;
position = "{268, 0}";
},
{
name = center;
position = "{204, 250}";
},
{
name = top;
position = "{190, 667}";
},
{
name = topright;
position = "{410, 500}";
}
);
layerId = "9744B420-26AC-498D-9016-81F71DDA7C26";
paths = (
{
closed = 1;
nodes = (
"390 0 LINE",
"390 62 LINE",
"222 62 LINE",
"222 667 LINE",
"155 667 LINE",
"155 55 LINE SMOOTH",
"155 21 OFFCURVE",
"176 0 OFFCURVE",
"211 0 CURVE SMOOTH"
);
},
{
closed = 1;
nodes = (
"390 438 LINE",
"390 500 LINE",
"23 500 LINE",
"23 438 LINE"
);
}
);
width = 433;
},
{
anchors = (
{
name = bottom;
position = "{272, 0}";
},
{
name = center;
position = "{208, 250}";
},
{
name = top;
position = "{193, 667}";
},
{
name = topright;
position = "{414, 500}";
}
);
layerId = "E61E66CE-5363-4C81-9EFF-07DC28A46654";
paths = (
{
closed = 1;
nodes = (
"397 0 LINE",
"397 76 LINE",
"233 76 LINE",
"233 667 LINE",
"152 667 LINE",
"152 66 LINE SMOOTH",
"152 26 OFFCURVE",
"178 0 OFFCURVE",
"219 0 CURVE SMOOTH"
);
},
{
closed = 1;
nodes = (
"397 424 LINE",
"397 500 LINE",
"23 500 LINE",
"23 424 LINE"
);
}
);
width = 437;
}
);
leftKerningGroup = KO_t;
rightKerningGroup = KO_t;
unicode = 0074;
},
{
glyphname = tbar;
lastChange = "2023-01-19 15:31:29 +0000";
layers = (
{
components = (
{
alignment = -1;
name = t;
transform = "{1, 0, 0, 1, 12, 0}";
}
);
layerId = "E9EF56E4-BA0E-4F86-8263-866E5C5AE35D";
paths = (
{
closed = 1;
nodes = (
"433 205 LINE",
"433 308 LINE",
"32 308 LINE",
"32 205 LINE"
);
}
);
width = 477;
},
{
components = (
{
alignment = -1;
name = t;
transform = "{1, 0, 0, 1, 20, 0}";
}
);
layerId = "9744B420-26AC-498D-9016-81F71DDA7C26";
paths = (
{
closed = 1;
nodes = (
"407 247 LINE",
"407 308 LINE",
"40 308 LINE",
"40 247 LINE"
);
}
);
width = 469;
},
{
components = (
{
alignment = -1;
name = t;
transform = "{1, 0, 0, 1, 18, 0}";
}
);
layerId = "E61E66CE-5363-4C81-9EFF-07DC28A46654";
paths = (
{
closed = 1;
nodes = (
"412 238 LINE",
"412 308 LINE",
"38 308 LINE",
"38 238 LINE"
);
}
);
width = 471;
}
);
rightKerningGroup = KO_ae;
unicode = 0167;
},
{
glyphname = tcaron;
lastChange = "2023-01-21 15:46:56 +0000";
layers = (
{
components = (
{
name = t;
}
);
layerId = "E9EF56E4-BA0E-4F86-8263-866E5C5AE35D";
paths = (
{
closed = 1;
nodes = (
"427 549 LINE",
"477 724 LINE",
"365 724 LINE",
"315 549 LINE"
);
}
);
width = 455;
},
{
components = (
{
name = t;
}
);
layerId = "9744B420-26AC-498D-9016-81F71DDA7C26";
paths = (
{
closed = 1;
nodes = (
"344 566 LINE",
"404 724 LINE",
"343 724 LINE",
"283 566 LINE"
);
}
);
width = 433;
},
{
components = (
{
name = t;
}
);
layerId = "E61E66CE-5363-4C81-9EFF-07DC28A46654";
paths = (
{
closed = 1;
nodes = (
"359 563 LINE",
"420 724 LINE",
"345 724 LINE",
"285 563 LINE"
);
}
);
width = 437;
}
);
leftKerningGroup = KO_t;
rightKerningGroup = KO_t;
unicode = 0165;
},
{
glyphname = u;
lastChange = "2023-01-21 14:06:10 +0000";
layers = (
{
anchors = (
{
name = bottom;
position = "{268, 0}";
},
{
name = ogonek;
position = "{331, 10}";
},
{
name = top;
position = "{268, 500}";
},
{
name = topright;
position = "{511, 500}";
}
);
layerId = "E9EF56E4-BA0E-4F86-8263-866E5C5AE35D";
paths = (
{
closed = 1;
nodes = (
"406 -8 OFFCURVE",
"496 72 OFFCURVE",
"496 202 CURVE SMOOTH",
"496 500 LINE",
"357 500 LINE",
"357 207 LINE SMOOTH",
"357 156 OFFCURVE",
"327 123 OFFCURVE",
"268 123 CURVE SMOOTH",
"215 123 OFFCURVE",
"180 152 OFFCURVE",
"180 207 CURVE SMOOTH",
"180 500 LINE",
"41 500 LINE",
"41 202 LINE SMOOTH",
"41 72 OFFCURVE",
"131 -8 OFFCURVE",
"268 -8 CURVE SMOOTH"
);
}
);
width = 537;
},
{
anchors = (
{
name = bottom;
position = "{276, 0}";
},
{
name = ogonek;
position = "{313, 10}";
},
{
name = top;
position = "{276, 500}";
},
{
name = topright;
position = "{519, 500}";
}
);
layerId = "9744B420-26AC-498D-9016-81F71DDA7C26";
paths = (
{
closed = 1;
nodes = (
"404 -8 OFFCURVE",
"487 68 OFFCURVE",
"487 190 CURVE SMOOTH",
"487 500 LINE",
"420 500 LINE",
"420 191 LINE SMOOTH",
"420 108 OFFCURVE",
"366 54 OFFCURVE",
"276 54 CURVE SMOOTH",
"189 54 OFFCURVE",
"133 106 OFFCURVE",
"133 191 CURVE SMOOTH",
"133 500 LINE",
"66 500 LINE",
"66 190 LINE SMOOTH",
"66 68 OFFCURVE",
"149 -8 OFFCURVE",
"276 -8 CURVE SMOOTH"
);
}
);
width = 553;
},
{
anchors = (
{
name = bottom;
position = "{274, 0}";
},
{
name = ogonek;
position = "{317, 10}";
},
{
name = top;
position = "{274, 500}";
},
{
name = topright;
position = "{517, 500}";
}
);
layerId = "E61E66CE-5363-4C81-9EFF-07DC28A46654";
paths = (
{
closed = 1;
nodes = (
"404 -8 OFFCURVE",
"489 68 OFFCURVE",
"489 192 CURVE SMOOTH",
"489 500 LINE",
"407 500 LINE",
"407 195 LINE SMOOTH",
"407 117 OFFCURVE",
"358 68 OFFCURVE",
"274 68 CURVE SMOOTH",
"194 68 OFFCURVE",
"142 115 OFFCURVE",
"142 195 CURVE SMOOTH",
"142 500 LINE",
"61 500 LINE",
"61 192 LINE SMOOTH",
"61 68 OFFCURVE",
"146 -8 OFFCURVE",
"274 -8 CURVE SMOOTH"
);
}
);
width = 550;
}
);
leftKerningGroup = KO_u;
rightKerningGroup = KO_u;
unicode = 0075;
},
{
glyphname = v;
lastChange = "2023-01-22 17:01:43 +0000";
layers = (
{
anchors = (
{
name = bottom;
position = "{276, -10}";
},
{
name = top;
position = "{276, 500}";
}
);
layerId = "E9EF56E4-BA0E-4F86-8263-866E5C5AE35D";
paths = (
{
closed = 1;
nodes = (
"361 0 LINE",
"537 500 LINE",
"391 500 LINE",
"263 98 LINE",
"290 98 LINE",
"162 500 LINE",
"15 500 LINE",
"192 0 LINE"
);
}
);
width = 553;
},
{
anchors = (
{
name = bottom;
position = "{257, -45}";
},
{
name = top;
position = "{257, 500}";
}
);
layerId = "9744B420-26AC-498D-9016-81F71DDA7C26";
paths = (
{
closed = 1;
nodes = (
"297 0 LINE",
"491 500 LINE",
"420 500 LINE",
"250 47 LINE",
"264 47 LINE",
"93 500 LINE",
"23 500 LINE",
"217 0 LINE"
);
}
);
width = 514;
},
{
anchors = (
{
name = bottom;
position = "{261, -38}";
},
{
name = top;
position = "{261, 500}";
}
);
layerId = "E61E66CE-5363-4C81-9EFF-07DC28A46654";
paths = (
{
closed = 1;
nodes = (
"310 0 LINE",
"500 500 LINE",
"414 500 LINE",
"252 57 LINE",
"269 57 LINE",
"107 500 LINE",
"21 500 LINE",
"212 0 LINE"
);
}
);
width = 522;
}
);
leftKerningGroup = KO_v;
rightKerningGroup = KO_v;
unicode = 0076;
userData = {
KernOnName = v;
};
},
{
glyphname = w;
lastChange = "2023-01-21 14:06:10 +0000";
layers = (
{
anchors = (
{
name = bottom;
position = "{423, 0}";
},
{
name = top;
position = "{423, 500}";
}
);
layerId = "E9EF56E4-BA0E-4F86-8263-866E5C5AE35D";
paths = (
{
closed = 1;
nodes = (
"342 0 LINE",
"437 378 LINE",
"409 378 LINE",
"504 0 LINE",
"659 0 LINE",
"825 500 LINE",
"680 500 LINE",
"567 114 LINE",
"593 114 LINE",
"492 500 LINE",
"353 500 LINE",
"253 114 LINE",
"280 114 LINE",
"165 500 LINE",
"21 500 LINE",
"186 0 LINE"
);
}
);
width = 846;
},
{
anchors = (
{
name = bottom;
position = "{377, 0}";
},
{
name = top;
position = "{377, 500}";
}
);
layerId = "9744B420-26AC-498D-9016-81F71DDA7C26";
paths = (
{
closed = 1;
nodes = (
"264 0 LINE",
"388 442 LINE",
"366 442 LINE",
"488 0 LINE",
"556 0 LINE",
"728 500 LINE",
"658 500 LINE",
"511 56 LINE",
"536 56 LINE",
"412 500 LINE",
"341 500 LINE",
"217 56 LINE",
"243 56 LINE",
"95 500 LINE",
"24 500 LINE",
"197 0 LINE"
);
}
);
width = 753;
},
{
anchors = (
{
name = bottom;
position = "{386, 0}";
},
{
name = top;
position = "{386, 500}";
}
);
layerId = "E61E66CE-5363-4C81-9EFF-07DC28A46654";
paths = (
{
closed = 1;
nodes = (
"280 0 LINE",
"397 429 LINE",
"375 429 LINE",
"492 0 LINE",
"576 0 LINE",
"748 500 LINE",
"662 500 LINE",
"522 67 LINE",
"547 67 LINE",
"428 500 LINE",
"343 500 LINE",
"224 67 LINE",
"250 67 LINE",
"109 500 LINE",
"24 500 LINE",
"195 0 LINE"
);
}
);
width = 771;
}
);
leftKerningGroup = KO_w;
rightKerningGroup = KO_w;
unicode = 0077;
},
{
glyphname = x;
lastChange = "2023-01-21 14:06:10 +0000";
layers = (
{
anchors = (
{
name = bottom;
position = "{287, 0}";
},
{
name = top;
position = "{287, 500}";
}
);
layerId = "E9EF56E4-BA0E-4F86-8263-866E5C5AE35D";
paths = (
{
closed = 1;
nodes = (
"170 0 LINE",
"284 159 LINE",
"398 0 LINE",
"565 0 LINE",
"371 269 LINE",
"540 500 LINE",
"381 500 LINE",
"287 366 LINE",
"198 500 LINE",
"32 500 LINE",
"201 264 LINE",
"8 0 LINE"
);
}
);
width = 573;
},
{
anchors = (
{
name = bottom;
position = "{271, 0}";
},
{
name = top;
position = "{271, 500}";
}
);
layerId = "9744B420-26AC-498D-9016-81F71DDA7C26";
paths = (
{
closed = 1;
nodes = (
"103 0 LINE",
"272 216 LINE",
"437 0 LINE",
"525 0 LINE",
"318 267 LINE",
"497 500 LINE",
"415 500 LINE",
"271 311 LINE",
"132 500 LINE",
"44 500 LINE",
"226 266 LINE",
"18 0 LINE"
);
}
);
width = 543;
},
{
anchors = (
{
name = bottom;
position = "{275, 0}";
},
{
name = top;
position = "{275, 500}";
}
);
layerId = "E61E66CE-5363-4C81-9EFF-07DC28A46654";
paths = (
{
closed = 1;
nodes = (
"116 0 LINE",
"274 205 LINE",
"429 0 LINE",
"533 0 LINE",
"329 267 LINE",
"506 500 LINE",
"408 500 LINE",
"275 322 LINE",
"145 500 LINE",
"42 500 LINE",
"221 266 LINE",
"16 0 LINE"
);
}
);
width = 549;
}
);
leftKerningGroup = KO_x;
rightKerningGroup = KO_x;
unicode = 0078;
},
{
glyphname = y;
lastChange = "2023-01-21 13:03:59 +0000";
layers = (
{
anchors = (
{
name = bottom;
position = "{268, 0}";
},
{
name = top;
position = "{268, 500}";
}
);
layerId = "E9EF56E4-BA0E-4F86-8263-866E5C5AE35D";
paths = (
{
closed = 1;
nodes = (
"378 -200 LINE SMOOTH",
"446 -200 OFFCURVE",
"491 -155 OFFCURVE",
"491 -87 CURVE SMOOTH",
"491 500 LINE",
"351 500 LINE",
"351 -69 LINE",
"45 -69 LINE",
"45 -200 LINE"
);
},
{
closed = 1;
nodes = (
"417 58 LINE",
"417 189 LINE",
"184 189 LINE",
"184 500 LINE",
"45 500 LINE",
"45 58 LINE"
);
}
);
width = 540;
},
{
anchors = (
{
name = bottom;
position = "{274, 0}";
},
{
name = top;
position = "{274, 500}";
}
);
layerId = "9744B420-26AC-498D-9016-81F71DDA7C26";
paths = (
{
closed = 1;
nodes = (
"424 -200 LINE SMOOTH",
"457 -200 OFFCURVE",
"479 -179 OFFCURVE",
"479 -146 CURVE SMOOTH",
"479 500 LINE",
"413 500 LINE",
"413 -138 LINE",
"69 -138 LINE",
"69 -200 LINE"
);
},
{
closed = 1;
nodes = (
"442 84 LINE",
"442 147 LINE",
"135 147 LINE",
"135 500 LINE",
"69 500 LINE",
"69 84 LINE"
);
}
);
width = 561;
},
{
anchors = (
{
name = bottom;
position = "{272, 0}";
},
{
name = top;
position = "{272, 500}";
}
);
layerId = "E61E66CE-5363-4C81-9EFF-07DC28A46654";
paths = (
{
closed = 1;
nodes = (
"415 -200 LINE SMOOTH",
"455 -200 OFFCURVE",
"481 -174 OFFCURVE",
"481 -134 CURVE SMOOTH",
"481 500 LINE",
"401 500 LINE",
"401 -124 LINE",
"64 -124 LINE",
"64 -200 LINE"
);
},
{
closed = 1;
nodes = (
"437 79 LINE",
"437 156 LINE",
"145 156 LINE",
"145 500 LINE",
"64 500 LINE",
"64 79 LINE"
);
}
);
width = 557;
}
);
leftKerningGroup = KO_y;
rightKerningGroup = KO_y;
unicode = 0079;
},
{
glyphname = z;
lastChange = "2023-01-21 14:06:10 +0000";
layers = (
{
anchors = (
{
name = bottom;
position = "{248, 0}";
},
{
name = center;
position = "{248, 250}";
},
{
name = top;
position = "{248, 500}";
}
);
layerId = "E9EF56E4-BA0E-4F86-8263-866E5C5AE35D";
paths = (
{
closed = 1;
nodes = (
"466 0 LINE",
"466 131 LINE",
"227 131 LINE",
"456 395 LINE",
"456 500 LINE",
"38 500 LINE",
"38 369 LINE",
"258 369 LINE",
"28 105 LINE",
"28 0 LINE"
);
}
);
width = 494;
},
{
anchors = (
{
name = bottom;
position = "{249, 0}";
},
{
name = center;
position = "{249, 250}";
},
{
name = top;
position = "{249, 500}";
}
);
layerId = "9744B420-26AC-498D-9016-81F71DDA7C26";
paths = (
{
closed = 1;
nodes = (
"457 0 LINE",
"457 62 LINE",
"134 62 LINE",
"447 448 LINE",
"447 500 LINE",
"49 500 LINE",
"49 438 LINE",
"354 438 LINE",
"39 52 LINE",
"39 0 LINE"
);
}
);
width = 495;
},
{
anchors = (
{
name = bottom;
position = "{249, 0}";
},
{
name = center;
position = "{249, 250}";
},
{
name = top;
position = "{249, 500}";
}
);
layerId = "E61E66CE-5363-4C81-9EFF-07DC28A46654";
paths = (
{
closed = 1;
nodes = (
"459 0 LINE",
"459 76 LINE",
"152 76 LINE",
"449 437 LINE",
"449 500 LINE",
"47 500 LINE",
"47 424 LINE",
"335 424 LINE",
"37 63 LINE",
"37 0 LINE"
);
}
);
width = 495;
}
);
leftKerningGroup = KO_z;
rightKerningGroup = KO_z;
unicode = 007A;
},
{
color = 4;
glyphname = g.ss01;
lastChange = "2023-01-21 13:03:59 +0000";
layers = (
{
anchors = (
{
name = bottom;
position = "{306, -200}";
},
{
name = top;
position = "{306, 500}";
}
);
layerId = "E9EF56E4-BA0E-4F86-8263-866E5C5AE35D";
paths = (
{
closed = 1;
nodes = (
"409 -208 OFFCURVE",
"506 -124 OFFCURVE",
"506 3 CURVE SMOOTH",
"506 129 OFFCURVE",
"408 202 OFFCURVE",
"264 202 CURVE SMOOTH",
"115 202 OFFCURVE",
"17 124 OFFCURVE",
"17 1 CURVE SMOOTH",
"17 -123 OFFCURVE",
"114 -208 OFFCURVE",
"261 -208 CURVE SMOOTH"
);
},
{
closed = 1;
nodes = (
"200 -92 OFFCURVE",
"158 -54 OFFCURVE",
"158 4 CURVE SMOOTH",
"158 61 OFFCURVE",
"200 99 OFFCURVE",
"261 99 CURVE SMOOTH",
"323 99 OFFCURVE",
"365 61 OFFCURVE",
"365 4 CURVE SMOOTH",
"365 -54 OFFCURVE",
"323 -92 OFFCURVE",
"261 -92 CURVE SMOOTH"
);
},
{
closed = 1;
nodes = (
"386 158 OFFCURVE",
"469 226 OFFCURVE",
"469 329 CURVE SMOOTH",
"469 435 OFFCURVE",
"385 508 OFFCURVE",
"262 508 CURVE SMOOTH",
"138 508 OFFCURVE",
"54 434 OFFCURVE",
"54 328 CURVE SMOOTH",
"54 225 OFFCURVE",
"137 158 OFFCURVE",
"261 158 CURVE SMOOTH"
);
},
{
closed = 1;
nodes = (
"218 246 OFFCURVE",
"186 276 OFFCURVE",
"186 318 CURVE SMOOTH",
"186 362 OFFCURVE",
"218 389 OFFCURVE",
"261 389 CURVE SMOOTH",
"305 389 OFFCURVE",
"336 362 OFFCURVE",
"336 318 CURVE SMOOTH",
"336 276 OFFCURVE",
"305 246 OFFCURVE",
"261 246 CURVE SMOOTH"
);
},
{
closed = 1;
nodes = (
"531 389 LINE",
"531 501 LINE",
"261 501 LINE",
"261 389 LINE"
);
}
);
width = 546;
},
{
anchors = (
{
name = bottom;
position = "{288, -200}";
},
{
name = top;
position = "{288, 500}";
}
);
layerId = "9744B420-26AC-498D-9016-81F71DDA7C26";
paths = (
{
closed = 1;
nodes = (
"391 -208 OFFCURVE",
"493 -122 OFFCURVE",
"493 6 CURVE SMOOTH",
"493 128 OFFCURVE",
"399 210 OFFCURVE",
"258 210 CURVE SMOOTH",
"118 210 OFFCURVE",
"25 129 OFFCURVE",
"25 7 CURVE SMOOTH",
"25 -122 OFFCURVE",
"126 -208 OFFCURVE",
"259 -208 CURVE SMOOTH"
);
},
{
closed = 1;
nodes = (
"161 -146 OFFCURVE",
"93 -87 OFFCURVE",
"93 6 CURVE SMOOTH",
"93 97 OFFCURVE",
"161 156 OFFCURVE",
"259 156 CURVE SMOOTH",
"357 156 OFFCURVE",
"425 97 OFFCURVE",
"425 6 CURVE SMOOTH",
"425 -87 OFFCURVE",
"357 -146 OFFCURVE",
"259 -146 CURVE SMOOTH"
);
},
{
closed = 1;
nodes = (
"373 163 OFFCURVE",
"448 235 OFFCURVE",
"448 329 CURVE SMOOTH",
"448 436 OFFCURVE",
"366 508 OFFCURVE",
"259 508 CURVE SMOOTH",
"152 508 OFFCURVE",
"70 436 OFFCURVE",
"70 329 CURVE SMOOTH",
"70 235 OFFCURVE",
"145 163 OFFCURVE",
"259 163 CURVE SMOOTH"
);
},
{
closed = 1;
nodes = (
"187 212 OFFCURVE",
"137 259 OFFCURVE",
"137 329 CURVE SMOOTH",
"137 401 OFFCURVE",
"187 446 OFFCURVE",
"259 446 CURVE SMOOTH",
"331 446 OFFCURVE",
"381 401 OFFCURVE",
"381 329 CURVE SMOOTH",
"381 259 OFFCURVE",
"331 212 OFFCURVE",
"259 212 CURVE SMOOTH"
);
},
{
closed = 1;
nodes = (
"512 446 LINE",
"512 500 LINE",
"259 500 LINE",
"259 446 LINE"
);
}
);
width = 515;
},
{
anchors = (
{
name = bottom;
position = "{292, -200}";
},
{
name = top;
position = "{292, 500}";
}
);
layerId = "E61E66CE-5363-4C81-9EFF-07DC28A46654";
paths = (
{
closed = 1;
nodes = (
"394 -208 OFFCURVE",
"495 -122 OFFCURVE",
"495 6 CURVE SMOOTH",
"495 128 OFFCURVE",
"401 208 OFFCURVE",
"260 208 CURVE SMOOTH",
"118 208 OFFCURVE",
"23 128 OFFCURVE",
"23 5 CURVE SMOOTH",
"23 -122 OFFCURVE",
"124 -208 OFFCURVE",
"259 -208 CURVE SMOOTH"
);
},
{
closed = 1;
nodes = (
"169 -135 OFFCURVE",
"106 -80 OFFCURVE",
"106 6 CURVE SMOOTH",
"106 90 OFFCURVE",
"169 145 OFFCURVE",
"259 145 CURVE SMOOTH",
"350 145 OFFCURVE",
"413 90 OFFCURVE",
"413 6 CURVE SMOOTH",
"413 -80 OFFCURVE",
"350 -135 OFFCURVE",
"259 -135 CURVE SMOOTH"
);
},
{
closed = 1;
nodes = (
"375 162 OFFCURVE",
"452 233 OFFCURVE",
"452 329 CURVE SMOOTH",
"452 436 OFFCURVE",
"370 508 OFFCURVE",
"259 508 CURVE SMOOTH",
"149 508 OFFCURVE",
"67 436 OFFCURVE",
"67 329 CURVE SMOOTH",
"67 233 OFFCURVE",
"143 162 OFFCURVE",
"259 162 CURVE SMOOTH"
);
},
{
closed = 1;
nodes = (
"193 219 OFFCURVE",
"147 263 OFFCURVE",
"147 327 CURVE SMOOTH",
"147 393 OFFCURVE",
"193 435 OFFCURVE",
"259 435 CURVE SMOOTH",
"326 435 OFFCURVE",
"372 393 OFFCURVE",
"372 327 CURVE SMOOTH",
"372 263 OFFCURVE",
"326 219 OFFCURVE",
"259 219 CURVE SMOOTH"
);
},
{
closed = 1;
nodes = (
"516 435 LINE",
"516 500 LINE",
"259 500 LINE",
"259 435 LINE"
);
}
);
width = 521;
}
);
rightKerningGroup = KO_g.ss01;
},
{
color = 4;
glyphname = h.ss01;
lastChange = "2023-01-21 09:39:51 +0000";
layers = (
{
anchors = (
{
name = bottom;
position = "{284, 0}";
},
{
name = center;
position = "{284, 400}";
},
{
name = top;
position = "{284, 800}";
}
);
layerId = "E9EF56E4-BA0E-4F86-8263-866E5C5AE35D";
paths = (
{
closed = 1;
nodes = (
"189 0 LINE",
"189 293 LINE SMOOTH",
"189 349 OFFCURVE",
"224 377 OFFCURVE",
"277 377 CURVE SMOOTH",
"336 377 OFFCURVE",
"366 345 OFFCURVE",
"366 293 CURVE SMOOTH",
"366 0 LINE",
"505 0 LINE",
"505 317 LINE SMOOTH",
"505 432 OFFCURVE",
"432 508 OFFCURVE",
"319 508 CURVE SMOOTH",
"263 508 OFFCURVE",
"219 490 OFFCURVE",
"189 460 CURVE",
"189 724 LINE",
"49 724 LINE",
"49 0 LINE"
);
}
);
width = 555;
},
{
anchors = (
{
name = bottom;
position = "{299, 0}";
},
{
name = center;
position = "{299, 400}";
},
{
name = top;
position = "{299, 800}";
}
);
layerId = "9744B420-26AC-498D-9016-81F71DDA7C26";
paths = (
{
closed = 1;
nodes = (
"147 0 LINE",
"147 309 LINE SMOOTH",
"147 394 OFFCURVE",
"204 446 OFFCURVE",
"291 446 CURVE SMOOTH",
"382 446 OFFCURVE",
"435 397 OFFCURVE",
"435 309 CURVE SMOOTH",
"435 0 LINE",
"502 0 LINE",
"502 308 LINE SMOOTH",
"502 428 OFFCURVE",
"431 508 OFFCURVE",
"302 508 CURVE SMOOTH",
"233 508 OFFCURVE",
"181 482 OFFCURVE",
"147 438 CURVE",
"147 724 LINE",
"81 724 LINE",
"81 0 LINE"
);
}
);
width = 582;
},
{
anchors = (
{
name = bottom;
position = "{293, 0}";
},
{
name = center;
position = "{293, 400}";
},
{
name = top;
position = "{293, 800}";
}
);
layerId = "E61E66CE-5363-4C81-9EFF-07DC28A46654";
paths = (
{
closed = 1;
nodes = (
"156 0 LINE",
"156 306 LINE SMOOTH",
"156 385 OFFCURVE",
"208 432 OFFCURVE",
"288 432 CURVE SMOOTH",
"373 432 OFFCURVE",
"421 386 OFFCURVE",
"421 306 CURVE SMOOTH",
"421 0 LINE",
"502 0 LINE",
"502 310 LINE SMOOTH",
"502 428 OFFCURVE",
"431 508 OFFCURVE",
"305 508 CURVE SMOOTH",
"238 508 OFFCURVE",
"188 483 OFFCURVE",
"156 442 CURVE",
"156 724 LINE",
"74 724 LINE",
"74 0 LINE"
);
}
);
width = 576;
}
);
leftKerningGroup = KO_i;
leftMetricsKey = n;
rightKerningGroup = KO_m.ss01;
rightMetricsKey = n;
},
{
color = 4;
glyphname = m.ss01;
lastChange = "2023-01-21 09:39:52 +0000";
layers = (
{
layerId = "E9EF56E4-BA0E-4F86-8263-866E5C5AE35D";
paths = (
{
closed = 1;
nodes = (
"189 0 LINE",
"189 293 LINE SMOOTH",
"189 348 OFFCURVE",
"224 378 OFFCURVE",
"277 378 CURVE SMOOTH",
"336 378 OFFCURVE",
"366 344 OFFCURVE",
"366 293 CURVE SMOOTH",
"366 0 LINE",
"505 0 LINE",
"505 293 LINE SMOOTH",
"505 344 OFFCURVE",
"535 378 OFFCURVE",
"594 378 CURVE SMOOTH",
"647 378 OFFCURVE",
"682 348 OFFCURVE",
"682 293 CURVE SMOOTH",
"682 0 LINE",
"821 0 LINE",
"821 298 LINE SMOOTH",
"821 424 OFFCURVE",
"742 508 OFFCURVE",
"607 508 CURVE SMOOTH",
"532 508 OFFCURVE",
"470 480 OFFCURVE",
"436 428 CURVE",
"401 478 OFFCURVE",
"342 508 OFFCURVE",
"265 508 CURVE SMOOTH",
"136 508 OFFCURVE",
"49 430 OFFCURVE",
"49 298 CURVE SMOOTH",
"49 0 LINE"
);
}
);
width = 871;
},
{
layerId = "9744B420-26AC-498D-9016-81F71DDA7C26";
paths = (
{
closed = 1;
nodes = (
"147 0 LINE",
"147 309 LINE SMOOTH",
"147 394 OFFCURVE",
"204 446 OFFCURVE",
"291 446 CURVE SMOOTH",
"381 446 OFFCURVE",
"435 394 OFFCURVE",
"435 309 CURVE SMOOTH",
"435 0 LINE",
"502 0 LINE",
"502 309 LINE SMOOTH",
"502 394 OFFCURVE",
"555 446 OFFCURVE",
"646 446 CURVE SMOOTH",
"733 446 OFFCURVE",
"789 394 OFFCURVE",
"789 309 CURVE SMOOTH",
"789 0 LINE",
"856 0 LINE",
"856 310 LINE SMOOTH",
"856 429 OFFCURVE",
"774 508 OFFCURVE",
"653 508 CURVE SMOOTH",
"565 508 OFFCURVE",
"498 468 OFFCURVE",
"469 402 CURVE",
"438 468 OFFCURVE",
"371 508 OFFCURVE",
"283 508 CURVE SMOOTH",
"162 508 OFFCURVE",
"81 428 OFFCURVE",
"81 310 CURVE SMOOTH",
"81 0 LINE"
);
}
);
width = 936;
},
{
layerId = "E61E66CE-5363-4C81-9EFF-07DC28A46654";
paths = (
{
closed = 1;
nodes = (
"156 0 LINE",
"156 306 LINE SMOOTH",
"156 385 OFFCURVE",
"208 432 OFFCURVE",
"288 432 CURVE SMOOTH",
"372 432 OFFCURVE",
"421 383 OFFCURVE",
"421 306 CURVE SMOOTH",
"421 0 LINE",
"502 0 LINE",
"502 306 LINE SMOOTH",
"502 383 OFFCURVE",
"552 432 OFFCURVE",
"636 432 CURVE SMOOTH",
"716 432 OFFCURVE",
"768 385 OFFCURVE",
"768 306 CURVE SMOOTH",
"768 0 LINE",
"849 0 LINE",
"849 308 LINE SMOOTH",
"849 427 OFFCURVE",
"767 508 OFFCURVE",
"644 508 CURVE SMOOTH",
"559 508 OFFCURVE",
"493 470 OFFCURVE",
"462 407 CURVE",
"431 470 OFFCURVE",
"365 508 OFFCURVE",
"280 508 CURVE SMOOTH",
"157 508 OFFCURVE",
"74 428 OFFCURVE",
"74 308 CURVE SMOOTH",
"74 0 LINE"
);
}
);
width = 923;
}
);
leftKerningGroup = KO_m.ss01;
leftMetricsKey = n;
rightKerningGroup = KO_m.ss01;
rightMetricsKey = n;
},
{
color = 4;
glyphname = s.ss01;
lastChange = "2023-01-21 09:46:21 +0000";
layers = (
{
anchors = (
{
name = bottom;
position = "{223, 0}";
},
{
name = top;
position = "{234, 497}";
}
);
layerId = "E9EF56E4-BA0E-4F86-8263-866E5C5AE35D";
paths = (
{
closed = 1;
nodes = (
"360 -8 OFFCURVE",
"430 56 OFFCURVE",
"430 149 CURVE SMOOTH",
"430 259 OFFCURVE",
"347 288 OFFCURVE",
"274 306 CURVE SMOOTH",
"209 321 OFFCURVE",
"175 331 OFFCURVE",
"175 364 CURVE SMOOTH",
"175 390 OFFCURVE",
"196 406 OFFCURVE",
"231 406 CURVE SMOOTH",
"272 406 OFFCURVE",
"302 382 OFFCURVE",
"307 342 CURVE",
"425 374 LINE",
"413 455 OFFCURVE",
"341 508 OFFCURVE",
"230 508 CURVE SMOOTH",
"118 508 OFFCURVE",
"36 447 OFFCURVE",
"36 351 CURVE SMOOTH",
"36 248 OFFCURVE",
"126 214 OFFCURVE",
"198 197 CURVE SMOOTH",
"255 182 OFFCURVE",
"286 173 OFFCURVE",
"286 139 CURVE SMOOTH",
"286 109 OFFCURVE",
"262 95 OFFCURVE",
"225 95 CURVE SMOOTH",
"181 95 OFFCURVE",
"150 118 OFFCURVE",
"147 160 CURVE",
"20 129 LINE",
"32 46 OFFCURVE",
"109 -8 OFFCURVE",
"224 -8 CURVE SMOOTH"
);
}
);
width = 454;
},
{
anchors = (
{
name = bottom;
position = "{215, 0}";
},
{
name = top;
position = "{214, 500}";
}
);
layerId = "9744B420-26AC-498D-9016-81F71DDA7C26";
paths = (
{
closed = 1;
nodes = (
"324 -6 OFFCURVE",
"387 52 OFFCURVE",
"387 136 CURVE SMOOTH",
"387 244 OFFCURVE",
"302 270 OFFCURVE",
"212 291 CURVE SMOOTH",
"153 306 OFFCURVE",
"113 322 OFFCURVE",
"113 373 CURVE SMOOTH",
"113 423 OFFCURVE",
"151 445 OFFCURVE",
"206 445 CURVE SMOOTH",
"264 445 OFFCURVE",
"310 423 OFFCURVE",
"330 366 CURVE",
"394 386 LINE",
"373 458 OFFCURVE",
"305 508 OFFCURVE",
"212 508 CURVE SMOOTH",
"110 508 OFFCURVE",
"46 452 OFFCURVE",
"46 366 CURVE SMOOTH",
"46 272 OFFCURVE",
"126 244 OFFCURVE",
"200 225 CURVE SMOOTH",
"274 207 OFFCURVE",
"318 192 OFFCURVE",
"318 133 CURVE SMOOTH",
"318 88 OFFCURVE",
"287 56 OFFCURVE",
"219 56 CURVE SMOOTH",
"156 56 OFFCURVE",
"107 83 OFFCURVE",
"94 138 CURVE",
"31 114 LINE",
"50 43 OFFCURVE",
"118 -6 OFFCURVE",
"217 -6 CURVE SMOOTH"
);
}
);
width = 421;
},
{
anchors = (
{
name = bottom;
position = "{216, 0}";
},
{
name = top;
position = "{219, 498}";
}
);
layerId = "E61E66CE-5363-4C81-9EFF-07DC28A46654";
paths = (
{
closed = 1;
nodes = (
"330 -7 OFFCURVE",
"396 51 OFFCURVE",
"396 137 CURVE SMOOTH",
"396 243 OFFCURVE",
"319 272 OFFCURVE",
"226 294 CURVE SMOOTH",
"164 309 OFFCURVE",
"125 323 OFFCURVE",
"125 371 CURVE SMOOTH",
"125 414 OFFCURVE",
"159 437 OFFCURVE",
"211 437 CURVE SMOOTH",
"266 437 OFFCURVE",
"308 413 OFFCURVE",
"325 360 CURVE",
"400 383 LINE",
"381 457 OFFCURVE",
"312 508 OFFCURVE",
"216 508 CURVE SMOOTH",
"113 508 OFFCURVE",
"45 450 OFFCURVE",
"45 363 CURVE SMOOTH",
"45 274 OFFCURVE",
"116 240 OFFCURVE",
"199 220 CURVE SMOOTH",
"271 202 OFFCURVE",
"313 189 OFFCURVE",
"313 135 CURVE SMOOTH",
"313 91 OFFCURVE",
"281 65 OFFCURVE",
"221 65 CURVE SMOOTH",
"161 65 OFFCURVE",
"116 91 OFFCURVE",
"105 142 CURVE",
"29 118 LINE",
"46 43 OFFCURVE",
"117 -7 OFFCURVE",
"218 -7 CURVE SMOOTH"
);
}
);
width = 428;
}
);
leftKerningGroup = KO_s.ss02;
rightKerningGroup = KO_s.ss01;
},
{
color = 4;
glyphname = y.ss01;
lastChange = "2023-01-21 09:39:57 +0000";
layers = (
{
anchors = (
{
name = bottom;
position = "{297, -10}";
},
{
name = top;
position = "{297, 500}";
}
);
layerId = "E9EF56E4-BA0E-4F86-8263-866E5C5AE35D";
paths = (
{
closed = 1;
nodes = (
"204 -200 LINE",
"582 500 LINE",
"421 500 LINE",
"283 225 LINE",
"304 225 LINE",
"169 500 LINE",
"13 500 LINE",
"215 106 LINE",
"47 -200 LINE"
);
}
);
width = 594;
},
{
anchors = (
{
name = bottom;
position = "{267, -45}";
},
{
name = top;
position = "{267, 500}";
}
);
layerId = "9744B420-26AC-498D-9016-81F71DDA7C26";
paths = (
{
closed = 1;
nodes = (
"138 -200 LINE",
"519 500 LINE",
"442 500 LINE",
"262 158 LINE",
"275 158 LINE",
"88 500 LINE",
"14 500 LINE",
"232 106 LINE",
"62 -200 LINE"
);
}
);
width = 533;
},
{
anchors = (
{
name = bottom;
position = "{273, -38}";
},
{
name = top;
position = "{273, 500}";
}
);
layerId = "E61E66CE-5363-4C81-9EFF-07DC28A46654";
paths = (
{
closed = 1;
nodes = (
"151 -200 LINE",
"532 500 LINE",
"438 500 LINE",
"266 171 LINE",
"281 171 LINE",
"104 500 LINE",
"14 500 LINE",
"229 106 LINE",
"59 -200 LINE"
);
}
);
width = 545;
}
);
leftKerningGroup = KO_y.ss02;
rightKerningGroup = KO_y.ss02;
},
{
color = 9;
glyphname = a.ss02;
lastChange = "2023-01-22 14:42:46 +0000";
layers = (
{
anchors = (
{
name = bottom;
position = "{281, 0}";
},
{
name = ogonek;
position = "{412, 0}";
},
{
name = top;
position = "{302, 500}";
}
);
layerId = "E9EF56E4-BA0E-4F86-8263-866E5C5AE35D";
paths = (
{
closed = 1;
nodes = (
"512 0 LINE",
"512 500 LINE",
"284 500 LINE SMOOTH",
"129 500 OFFCURVE",
"25 400 OFFCURVE",
"25 250 CURVE SMOOTH",
"25 100 OFFCURVE",
"129 0 OFFCURVE",
"284 0 CURVE SMOOTH"
);
},
{
closed = 1;
nodes = (
"417 131 LINE",
"293 131 LINE SMOOTH",
"214 131 OFFCURVE",
"172 179 OFFCURVE",
"172 250 CURVE SMOOTH",
"172 328 OFFCURVE",
"220 369 OFFCURVE",
"293 369 CURVE SMOOTH",
"417 369 LINE",
"372 414 LINE",
"372 86 LINE"
);
}
);
width = 562;
},
{
anchors = (
{
name = bottom;
position = "{278, 0}";
},
{
name = ogonek;
position = "{373, 0}";
},
{
name = top;
position = "{305, 500}";
}
);
layerId = "9744B420-26AC-498D-9016-81F71DDA7C26";
paths = (
{
closed = 1;
nodes = (
"473 0 LINE",
"473 500 LINE",
"300 500 LINE SMOOTH",
"144 500 OFFCURVE",
"40 400 OFFCURVE",
"40 250 CURVE SMOOTH",
"40 100 OFFCURVE",
"144 0 OFFCURVE",
"300 0 CURVE SMOOTH"
);
},
{
closed = 1;
nodes = (
"451 62 LINE",
"304 62 LINE SMOOTH",
"185 62 OFFCURVE",
"109 137 OFFCURVE",
"109 250 CURVE SMOOTH",
"109 365 OFFCURVE",
"187 438 OFFCURVE",
"304 438 CURVE SMOOTH",
"451 438 LINE",
"406 483 LINE",
"406 17 LINE"
);
}
);
width = 553;
},
{
anchors = (
{
name = bottom;
position = "{278, 0}";
},
{
name = ogonek;
position = "{381, 0}";
},
{
name = top;
position = "{305, 500}";
}
);
layerId = "E61E66CE-5363-4C81-9EFF-07DC28A46654";
paths = (
{
closed = 1;
nodes = (
"481 0 LINE",
"481 500 LINE",
"297 500 LINE SMOOTH",
"141 500 OFFCURVE",
"37 400 OFFCURVE",
"37 250 CURVE SMOOTH",
"37 100 OFFCURVE",
"141 0 OFFCURVE",
"297 0 CURVE SMOOTH"
);
},
{
closed = 1;
nodes = (
"444 76 LINE",
"302 76 LINE SMOOTH",
"191 76 OFFCURVE",
"122 146 OFFCURVE",
"122 250 CURVE SMOOTH",
"122 358 OFFCURVE",
"194 424 OFFCURVE",
"302 424 CURVE SMOOTH",
"444 424 LINE",
"399 469 LINE",
"399 31 LINE"
);
}
);
width = 555;
}
);
leftKerningGroup = KO_e;
leftMetricsKey = c;
rightKerningGroup = KO_n;
rightMetricsKey = n;
},
{
color = 9;
glyphname = s.ss02;
lastChange = "2023-01-21 09:51:39 +0000";
layers = (
{
anchors = (
{
name = bottom;
position = "{223, 0}";
},
{
name = top;
position = "{234, 497}";
}
);
layerId = "E9EF56E4-BA0E-4F86-8263-866E5C5AE35D";
paths = (
{
closed = 1;
nodes = (
"360 -8 OFFCURVE",
"430 56 OFFCURVE",
"430 149 CURVE SMOOTH",
"430 259 OFFCURVE",
"347 288 OFFCURVE",
"274 306 CURVE SMOOTH",
"209 321 OFFCURVE",
"175 331 OFFCURVE",
"175 364 CURVE SMOOTH",
"175 390 OFFCURVE",
"196 406 OFFCURVE",
"231 406 CURVE SMOOTH",
"272 406 OFFCURVE",
"302 382 OFFCURVE",
"307 342 CURVE",
"425 374 LINE",
"413 455 OFFCURVE",
"341 508 OFFCURVE",
"230 508 CURVE SMOOTH",
"118 508 OFFCURVE",
"36 447 OFFCURVE",
"36 351 CURVE SMOOTH",
"36 248 OFFCURVE",
"126 214 OFFCURVE",
"198 197 CURVE SMOOTH",
"255 182 OFFCURVE",
"286 173 OFFCURVE",
"286 139 CURVE SMOOTH",
"286 109 OFFCURVE",
"262 95 OFFCURVE",
"225 95 CURVE SMOOTH",
"181 95 OFFCURVE",
"150 118 OFFCURVE",
"147 160 CURVE",
"20 129 LINE",
"32 46 OFFCURVE",
"109 -8 OFFCURVE",
"224 -8 CURVE SMOOTH"
);
}
);
width = 454;
},
{
anchors = (
{
name = bottom;
position = "{215, 0}";
},
{
name = top;
position = "{214, 500}";
}
);
layerId = "9744B420-26AC-498D-9016-81F71DDA7C26";
paths = (
{
closed = 1;
nodes = (
"324 -6 OFFCURVE",
"387 52 OFFCURVE",
"387 136 CURVE SMOOTH",
"387 244 OFFCURVE",
"302 270 OFFCURVE",
"212 291 CURVE SMOOTH",
"153 306 OFFCURVE",
"113 322 OFFCURVE",
"113 373 CURVE SMOOTH",
"113 423 OFFCURVE",
"151 445 OFFCURVE",
"206 445 CURVE SMOOTH",
"264 445 OFFCURVE",
"310 423 OFFCURVE",
"330 366 CURVE",
"394 386 LINE",
"373 458 OFFCURVE",
"305 508 OFFCURVE",
"212 508 CURVE SMOOTH",
"110 508 OFFCURVE",
"46 452 OFFCURVE",
"46 366 CURVE SMOOTH",
"46 272 OFFCURVE",
"126 244 OFFCURVE",
"200 225 CURVE SMOOTH",
"274 207 OFFCURVE",
"318 192 OFFCURVE",
"318 133 CURVE SMOOTH",
"318 88 OFFCURVE",
"287 56 OFFCURVE",
"219 56 CURVE SMOOTH",
"156 56 OFFCURVE",
"107 83 OFFCURVE",
"94 138 CURVE",
"31 114 LINE",
"50 43 OFFCURVE",
"118 -6 OFFCURVE",
"217 -6 CURVE SMOOTH"
);
}
);
width = 421;
},
{
anchors = (
{
name = bottom;
position = "{216, 0}";
},
{
name = top;
position = "{219, 498}";
}
);
layerId = "E61E66CE-5363-4C81-9EFF-07DC28A46654";
paths = (
{
closed = 1;
nodes = (
"330 -7 OFFCURVE",
"396 51 OFFCURVE",
"396 137 CURVE SMOOTH",
"396 243 OFFCURVE",
"319 272 OFFCURVE",
"226 294 CURVE SMOOTH",
"164 309 OFFCURVE",
"125 323 OFFCURVE",
"125 371 CURVE SMOOTH",
"125 414 OFFCURVE",
"159 437 OFFCURVE",
"211 437 CURVE SMOOTH",
"266 437 OFFCURVE",
"308 413 OFFCURVE",
"325 360 CURVE",
"400 383 LINE",
"381 457 OFFCURVE",
"312 508 OFFCURVE",
"216 508 CURVE SMOOTH",
"113 508 OFFCURVE",
"45 450 OFFCURVE",
"45 363 CURVE SMOOTH",
"45 274 OFFCURVE",
"116 240 OFFCURVE",
"199 220 CURVE SMOOTH",
"271 202 OFFCURVE",
"313 189 OFFCURVE",
"313 135 CURVE SMOOTH",
"313 91 OFFCURVE",
"281 65 OFFCURVE",
"221 65 CURVE SMOOTH",
"161 65 OFFCURVE",
"116 91 OFFCURVE",
"105 142 CURVE",
"29 118 LINE",
"46 43 OFFCURVE",
"117 -7 OFFCURVE",
"218 -7 CURVE SMOOTH"
);
}
);
width = 428;
}
);
leftKerningGroup = KO_s.ss02;
rightKerningGroup = KO_s.ss01;
},
{
color = 9;
glyphname = y.ss02;
lastChange = "2023-01-21 09:51:39 +0000";
layers = (
{
anchors = (
{
name = bottom;
position = "{297, -10}";
},
{
name = top;
position = "{297, 500}";
}
);
layerId = "E9EF56E4-BA0E-4F86-8263-866E5C5AE35D";
paths = (
{
closed = 1;
nodes = (
"204 -200 LINE",
"582 500 LINE",
"421 500 LINE",
"283 225 LINE",
"304 225 LINE",
"169 500 LINE",
"13 500 LINE",
"215 106 LINE",
"47 -200 LINE"
);
}
);
width = 594;
},
{
anchors = (
{
name = bottom;
position = "{267, -45}";
},
{
name = top;
position = "{267, 500}";
}
);
layerId = "9744B420-26AC-498D-9016-81F71DDA7C26";
paths = (
{
closed = 1;
nodes = (
"138 -200 LINE",
"519 500 LINE",
"442 500 LINE",
"262 158 LINE",
"275 158 LINE",
"88 500 LINE",
"14 500 LINE",
"232 106 LINE",
"62 -200 LINE"
);
}
);
width = 533;
},
{
anchors = (
{
name = bottom;
position = "{273, -38}";
},
{
name = top;
position = "{273, 500}";
}
);
layerId = "E61E66CE-5363-4C81-9EFF-07DC28A46654";
paths = (
{
closed = 1;
nodes = (
"151 -200 LINE",
"532 500 LINE",
"438 500 LINE",
"266 171 LINE",
"281 171 LINE",
"104 500 LINE",
"14 500 LINE",
"229 106 LINE",
"59 -200 LINE"
);
}
);
width = 545;
}
);
leftKerningGroup = KO_y.ss02;
rightKerningGroup = KO_y.ss02;
},
{
color = 7;
glyphname = c.ss03;
lastChange = "2023-01-21 09:46:28 +0000";
layers = (
{
anchors = (
{
name = bottom;
position = "{330, 0}";
},
{
name = top;
position = "{330, 500}";
}
);
layerId = "E9EF56E4-BA0E-4F86-8263-866E5C5AE35D";
paths = (
{
closed = 1;
nodes = (
"25 100 OFFCURVE",
"135 0 OFFCURVE",
"313 0 CURVE SMOOTH",
"544 0 LINE",
"544 131 LINE",
"313 131 LINE",
"231 131 OFFCURVE",
"172 175 OFFCURVE",
"172 259 CURVE SMOOTH",
"172 332 OFFCURVE",
"219 379 OFFCURVE",
"292 379 CURVE SMOOTH",
"359 379 OFFCURVE",
"404 335 OFFCURVE",
"404 270 CURVE SMOOTH",
"404 240 LINE",
"544 240 LINE",
"544 279 LINE SMOOTH",
"544 416 OFFCURVE",
"441 508 OFFCURVE",
"294 508 CURVE SMOOTH",
"143 508 OFFCURVE",
"25 409 OFFCURVE",
"25 254 CURVE SMOOTH"
);
}
);
width = 575;
},
{
anchors = (
{
name = bottom;
position = "{314, 0}";
},
{
name = top;
position = "{314, 500}";
}
);
layerId = "9744B420-26AC-498D-9016-81F71DDA7C26";
paths = (
{
closed = 1;
nodes = (
"40 94 OFFCURVE",
"155 0 OFFCURVE",
"328 0 CURVE SMOOTH",
"547 0 LINE",
"547 62 LINE",
"328 62 LINE",
"196 62 OFFCURVE",
"109 123 OFFCURVE",
"109 255 CURVE SMOOTH",
"109 368 OFFCURVE",
"186 443 OFFCURVE",
"303 443 CURVE SMOOTH",
"409 443 OFFCURVE",
"479 373 OFFCURVE",
"479 268 CURVE SMOOTH",
"479 254 LINE",
"547 254 LINE",
"547 267 LINE SMOOTH",
"547 410 OFFCURVE",
"450 506 OFFCURVE",
"303 506 CURVE SMOOTH",
"144 506 OFFCURVE",
"40 403 OFFCURVE",
"40 252 CURVE SMOOTH"
);
}
);
width = 585;
},
{
anchors = (
{
name = bottom;
position = "{318, 0}";
},
{
name = top;
position = "{318, 500}";
}
);
layerId = "E61E66CE-5363-4C81-9EFF-07DC28A46654";
paths = (
{
closed = 1;
nodes = (
"37 96 OFFCURVE",
"151 0 OFFCURVE",
"325 0 CURVE SMOOTH",
"547 0 LINE",
"547 76 LINE",
"325 76 LINE",
"203 76 OFFCURVE",
"122 134 OFFCURVE",
"122 255 CURVE SMOOTH",
"122 361 OFFCURVE",
"193 430 OFFCURVE",
"301 430 CURVE SMOOTH",
"398 430 OFFCURVE",
"464 366 OFFCURVE",
"464 268 CURVE SMOOTH",
"464 251 LINE",
"547 251 LINE",
"547 269 LINE SMOOTH",
"547 412 OFFCURVE",
"448 506 OFFCURVE",
"301 506 CURVE SMOOTH",
"144 506 OFFCURVE",
"37 405 OFFCURVE",
"37 252 CURVE SMOOTH"
);
}
);
width = 583;
}
);
leftKerningGroup = KO_e;
leftMetricsKey = o;
},
{
color = 7;
glyphname = e.ss03;
lastChange = "2023-01-21 09:46:28 +0000";
layers = (
{
anchors = (
{
name = bottom;
position = "{291, 0}";
},
{
name = ogonek;
position = "{339, 10}";
},
{
name = top;
position = "{291, 500}";
}
);
layerId = "E9EF56E4-BA0E-4F86-8263-866E5C5AE35D";
paths = (
{
closed = 1;
nodes = (
"569 0 LINE",
"569 131 LINE",
"319 131 LINE SMOOTH",
"233 131 OFFCURVE",
"172 175 OFFCURVE",
"172 259 CURVE SMOOTH",
"172 332 OFFCURVE",
"220 381 OFFCURVE",
"295 381 CURVE SMOOTH",
"343 381 OFFCURVE",
"379 361 OFFCURVE",
"398 327 CURVE",
"398 352 LINE",
"135 104 LINE",
"313 104 LINE",
"572 347 LINE",
"525 443 OFFCURVE",
"423 508 OFFCURVE",
"296 508 CURVE SMOOTH",
"138 508 OFFCURVE",
"25 408 OFFCURVE",
"25 253 CURVE SMOOTH",
"25 101 OFFCURVE",
"137 0 OFFCURVE",
"319 0 CURVE SMOOTH"
);
}
);
width = 592;
},
{
anchors = (
{
name = bottom;
position = "{320, 0}";
},
{
name = ogonek;
position = "{344, 10}";
},
{
name = top;
position = "{320, 500}";
}
);
layerId = "9744B420-26AC-498D-9016-81F71DDA7C26";
paths = (
{
closed = 1;
nodes = (
"556 0 LINE",
"556 62 LINE",
"327 62 LINE SMOOTH",
"195 62 OFFCURVE",
"109 124 OFFCURVE",
"109 255 CURVE SMOOTH",
"109 368 OFFCURVE",
"186 443 OFFCURVE",
"303 443 CURVE SMOOTH",
"371 443 OFFCURVE",
"431 415 OFFCURVE",
"466 365 CURVE",
"466 384 LINE",
"140 53 LINE",
"228 53 LINE",
"542 374 LINE",
"498 454 OFFCURVE",
"411 506 OFFCURVE",
"303 506 CURVE SMOOTH",
"154 506 OFFCURVE",
"40 408 OFFCURVE",
"40 252 CURVE SMOOTH",
"40 94 OFFCURVE",
"155 0 OFFCURVE",
"327 0 CURVE SMOOTH"
);
}
);
width = 583;
},
{
anchors = (
{
name = bottom;
position = "{314, 0}";
},
{
name = ogonek;
position = "{343, 10}";
},
{
name = top;
position = "{314, 500}";
}
);
layerId = "E61E66CE-5363-4C81-9EFF-07DC28A46654";
paths = (
{
closed = 1;
nodes = (
"558 0 LINE",
"558 76 LINE",
"325 76 LINE SMOOTH",
"202 76 OFFCURVE",
"122 135 OFFCURVE",
"122 255 CURVE SMOOTH",
"122 361 OFFCURVE",
"193 431 OFFCURVE",
"301 431 CURVE SMOOTH",
"366 431 OFFCURVE",
"421 404 OFFCURVE",
"452 358 CURVE",
"452 377 LINE",
"139 64 LINE",
"244 64 LINE",
"548 369 LINE",
"503 452 OFFCURVE",
"413 506 OFFCURVE",
"301 506 CURVE SMOOTH",
"151 506 OFFCURVE",
"37 408 OFFCURVE",
"37 252 CURVE SMOOTH",
"37 96 OFFCURVE",
"152 0 OFFCURVE",
"325 0 CURVE SMOOTH"
);
}
);
width = 585;
}
);
leftKerningGroup = KO_e;
leftMetricsKey = c;
rightKerningGroup = KO_e.ss03;
},
{
color = 7;
glyphname = g.ss03;
lastChange = "2023-01-21 09:46:28 +0000";
layers = (
{
anchors = (
{
name = bottom;
position = "{299, -200}";
},
{
name = top;
position = "{299, 500}";
}
);
layerId = "E9EF56E4-BA0E-4F86-8263-866E5C5AE35D";
paths = (
{
closed = 1;
nodes = (
"24 173 OFFCURVE",
"112 83 OFFCURVE",
"237 83 CURVE SMOOTH",
"270 83 OFFCURVE",
"306 90 OFFCURVE",
"331 101 CURVE",
"237 113 LINE",
"176 67 LINE",
"69 -17 LINE",
"69 -111 LINE",
"406 -111 LINE",
"406 -200 LINE",
"546 -200 LINE",
"546 -93 LINE SMOOTH",
"546 -25 OFFCURVE",
"500 20 OFFCURVE",
"433 20 CURVE SMOOTH",
"272 20 LINE",
"311 51 LINE",
"388 109 LINE SMOOTH",
"456 162 OFFCURVE",
"487 221 OFFCURVE",
"487 289 CURVE SMOOTH",
"487 331 OFFCURVE",
"473 369 OFFCURVE",
"447 395 CURVE",
"415 373 LINE",
"479 369 LINE",
"573 369 LINE",
"573 500 LINE",
"273 500 LINE SMOOTH",
"122 500 OFFCURVE",
"24 412 OFFCURVE",
"24 289 CURVE SMOOTH"
);
},
{
closed = 1;
nodes = (
"165 341 OFFCURVE",
"201 373 OFFCURVE",
"255 373 CURVE SMOOTH",
"310 373 OFFCURVE",
"346 341 OFFCURVE",
"346 285 CURVE SMOOTH",
"346 229 OFFCURVE",
"310 196 OFFCURVE",
"255 196 CURVE SMOOTH",
"201 196 OFFCURVE",
"165 229 OFFCURVE",
"165 285 CURVE SMOOTH"
);
}
);
width = 594;
},
{
anchors = (
{
name = bottom;
position = "{283, -200}";
},
{
name = top;
position = "{283, 500}";
}
);
layerId = "9744B420-26AC-498D-9016-81F71DDA7C26";
paths = (
{
closed = 1;
nodes = (
"39 183 OFFCURVE",
"126 98 OFFCURVE",
"248 98 CURVE SMOOTH",
"281 98 OFFCURVE",
"313 105 OFFCURVE",
"339 112 CURVE",
"272 115 LINE",
"220 81 LINE",
"70 -28 LINE",
"70 -75 LINE",
"433 -75 LINE",
"433 -200 LINE",
"500 -200 LINE",
"500 -68 LINE SMOOTH",
"500 -34 OFFCURVE",
"478 -13 OFFCURVE",
"444 -13 CURVE SMOOTH",
"182 -13 LINE",
"215 9 LINE",
"367 116 LINE SMOOTH",
"441 169 OFFCURVE",
"475 228 OFFCURVE",
"475 299 CURVE SMOOTH",
"475 376 OFFCURVE",
"431 435 OFFCURVE",
"364 454 CURVE",
"342 438 LINE",
"410 438 LINE",
"553 438 LINE",
"553 500 LINE",
"264 500 LINE SMOOTH",
"131 500 OFFCURVE",
"39 419 OFFCURVE",
"39 299 CURVE SMOOTH"
);
},
{
closed = 1;
nodes = (
"107 384 OFFCURVE",
"168 438 OFFCURVE",
"256 438 CURVE SMOOTH",
"345 438 OFFCURVE",
"407 384 OFFCURVE",
"407 297 CURVE SMOOTH",
"407 210 OFFCURVE",
"346 153 OFFCURVE",
"256 153 CURVE SMOOTH",
"167 153 OFFCURVE",
"107 210 OFFCURVE",
"107 297 CURVE SMOOTH"
);
}
);
width = 577;
},
{
anchors = (
{
name = bottom;
position = "{287, -200}";
},
{
name = top;
position = "{287, 500}";
}
);
layerId = "E61E66CE-5363-4C81-9EFF-07DC28A46654";
paths = (
{
closed = 1;
nodes = (
"36 181 OFFCURVE",
"123 95 OFFCURVE",
"246 95 CURVE SMOOTH",
"279 95 OFFCURVE",
"311 102 OFFCURVE",
"337 110 CURVE",
"265 115 LINE",
"211 78 LINE",
"70 -26 LINE",
"70 -82 LINE",
"428 -82 LINE",
"428 -200 LINE",
"509 -200 LINE",
"509 -73 LINE SMOOTH",
"509 -32 OFFCURVE",
"482 -6 OFFCURVE",
"442 -6 CURVE SMOOTH",
"200 -6 LINE",
"234 18 LINE",
"371 114 LINE SMOOTH",
"444 167 OFFCURVE",
"477 226 OFFCURVE",
"477 297 CURVE SMOOTH",
"477 367 OFFCURVE",
"440 422 OFFCURVE",
"380 442 CURVE",
"357 425 LINE",
"424 424 LINE",
"557 424 LINE",
"557 500 LINE",
"266 500 LINE SMOOTH",
"129 500 OFFCURVE",
"36 417 OFFCURVE",
"36 297 CURVE SMOOTH"
);
},
{
closed = 1;
nodes = (
"118 375 OFFCURVE",
"175 425 OFFCURVE",
"256 425 CURVE SMOOTH",
"338 425 OFFCURVE",
"395 375 OFFCURVE",
"395 295 CURVE SMOOTH",
"395 214 OFFCURVE",
"339 162 OFFCURVE",
"256 162 CURVE SMOOTH",
"174 162 OFFCURVE",
"118 214 OFFCURVE",
"118 295 CURVE SMOOTH"
);
}
);
width = 581;
}
);
rightKerningGroup = KO_g.ss03;
},
{
color = 8;
glyphname = a.ss04;
lastChange = "2023-01-22 17:01:43 +0000";
layers = (
{
anchors = (
{
name = bottom;
position = "{326, 0}";
},
{
name = ogonek;
position = "{457, 0}";
},
{
name = top;
position = "{347, 500}";
}
);
layerId = "E9EF56E4-BA0E-4F86-8263-866E5C5AE35D";
paths = (
{
closed = 1;
nodes = (
"512 0 LINE",
"512 500 LINE",
"284 500 LINE SMOOTH",
"129 500 OFFCURVE",
"25 400 OFFCURVE",
"25 250 CURVE SMOOTH",
"25 100 OFFCURVE",
"129 0 OFFCURVE",
"284 0 CURVE SMOOTH"
);
},
{
closed = 1;
nodes = (
"417 131 LINE",
"293 131 LINE SMOOTH",
"214 131 OFFCURVE",
"172 179 OFFCURVE",
"172 250 CURVE SMOOTH",
"172 328 OFFCURVE",
"220 369 OFFCURVE",
"293 369 CURVE SMOOTH",
"417 369 LINE",
"372 414 LINE",
"372 86 LINE"
);
}
);
width = 562;
},
{
anchors = (
{
name = bottom;
position = "{278, 0}";
},
{
name = ogonek;
position = "{373, 0}";
},
{
name = top;
position = "{305, 500}";
}
);
layerId = "9744B420-26AC-498D-9016-81F71DDA7C26";
paths = (
{
closed = 1;
nodes = (
"473 0 LINE",
"473 500 LINE",
"300 500 LINE SMOOTH",
"144 500 OFFCURVE",
"40 400 OFFCURVE",
"40 250 CURVE SMOOTH",
"40 100 OFFCURVE",
"144 0 OFFCURVE",
"300 0 CURVE SMOOTH"
);
},
{
closed = 1;
nodes = (
"451 62 LINE",
"304 62 LINE SMOOTH",
"185 62 OFFCURVE",
"109 137 OFFCURVE",
"109 250 CURVE SMOOTH",
"109 365 OFFCURVE",
"187 438 OFFCURVE",
"304 438 CURVE SMOOTH",
"451 438 LINE",
"406 483 LINE",
"406 17 LINE"
);
}
);
width = 553;
},
{
anchors = (
{
name = bottom;
position = "{278, 0}";
},
{
name = ogonek;
position = "{381, 0}";
},
{
name = top;
position = "{305, 500}";
}
);
layerId = "E61E66CE-5363-4C81-9EFF-07DC28A46654";
paths = (
{
closed = 1;
nodes = (
"481 0 LINE",
"481 500 LINE",
"297 500 LINE SMOOTH",
"141 500 OFFCURVE",
"37 400 OFFCURVE",
"37 250 CURVE SMOOTH",
"37 100 OFFCURVE",
"141 0 OFFCURVE",
"297 0 CURVE SMOOTH"
);
},
{
closed = 1;
nodes = (
"444 76 LINE",
"302 76 LINE SMOOTH",
"191 76 OFFCURVE",
"122 146 OFFCURVE",
"122 250 CURVE SMOOTH",
"122 358 OFFCURVE",
"194 424 OFFCURVE",
"302 424 CURVE SMOOTH",
"444 424 LINE",
"399 469 LINE",
"399 31 LINE"
);
}
);
width = 555;
}
);
leftKerningGroup = KO_e;
leftMetricsKey = c;
rightKerningGroup = KO_n;
rightMetricsKey = n;
userData = {
KernOnName = a.ss04;
};
},
